<svg width="155" height="172" viewBox="0 0 155 172" fill="none" xmlns="http://www.w3.org/2000/svg">
<g clip-path="url(#clip0)">
<path d="M20.2199 73.7237C15.282 70.312 10.5212 65.5633 7.04458 60.5555C5.85604 56.344 3.17344 52.3828 16.5714 47C17.8687 52.2596 26.9091 60.5555 32 62.9243C29.3869 70.261 25.3554 78.138 20.2199 73.7237Z" fill="url(#paint0_linear)"/>
<path d="M20 73.6798C20.4686 74.0049 20.9412 74.3181 21.4167 74.6187C25.9951 76.7322 29.6181 69.4336 32.0447 62.5927C33.5573 58.3283 34.605 54.2416 35.1296 52.7235C36.2902 49.3638 36.8566 43.1123 36.9948 40.4065C48.1817 38.8351 51.7336 42.1626 52 44.534C51.2679 56.0461 47.3647 70.1651 40.518 76.6617C36.206 80.7531 28.5 79.0968 21.4167 74.6187C20.9541 74.4052 20.4818 74.0957 20 73.6798Z" fill="url(#paint1_linear)"/>
<path d="M5.23249 36.9035C14.6603 29.6845 29.1157 25.09 44.4089 26.1522C50.052 26.5442 53.0774 31.9143 52.9985 40.8022C52.9886 41.9012 52.9468 43.037 52.8729 44.199C52.6035 41.8011 49.0132 38.4367 37.705 40.0255C34.6615 40.4532 31.0588 41.2397 26.8112 42.5004C22.7468 43.707 19.439 44.8452 16.7553 45.9281C2.9079 51.5159 5.68049 55.6281 6.90889 60C6.31179 59.1361 5.75134 58.2649 5.23278 57.3913C0.409914 49.2668 -1.1762 41.8107 5.23249 36.9035Z" fill="url(#paint2_linear)"/>
<g opacity="0.12">
<path opacity="0.12" d="M0.980392 44.8618C0.89906 48.5685 2.56264 52.7799 5.19293 57.19C5.70937 58.0559 6.26752 58.9195 6.86216 59.7758C6.77367 59.4623 6.67712 59.15 6.57937 58.8387C6.08986 58.1177 5.62667 57.392 5.19293 56.6647C2.68611 52.4617 1.05736 48.439 0.980392 44.8618Z" fill="black"/>
<path opacity="0.12" d="M6.57935 58.8387C6.67688 59.1494 6.7732 59.4608 6.86155 59.7737L6.86317 59.7759C10.4417 64.9286 15.342 69.8152 20.4246 73.3257C20.91 73.7429 21.386 74.0534 21.8521 74.2675C28.9821 78.7545 36.7386 80.4139 41.079 76.3138C45.8158 71.8389 49.153 63.7558 51.0165 55.3923C51.8627 51.594 52.4051 47.7375 52.6366 44.1352V44.1299C52.4048 47.7264 51.8614 51.074 51.0165 54.8671C49.153 63.2306 45.8158 71.3136 41.079 75.7884C36.7386 79.8886 28.9821 78.2293 21.8521 73.7422C21.386 73.5281 20.91 73.2176 20.4246 72.8005C15.342 69.2899 10.4417 64.4034 6.86317 59.2506L6.86214 59.2505C6.76756 59.1143 6.67207 58.9752 6.57935 58.8387Z" fill="black"/>
</g>
<g opacity="0.12">
<path opacity="0.12" d="M0.980392 45.6985C0.89906 49.271 2.56265 53.33 5.19293 57.5805C5.70937 58.4151 6.26752 59.2474 6.86216 60.0727C6.77367 59.7706 6.67712 59.4698 6.57937 59.1695C6.08986 58.4746 5.62667 57.7752 5.19293 57.0742C2.68611 53.0233 1.05736 49.1463 0.980392 45.6985Z" fill="black"/>
<path opacity="0.12" d="M5.79282 55.3481C5.91897 52.7212 8.09577 49.9476 16.668 46.6294C19.3407 45.5948 22.6349 44.5072 26.6826 43.3547C30.9127 42.1502 34.5007 41.3988 37.5317 40.9903C48.7934 39.4723 52.3689 42.6867 52.6373 44.9775C52.7109 43.8673 52.7525 42.7823 52.7623 41.7322C52.7638 41.5389 52.7643 41.3473 52.7628 41.1575C52.7626 41.1803 52.7625 41.2031 52.7623 41.2259C52.7525 42.276 52.7109 43.361 52.6373 44.4712C52.3689 42.1804 48.7934 38.966 37.5317 40.484C34.5007 40.8926 30.9127 41.644 26.6826 42.8484C22.6349 44.001 19.3407 45.0885 16.668 46.1231C7.54326 49.6552 5.66494 52.5701 5.79282 55.3481Z" fill="black"/>
</g>
<path d="M65.8079 14.5005L74.4143 23.0934L65.8079 31.6863L57.2014 23.0934L65.8079 14.5005Z" fill="url(#paint3_linear)"/>
<path opacity="0.12" d="M73.5558 22L65.5001 30.106L57.4443 22L57 22.4471L65.5001 31L74 22.4471L73.5558 22Z" fill="black"/>
<path fill-rule="evenodd" clip-rule="evenodd" d="M99.2135 151.856C104.732 153.599 111.537 153.337 116.574 151.634C119.539 156.688 123.828 163.103 127.034 165.844C132.084 170.158 136.366 164.807 133.111 159.43C132.234 157.981 131.078 155.756 129.809 153.313V153.312C127.781 149.407 125.464 144.946 123.533 142.207C123.132 136.102 123.138 127.463 123.216 121.233C124.778 120.739 126.503 120.251 128.026 119.95C129.361 119.934 130.947 119.883 132.803 119.813C136.92 119.657 137.242 119.491 144.361 115.83C145.125 115.437 145.967 115.003 146.901 114.526C151.354 112.247 148.015 107.786 143.447 109.125C142.216 109.486 140.364 109.906 138.33 110.366C136.007 110.892 133.448 111.472 131.307 112.079C129.023 112.122 126.164 112.367 122.726 112.847C122.629 112.86 122.529 112.877 122.428 112.896C121.966 112.659 121.456 112.385 121.211 112.206L120.976 112.037C113.535 89.6267 84.3568 98.5946 84.3568 120.143C84.3568 120.219 84.3572 120.296 84.3579 120.373C83.9163 120.789 83.4462 121.244 82.9463 121.738C79.662 124.986 79.0667 127.756 77.8298 133.51C77.499 135.051 77.1217 136.805 76.6347 138.84C74.2908 148.634 78.9472 153.689 82.3255 141.3C83.6617 136.4 84.4176 132.965 84.9615 130.494C85.104 129.845 85.2322 129.263 85.3524 128.738C85.8219 131.139 86.4409 133.717 87.1727 136.414C87.2566 136.723 87.339 137.031 87.4214 137.338L87.4218 137.34C88.1613 140.106 88.8809 142.798 90.5032 145.354C89.8014 146.731 89.0807 148.612 88.3482 151.108C87.0746 155.447 85.6413 162.368 86.2802 166.097C87.1664 171.271 93.8091 171.177 94.9347 166.55C95.2379 165.303 95.8443 163.503 96.5101 161.527C97.6293 158.204 98.9166 154.383 99.2135 151.856Z" fill="white"/>
<path opacity="0.855399" d="M116.607 152.04L116.381 151.382C116.697 151.276 117.046 151.404 117.214 151.688L116.607 152.04ZM99.1057 152.26L98.406 152.179C98.4306 151.974 98.5468 151.79 98.7233 151.677C98.8997 151.564 99.1177 151.536 99.3177 151.598L99.1057 152.26ZM127.152 166.172L126.694 166.7L127.152 166.172ZM133.277 159.793L133.88 159.433L133.277 159.793ZM129.949 153.709L130.566 153.375C130.569 153.379 130.571 153.384 130.574 153.389L129.949 153.709ZM129.949 153.709L129.332 154.044C129.329 154.039 129.326 154.034 129.324 154.029L129.949 153.709ZM123.622 142.665L123.046 143.065C122.971 142.961 122.927 142.838 122.919 142.71L123.622 142.665ZM123.303 121.806L122.598 121.797C122.602 121.498 122.801 121.234 123.09 121.144L123.303 121.806ZM128.151 120.53L128.014 119.849C128.057 119.84 128.099 119.836 128.142 119.835L128.151 120.53ZM132.967 120.393L132.994 121.087L132.967 120.393ZM144.618 116.432L144.941 117.049L144.618 116.432ZM147.18 115.135L147.5 115.753L147.18 115.135ZM143.697 109.764L143.895 110.431L143.697 109.764ZM138.539 110.998L138.373 110.323C138.377 110.323 138.38 110.322 138.384 110.321L138.539 110.998ZM138.539 110.998L138.705 111.673C138.701 111.675 138.696 111.676 138.692 111.676L138.539 110.998ZM138.539 110.998L138.384 110.321L138.386 110.32L138.539 110.998ZM131.46 112.702L131.652 113.37C131.593 113.387 131.533 113.396 131.473 113.397L131.46 112.702ZM122.809 113.465L122.906 114.153L122.809 113.465ZM122.509 113.514L122.64 114.196C122.486 114.225 122.327 114.203 122.188 114.132L122.509 113.514ZM121.281 112.828L121.694 112.265L121.696 112.267L121.281 112.828ZM121.045 112.66L120.632 113.223C120.513 113.137 120.423 113.017 120.376 112.879L121.045 112.66ZM84.1298 120.95L84.8341 120.944C84.8358 121.137 84.7559 121.322 84.6133 121.455L84.1298 120.95ZM82.7067 122.308L83.2022 122.802L82.7067 122.308ZM77.5488 134.015L76.8582 133.879C76.8589 133.876 76.8596 133.873 76.8603 133.87L77.5488 134.015ZM77.5488 134.015L78.2397 134.152C78.239 134.155 78.2383 134.158 78.2376 134.161L77.5488 134.015ZM76.3441 139.316L75.6591 139.155L76.3441 139.316ZM82.081 141.763L81.4013 141.58L82.081 141.763ZM84.7383 131.016L84.0502 130.867L84.7383 131.016ZM85.1324 129.27L84.446 129.115C84.52 128.795 84.8112 128.57 85.1436 128.575C85.4761 128.581 85.7599 128.814 85.8236 129.136L85.1324 129.27ZM86.9674 136.903L86.2878 137.085L86.9674 136.903ZM87.2181 137.823L86.5378 138.002H86.5374L87.2181 137.823ZM87.2185 137.825L87.8989 137.645V137.646L87.2185 137.825ZM90.3248 145.794L90.9196 145.422C91.0531 145.63 91.0654 145.891 90.9524 146.11L90.3248 145.794ZM88.1524 151.517L87.4766 151.321L88.1524 151.517ZM86.0677 166.424L85.3732 166.541L86.0677 166.424ZM94.7922 166.874L95.4764 167.038L94.7922 166.874ZM96.3804 161.879L95.7127 161.657L96.3804 161.879ZM116.833 152.698C111.623 154.436 104.609 154.704 98.8934 152.923L99.3177 151.598C104.73 153.285 111.436 153.032 116.381 151.382L116.833 152.698ZM126.694 166.7C125.01 165.28 123.08 162.946 121.215 160.373C119.342 157.788 117.502 154.918 115.999 152.391L117.214 151.688C118.701 154.188 120.518 157.022 122.361 159.565C124.213 162.12 126.061 164.338 127.61 165.644L126.694 166.7ZM133.88 159.433C135.636 162.295 135.442 165.308 133.883 167.056C133.098 167.935 131.988 168.457 130.704 168.432C129.431 168.407 128.056 167.847 126.694 166.7L127.61 165.644C128.793 166.642 129.866 167.026 130.732 167.043C131.587 167.06 132.305 166.721 132.826 166.138C133.876 164.96 134.2 162.639 132.675 160.153L133.88 159.433ZM130.574 153.389C131.858 155.828 133.01 158.017 133.88 159.433L132.675 160.153C131.776 158.688 130.598 156.45 129.324 154.029L130.574 153.389ZM130.566 153.374V153.375L129.332 154.044L130.566 153.374ZM124.197 142.265C126.178 145.036 128.539 149.523 130.574 153.389L129.324 154.029C127.27 150.128 124.959 145.741 123.046 143.065L124.197 142.265ZM124.007 121.815C123.928 128.011 123.922 136.577 124.324 142.62L122.919 142.71C122.513 136.608 122.52 127.993 122.598 121.797L124.007 121.815ZM128.288 121.211C126.789 121.503 125.079 121.98 123.515 122.468L123.09 121.144C124.675 120.649 126.442 120.155 128.014 119.849L128.288 121.211ZM132.994 121.087C131.122 121.157 129.515 121.208 128.16 121.225L128.142 119.835C129.479 119.819 131.07 119.769 132.941 119.699L132.994 121.087ZM144.941 117.049C141.376 118.858 139.446 119.84 137.89 120.375C136.286 120.928 135.076 121.009 132.994 121.087L132.941 119.699C135.009 119.621 136.036 119.543 137.426 119.064C138.864 118.568 140.684 117.647 144.296 115.814L144.941 117.049ZM147.5 115.753C146.56 116.228 145.711 116.658 144.941 117.049L144.296 115.814C145.066 115.423 145.916 114.992 146.858 114.516L147.5 115.753ZM143.499 109.097C146.036 108.364 148.369 109.188 149.429 110.706C149.967 111.476 150.168 112.427 149.844 113.374C149.525 114.309 148.732 115.131 147.5 115.753L146.858 114.516C147.872 114.005 148.341 113.423 148.51 112.93C148.674 112.45 148.588 111.95 148.269 111.494C147.617 110.561 145.964 109.833 143.895 110.431L143.499 109.097ZM138.384 110.321C140.444 109.861 142.285 109.449 143.499 109.097L143.895 110.431C142.628 110.797 140.735 111.22 138.695 111.676L138.384 110.321ZM138.373 110.323L138.705 111.673L138.373 110.323ZM138.386 110.32L138.692 111.676L138.386 110.32ZM131.267 112.034C133.447 111.424 136.047 110.843 138.384 110.321L138.695 111.676C136.349 112.2 133.788 112.773 131.652 113.37L131.267 112.034ZM122.711 112.777C126.195 112.298 129.107 112.051 131.446 112.008L131.473 113.397C129.207 113.439 126.353 113.679 122.906 114.153L122.711 112.777ZM122.377 112.832C122.49 112.81 122.601 112.792 122.711 112.777L122.906 114.153C122.82 114.165 122.731 114.179 122.64 114.196L122.377 112.832ZM121.696 112.267C121.89 112.406 122.351 112.654 122.829 112.896L122.188 114.132C121.734 113.903 121.167 113.605 120.867 113.389L121.696 112.267ZM121.457 112.096L121.694 112.265L120.869 113.391L120.632 113.223L121.457 112.096ZM83.4244 120.721C83.4244 109.664 91.0207 101.82 99.5966 99.6244C103.889 98.5256 108.451 98.835 112.438 100.888C116.432 102.944 119.788 106.72 121.713 112.441L120.376 112.879C118.551 107.456 115.417 103.989 111.786 102.119C108.147 100.245 103.95 99.9453 99.9505 100.969C91.944 103.019 84.833 110.348 84.833 120.721H83.4244ZM83.4255 120.956C83.4248 120.878 83.4244 120.799 83.4244 120.721H84.833C84.833 120.795 84.8334 120.869 84.8341 120.944L83.4255 120.956ZM82.2116 121.814C82.7191 121.319 83.1966 120.863 83.6463 120.445L84.6133 121.455C84.1724 121.865 83.7026 122.314 83.2022 122.802L82.2116 121.814ZM76.8603 133.87C78.1041 128.16 78.7338 125.207 82.2116 121.814L83.2022 122.802C80.0579 125.869 79.487 128.425 78.2376 134.161L76.8603 133.87ZM76.8582 133.879L78.2397 134.152L76.8582 133.879ZM75.6591 139.155C76.1479 137.14 76.5265 135.402 76.8603 133.87L78.2376 134.161C77.9038 135.694 77.522 137.445 77.029 139.478L75.6591 139.155ZM82.7603 141.946C81.9003 145.057 80.9382 147.158 79.9695 148.376C79.4863 148.984 78.9549 149.431 78.3753 149.628C77.7558 149.838 77.1449 149.739 76.6353 149.374C76.1588 149.032 75.8127 148.491 75.5669 147.872C75.3176 147.243 75.1485 146.476 75.0637 145.606C74.8939 143.867 75.0541 141.648 75.6591 139.155L77.029 139.478C76.4525 141.854 76.3138 143.916 76.4659 145.473C76.542 146.253 76.6892 146.888 76.879 147.366C77.0723 147.854 77.2878 148.125 77.4632 148.25C77.6055 148.352 77.7368 148.375 77.9168 148.314C78.1369 148.24 78.4626 148.02 78.8612 147.519C79.6568 146.519 80.5583 144.63 81.4013 141.58L82.7603 141.946ZM85.4261 131.165C84.877 133.625 84.1122 137.056 82.7603 141.946L81.4013 141.58C82.7437 136.724 83.503 133.321 84.0502 130.867L85.4261 131.165ZM85.819 129.425C85.6986 129.943 85.5701 130.519 85.4261 131.165L84.0502 130.867C84.1942 130.222 84.3238 129.64 84.446 129.115L85.819 129.425ZM86.2878 137.085C85.5468 134.391 84.9186 131.81 84.4411 129.403L85.8236 129.136C86.293 131.504 86.9128 134.051 87.6471 136.721L86.2878 137.085ZM86.5374 138.002C86.4547 137.696 86.3719 137.391 86.2878 137.085L87.6471 136.721C87.7323 137.03 87.8157 137.338 87.8985 137.644L86.5374 138.002ZM86.5381 138.004L86.5378 138.002L87.8985 137.643L87.8989 137.645L86.5381 138.004ZM89.7304 146.167C88.0284 143.521 87.2801 140.742 86.5381 138.004L87.8989 137.646C88.6475 140.408 89.3504 142.983 90.9196 145.422L89.7304 146.167ZM90.9524 146.11C90.2716 147.427 89.5596 149.253 88.8282 151.712L87.4766 151.321C88.2218 148.815 88.9631 146.901 89.6973 145.479L90.9524 146.11ZM88.8282 151.712C88.1936 153.846 87.5185 156.616 87.0826 159.307C86.6434 162.018 86.4603 164.571 86.7618 166.307L85.3732 166.541C85.0306 164.568 85.2482 161.825 85.6916 159.088C86.1381 156.331 86.8276 153.503 87.4766 151.321L88.8282 151.712ZM86.7618 166.307C87.1495 168.54 88.7521 169.573 90.3558 169.61C91.9831 169.647 93.6259 168.665 94.108 166.71L95.4764 167.038C94.8239 169.684 92.5511 171.05 90.3231 170.999C88.0714 170.947 85.8793 169.454 85.3732 166.541L86.7618 166.307ZM94.108 166.71C94.4225 165.434 95.0461 163.609 95.7127 161.657L97.0477 162.1C96.372 164.079 95.7733 165.835 95.4764 167.038L94.108 166.71ZM95.7127 161.657C96.8519 158.321 98.1176 154.603 98.406 152.179L99.8051 152.341C99.4952 154.945 98.1651 158.828 97.0477 162.1L95.7127 161.657Z" fill="#0500FF"/>
<path d="M89.2005 120.804C71.1208 123.214 55.942 102.939 60.9771 85.2483C66.0121 67.5601 86.9354 56.1819 107.544 59.6088C128.157 63.0364 137.486 80.2769 135.808 99.008C134.41 114.617 112.427 117.708 89.2005 120.804Z" fill="white" stroke="#0500FF" stroke-width="2"/>
<path opacity="0.855399" d="M115.963 112.452C103.382 115.494 88.525 117.874 85.0033 106.88C77.4927 83.4352 92.4107 74.7404 108.012 73.1762C121.166 71.8571 133.916 77.7903 135.882 96.1622C137.115 107.673 128.542 109.411 115.963 112.452Z" fill="#0500FF" fill-opacity="0.15" stroke="#0500FF"/>
<path opacity="0.855399" d="M94.1845 51.4786C93.3356 52.1574 92.203 52.1408 90.9573 51.6175C89.7165 51.0964 88.5267 50.1284 87.7797 49.2188C86.4555 47.6064 86.8202 44.9644 88.8566 43.3366C89.909 42.4954 90.9201 42.071 91.9233 42.0082C92.9258 41.9457 94.0034 42.2392 95.1991 42.9806C96.1096 43.5452 96.6018 44.2275 96.8321 44.943C97.0663 45.6708 97.0457 46.4872 96.8311 47.3267C96.3972 49.0262 95.2098 50.6591 94.1845 51.4786Z" fill="white" stroke="#0500FF"/>
<path opacity="0.855399" d="M93.4154 49.5816C93.3299 49.1817 92.9475 48.9291 92.5615 49.0177C92.1752 49.1064 91.9318 49.5022 92.017 49.9025L93.4154 49.5816ZM92.017 49.9025L94.6019 62L96 61.6795L93.4154 49.5816L92.017 49.9025Z" fill="#0500FF"/>
<path opacity="0.855399" d="M94.742 99.3119C94.0859 100.763 92.3327 101.438 90.7814 100.696C89.2298 99.9539 88.6014 98.1392 89.258 96.6877C89.9141 95.2371 91.6673 94.5621 93.2186 95.3041C94.7702 96.046 95.3986 97.8607 94.742 99.3119Z" fill="#0500FF" fill-opacity="0.4" stroke="#0500FF"/>
<path opacity="0.855399" d="M130.481 89.7533C130.405 89.0582 130.128 88.5042 129.769 88.1242C129.323 87.6516 128.75 87.4442 128.22 87.5128C127.688 87.5819 127.17 87.9325 126.844 88.5506C126.595 89.0241 126.458 89.6604 126.548 90.4531C126.659 91.0945 126.945 91.6019 127.301 91.9471C127.737 92.3692 128.277 92.5523 128.78 92.487C129.304 92.419 129.811 92.076 130.14 91.5092C130.407 91.0502 130.556 90.4439 130.481 89.7533Z" fill="#0500FF" fill-opacity="0.4" stroke="#0500FF"/>
<path opacity="0.15" d="M128.778 80.9377C126.958 78.0426 124.316 71.1683 125.163 70C126.223 70.8113 130.568 75.3542 132.389 78.2489C134.208 81.1439 135.001 86.0013 135 86C132.95 85.038 131.395 84.1509 128.778 80.9377Z" fill="#0500FF"/>
<path opacity="0.15" d="M124.977 75.6486C128.877 78.2875 135.451 85.9076 134.976 88C133.169 87.6179 132.142 81.7489 126.173 79.8911C107.371 74.0387 114.214 73.0084 114.215 73.0098C117.385 72.9479 119.873 73.1085 124.977 75.6486Z" fill="#0500FF"/>
<path opacity="0.15" d="M140.761 109.139C143.915 108.005 146.324 114.18 144.19 114.87C141.057 115.883 136.434 110.694 140.761 109.139Z" fill="#0500FF"/>
<path opacity="0.15" d="M78.2285 147.071C76.9257 145.39 76.2861 141.028 78.2289 133.795C80.1717 126.563 82.29 117.16 91.9673 122.643C92.7142 123.473 92.5016 123.713 91.9909 124.287C91.2475 125.123 89.8726 126.669 89.9111 131.785C89.8112 132.822 89.6763 133.959 89.5166 135.143C89.814 135.924 90.1414 136.837 90.4949 137.823C92.0888 142.268 94.2152 148.197 96.5274 150.276C98.6398 152.176 104.026 152.839 107.598 153.279C110.142 153.593 111.765 153.793 110.633 154.245C99.3309 157.33 92.9141 150.198 90.9427 146.634C89.4407 144.655 85.9411 131.141 85.292 128.19C83.7027 132.891 79.5314 148.752 78.2285 147.071Z" fill="#0500FF"/>
<path opacity="0.15" d="M88.5105 155.333C91.5323 144.204 93.6475 149.253 90.2847 158.861C88.6489 163.534 93.4059 173.837 91.1394 171.716C85.7366 164.497 86.5009 159.3 88.5105 155.333Z" fill="#0500FF"/>
<path opacity="0.855399" d="M109 108.269C109 108.269 111.682 109.914 116.234 108.269C120.049 106.89 122 104 122 104" stroke="#0500FF" stroke-linecap="round" stroke-linejoin="round"/>
<path d="M141.303 107.025C153.314 124.838 155.771 113.726 145.802 94.6899C137.098 78.0726 116.83 36.1228 111.101 25.0155C96.3559 -3.56986 73.4859 -20.6511 108.368 47.9103C117.632 66.1174 132.644 94.1852 141.303 107.025Z" fill="url(#paint4_linear)"/>
<path opacity="0.855399" d="M146.192 102.215C146.837 102.257 147.409 102.637 147.688 103.211L154.824 117.874C155.247 118.743 154.881 119.785 154.003 120.211L152.754 120.818C151.912 121.227 150.892 120.925 150.419 120.127L141.247 104.645C140.526 103.428 141.478 101.912 142.907 102.004L146.192 102.215Z" fill="#ABB3AC"/>
<path opacity="0.855399" d="M146.423 115.453C147.197 116.129 148.316 116.156 149.625 115.657C150.919 115.163 152.198 114.218 153.025 113.318C154.502 111.712 154.304 109.065 152.411 107.412C151.422 106.548 150.447 106.103 149.452 106.016C148.453 105.929 147.344 106.194 146.076 106.912C145.109 107.459 144.556 108.138 144.268 108.855C143.975 109.583 143.935 110.402 144.086 111.246C144.394 112.956 145.462 114.615 146.423 115.453Z" fill="white" stroke="#0500FF"/>
<path d="M144.15 106.616C154.485 125.44 152.427 116.487 142.647 97.1738C134.109 80.3144 112.797 36.9226 107.267 27.2067C97.456 9.98926 78.1355 -23.184 112.908 46.0873C122.142 64.4834 136.7 93.047 144.15 106.616Z" fill="url(#paint5_radial)"/>
</g>
<defs>
<linearGradient id="paint0_linear" x1="17.699" y1="59.3659" x2="9.65142" y2="71.1346" gradientUnits="userSpaceOnUse">
<stop stop-color="#4E4D9B"/>
<stop offset="1" stop-color="#956BD9"/>
</linearGradient>
<linearGradient id="paint1_linear" x1="36.0001" y1="39.4649" x2="43.8799" y2="76.3658" gradientUnits="userSpaceOnUse">
<stop stop-color="#007D3A"/>
<stop offset="1" stop-color="#11DF26"/>
</linearGradient>
<linearGradient id="paint2_linear" x1="48.7655" y1="37.6985" x2="35.0999" y2="61.1886" gradientUnits="userSpaceOnUse">
<stop stop-color="#E6A3FF"/>
<stop offset="1" stop-color="#924DE8"/>
</linearGradient>
<linearGradient id="paint3_linear" x1="66.7621" y1="19.5099" x2="63.9797" y2="25.8744" gradientUnits="userSpaceOnUse">
<stop stop-color="#0500FF"/>
<stop offset="1" stop-color="#0600FF"/>
</linearGradient>
<linearGradient id="paint4_linear" x1="126.656" y1="97.4525" x2="135.565" y2="114.732" gradientUnits="userSpaceOnUse">
<stop stop-color="#3CE700"/>
<stop offset="1" stop-color="#00E7E7" stop-opacity="0"/>
</linearGradient>
<radialGradient id="paint5_radial" cx="0" cy="0" r="1" gradientUnits="userSpaceOnUse" gradientTransform="translate(34.7785 42.6052) rotate(45.5233) scale(42.4198 102.801)">
<stop offset="0.640625" stop-color="white"/>
<stop offset="0.989583" stop-color="#3CE700" stop-opacity="0"/>
</radialGradient>
<clipPath id="clip0">
<rect width="155" height="172" fill="white"/>
</clipPath>
</defs>
</svg>
