<svg xmlns="http://www.w3.org/2000/svg" width="407" height="321" fill="none"><path fill="#9191A8" fill-rule="evenodd" d="M139.37 214.02c-1.08 0-2.2-.63-3.17-1.17a6.13 6.13 0 00-1.15-.73 74.36 74.36 0 01-13.77-10.96c-.12-.11-.24-.23-.37-.36-.6-.57-1.21-1.17-1.75-1.8-.14-.14-.28-.28-.42-.43-2.29-2.38-4.62-4.81-7.43-6.55a42.79 42.79 0 00-5.1-2.63c-3.1-1.43-6.37-2.95-8.6-5.64-1.89-2.22-3.07-5.91-1.23-8.7.76-1.03 1.86-1.79 2.9-2.5.08-.05.16-.1.24-.16 1.22-.79 2.32-1.55 3.06-2.7.68-1.07.82-2.52.94-3.75.01-.1.02-.2.03-.3.66-6.48 1.21-13.11.15-19.66l-.38-1.97c-.56-2.85-1.09-5.78-.28-8.65 1.08-3.7 4.29-6.32 6.94-8.47.3-.24.6-.48.9-.72 5.18-4.17 10.51-8.47 16.6-11.46.67-.34 1.37-.66 2.03-.95.16-.07.32-.14.47-.2l.17-.09c2.44-1.13 4.99-2.3 7.05-4.13l.04-.07.66-.13-9.67-6.53c-.57-.39-1.15-.78-1.73-1.17-1.65-1.12-3.32-2.24-4.88-3.47-3.26-2.59-6.4-5.4-9.4-8.24l-1.55-1.44A388.02 388.02 0 0071.69 56.7c-5.57-3.87-12.6-8.83-13.84-16.27a14 14 0 013.04-11.3l-.06-.43.16-.1c2.4-1.7 5.64-1.37 9.75.9 5.09 2.82 9.95 6.2 14.6 9.46 1.04.7 2.09 1.42 3.14 2.15 2.34 1.61 4.73 3.25 7.2 4.76 7.19 4.47 14.95 8.28 22.48 11.97a390.27 390.27 0 0121.48 11.13c10.47 5.8 21.3 11.8 33.17 14.37 1.74.38 3.41.72 5.12.99 5.96 1.05 12.19 2.16 17 6l1.45.9c.53.3.97.54 1.46.72.04 0 .07.02.1.03.53.2 1 .38 1.52.76l71.3 45.88.37.23c10.53 6.8 21.33 13.79 30.84 22.25l.6.33c10.06 6.23 19.73 13.33 29.16 20.25.38.28.77.57 1.16.85.39.29.78.58 1.17.86 14.36 10.54 29.17 21.4 45.44 29.28.2.07.35.14.48.2.25.1.4.16.58.19.26.05.53.1 1.13.43l1.39.48v.2c.06 3.74.03 7.15-.91 10.43a64.17 64.17 0 01-3.93 9.55c-5.36 10.9-13.02 24.73-24.75 34.26-5.94 4.72-12.75 8.37-19.4 11.91-.03.02-.06.03-.1.05-.95.52-2.06 1.12-3.28 1.1-1.19.03-2.54-.52-2.72-1.79l-44.76-39.47c-7.52-6.7-16.07-14.19-26.43-17.19a67.39 67.39 0 00-6.9-1.48c-.2-.04-.39-.07-.59-.11-3.6-.7-7.3-1.4-10.6-2.97-.56-.21-1.09-.5-1.6-.79-1.2-.66-2.4-1.33-3.69-1.65-2.26-.67-4.84-.43-7.22-.2-.34.01-.68.05-1.02.08-.33.03-.67.07-1.01.07-11.4.82-22.37-3.9-32.92-8.47-11.18-4.83-22.85-9.84-34.76-8.07.43 1.04.6 2.1.6 3.16.1 4.61-3.27 9.06-5 11.04-.12.12-.24.23-.35.35-.52.53-1.06 1.07-1.76 1.32-1.9.8-3.76-.42-5.48-1.57a17.45 17.45 0 00-2.57-1.52c-.24 1.13-1.5 1.8-2.56 1.8zm17.72-11.42c-.02 4.36-3.22 8.58-4.87 10.44a6.79 6.79 0 01-1.86 1.6c-1.67.73-3.3-.36-5-1.5l-.03-.01c-1-.66-2-1.31-2.99-1.66l-.34-.1.03.32c-.04.95-1.18 1.6-2.18 1.63-1.07-.01-1.96-.5-2.9-1.12a70.65 70.65 0 01-14.61-11.53c-.35-.34-.7-.7-1.07-1.07-.35-.37-.71-.74-1.06-1.08-.14-.14-.27-.28-.4-.43-2.3-2.38-4.64-4.82-7.53-6.6l-.22-.13c-2-.81-3.72-1.57-5.33-2.37l-.04-.02c-3.17-1.46-6.27-2.9-8.4-5.54-1.83-2.18-2.83-5.67-1.2-8.08a8.71 8.71 0 012.6-2.29c.12-.09.25-.18.38-.26 1.22-.8 2.48-1.66 3.26-2.89.73-1.16.9-2.55 1.05-3.8.02-.16.03-.32.05-.47.59-6.52 1.18-13.23.12-19.77l-.38-1.97c-.04-.24-.08-.48-.13-.72-.46-2.58-.93-5.22-.16-7.75.94-3.29 3.65-5.7 6.74-8.28 5.4-4.44 11.02-8.94 17.39-12.15.82-.43 1.6-.78 2.5-1.16.1-.05.2-.1.31-.15 2.41-1.1 5-2.3 7.02-4.09l1.58-.39-10.6-7.14c-.57-.4-1.14-.79-1.73-1.18a82.53 82.53 0 01-4.88-3.47c-3.3-2.51-6.38-5.4-9.32-8.2l-1.55-1.44a386.9 386.9 0 00-39.01-31.69h-.01C66.79 52.13 60 47.28 58.7 40.12c-.67-3.89.42-7.97 3.07-11l.04-.07-.1-.35c2.17-1.44 5.29-1.08 9.1 1.04 5 2.77 9.88 6.15 14.52 9.41 3.38 2.36 6.83 4.77 10.41 6.95 7.27 4.52 15.03 8.33 22.56 12.01 4.23 2.06 8.55 4.15 12.7 6.36 2.95 1.54 5.87 3.15 8.71 4.73 10.54 5.84 21.45 11.89 33.31 14.46.84.17 1.7.33 2.57.5.86.15 1.72.31 2.56.48l.15.03c5.91 1.05 12 2.13 16.7 5.9l1.45.9c.52.28 1.05.57 1.54.75.56.21 1 .46 1.53.75l71.3 45.88.46.3c10.43 6.74 21.2 13.7 30.69 22.14l.67.37c10.17 6.3 19.94 13.49 29.39 20.44.28.2.57.42.85.63.39.28.78.56 1.17.85 14.36 10.54 29.17 21.4 45.52 29.32.6.33.86.38 1.13.43.18.04.34.1.63.23.13.05.3.12.5.2l1.05.4c.04 3.63.05 6.96-.93 10.13a62.12 62.12 0 01-3.88 9.47c-5.29 10.95-12.87 24.63-24.56 34.08-5.86 4.76-12.67 8.4-19.28 11.88-.13.06-.27.13-.4.2-.83.41-1.73.86-2.75.89-1 .03-2.08-.47-2.19-1.51l-.03-.12-44.91-39.55-.22-.18c-7.5-6.6-16.03-14.08-26.36-17.1a62.77 62.77 0 00-6.98-1.51l-.28-.06c-3.63-.67-7.43-1.38-10.72-3.01-.26-.15-.53-.27-.8-.4-.28-.13-.55-.25-.8-.4a22.18 22.18 0 00-3.76-1.69c-2.29-.63-4.61-.43-6.9-.24-.17.01-.34.03-.51.04-.35 0-.69.04-1.02.07-.34.04-.67.07-1.02.08-11 .76-21.6-3.74-31.9-8.1-.25-.12-.5-.22-.75-.33-11.35-4.92-23.1-9.97-35.31-8.05l-.43.06.15.28c.05.11.1.22.15.34-.02 0-.04 0-.06 0 .44 1.05.64 2.1.66 3.16z" clip-rule="evenodd"/><path fill="#575774" fill-rule="evenodd" d="M154.04 103.63l6.58-10.62.18-13.38-33-17.13-.46-.24.04.11-24.08-4.16-7.67-12.95-1.23 10.85-8.34-17.03L83.72 41l-6.78-1.52L60.62 28.2l23.43 35.66-19.25-13.4-5.15-18.2-.47.13 5.23 18.43L84.88 65l.1.16.05-.07 36.9 25.63.17.39.04-.08 16.55 18.45 15.35-5.85zm-24.61-29.27l-1.49-10.9L160 93.07l-6.36 10.25-14.74 5.61-16.47-18.41 7-16.15zm-26.5-15.67l-8.39-1.42-9.11 7.45 35.89 24.98-18.38-31zm24.5 4.3L129 74.22l-6.94 15.89-18.5-31.16 23.86 4.04zM83.77 41.62l-7.12-1.6-14.23-9.94L85.1 64.44l9.11-7.46-8.34-17.03-2.1 1.67zm18.84 16.6l-7.86-1.33 1.11-9.93 6.75 11.26zm57.53 34.24l.19-12.5-31.14-16.1 30.95 28.6zM148.04 141.44l-5.75 9.32-12.38 5.06-12.9-14.47 14.14 1.29 7.21-5.78-3.4-26.8.56.9c4.14 6.1 10.96 15.84 11.81 16.41l.16.08c.66.57.64 9.94.59 13.92l-.04.07zm-16.76 1.85l-.07-.04-13-1.05 11.83 13.2 11.91-4.92 5.63-9.1c.05-4.85 0-12.5-.39-13.4-.34-.1-1.32-1.13-6.34-8.3-1.21-1.78-2.45-3.57-3.47-5.03-.7-1-1.28-1.84-1.68-2.42l3.15 25-7.57 6.06z" clip-rule="evenodd"/><path fill="#4D55FF" fill-rule="evenodd" d="M117.92 141.84l-1.9 20.16-.57-.03 1.86-20.27 4.08-7.01-16.64-2.59 31.3-21.73-13.83 23.9 16.57 2.53 3.55 13.7-.47.13-3.37-13.3-16.46-2.58-4.13 7.1zm-11.93-10.03l15.65 2.43 12.77-22.15-28.42 19.72z" clip-rule="evenodd"/><path fill="#4D55FF" d="M131.47 162.16l-1.8-6.96 11.83 4.21-.13.41-11.05-3.87 1.62 6.08-.47.13zM171.05 163.38l-.06-.23-.23-.12c.3-.72 1.99-16.98 3.02-27.84l.04-.07 12.65-20.35 28.75-12.2.2.5-28.59 12.1-12.56 20.2c-2.83 27.84-3.06 27.9-3.22 28.01z"/><path fill="#4D55FF" d="M115.03 194.47l.1-.53 22.84 5.33 17.83-.27-5.18-7.76.1-12.85.15-.1 14.94-13.22-7.17-6.61-1.17-9.35-9.82-7.5.32-.4 9.97 7.58 1.2 9.46 7.44 6.85-15.3 13.5-.15 12.43 5.57 8.47-18.83.3-22.84-5.33z"/><path fill="#4D55FF" d="M120.03 190.2l.17-.48 12.48 4.28 18.15-3.13 33.58-1.71 45.47 14.94 37.98 23.3 18.2-4.27 22.73-26.2-7.13-35.6.54-.1 7.2 35.85-.16.1-22.93 26.38-18.55 4.38-38.13-23.4-45.31-14.85-33.47 1.68-18.15 3.13-.08-.04-12.6-4.25z"/><path fill="#4D55FF" d="M137.8 199.76l-5.33-5.39-.03-.11.2-18.85 10.66-13.44.33.28-10.5 13.33-.15 18.58 5.14 5.2-.33.4z"/><path fill="#4D55FF" d="M119.1 173.38l.1-.53 13.75 2.34 18.6 2.59 32.15-4.26L199 156.5l.33.28-15.42 17.25-.12.03-32.23 4.22-18.71-2.56-13.75-2.34z"/><path fill="#4D55FF" d="M108.58 190.41l-.02-.5 11.33-.17-1.02-16.49-16.42-3.34 13.24-8.2.08.05 29.64.11 20.72 2.99 12.15-5 20.88-3.47.07.04 16.24 4.21.03.12 14.48 43.5 4.09 11.84-37.6-6.38-.03-.12-12.38-20.15.04-.07-.56-15.56.5-.02.56 15.56 12.16 19.83 36.5 6.26-3.74-11.06-14.45-43.38-15.9-4.12-20.76 3.44-12.19 5.07-20.8-3.03-29.6-.19-12.06 7.48 15.59 3.27 1.06 17.3-11.83.18z"/><path fill="#4D55FF" d="M215.49 160.95l-.45-.25 13.19-21.32.11-.03 33.15-6.74.1.54-33 6.63-13.1 21.17zM233.85 215.97l-.37-.4 27.2-20.87 18.16-29.22-2.85-23.07.47-.14 2.9 23.3-18.3 29.53-27.21 20.87z"/><path fill="#4D55FF" fill-rule="evenodd" d="M151.07 157.48l-9.51 2.35-3.44 2.5-.29-.36 3.43-2.5 9.4-2.31 6.74-8.28 16.15-13.62-20.44-32.24 33.47 11.71 41.84 24.66 50.69 25.95 29.95 31.45 63.86 12.44 5.3 24.63.15.08-.08.15.03.12-.2-.01-24.63 34.22-.12.03-32.42 5.09-.07-.23-6-29.9-47.23-15.44.17-.5 47.09 15.36-6.05-45.66-29.96-31.46-50.61-25.9-41.84-24.66-32.07-11.23 19.93 31.37-16.46 13.84-6.78 8.35zm202.32 110.59l24.23-33.66-62.09 9.06 5.98 29.6 31.88-5zm24.02-34.17l-61.93 8.96-6.06-45.48 68 36.52zm-66.74-36.31l67.1 36.02-5.1-23.94-62-12.08z" clip-rule="evenodd"/><g opacity=".44"><path fill="url(#paint0_linear)" d="M382.14 225.38a58.13 58.13 0 01-3.89 9.47l-5.34-24.55c2.17 1.2 4.38 2.32 6.7 3.42 1.16.54 1.02.27 2.26.86l1.17.35c.08 3.57.08 7.08-.9 10.45z"/><path fill="url(#paint1_linear)" d="M321.35 274.05l32.2-5.02c-5.87 4.77-12.64 8.34-19.34 11.96a7.36 7.36 0 01-3.26 1.12c-1.19.03-2.35-.52-2.5-1.67-2.38-2.2-4.74-4.3-7.1-6.39z"/><path fill="url(#paint2_linear)" d="M372.83 210.25L309.1 197.8l-7.17-35.73.68.38c24.15 14.95 45.4 34.25 70.22 47.81z"/><path fill="url(#paint3_linear)" d="M315.29 243.92l5.98 30.1c-12.53-11.06-25.14-22.16-37.68-33.2-4.98-4.43-10.14-8.86-15.73-12.34l47.43 15.44z"/><path fill="url(#paint4_linear)" d="M240.3 211.54l27.63 16.98a45.83 45.83 0 00-10.77-4.9c-5.97-1.75-12.43-1.9-18.09-4.56-1.76-.87-3.44-1.9-5.36-2.48l6.6-5.04z"/><path fill="url(#paint5_linear)" d="M196.68 210.22l34.7 5.96c-2.32-.22-4.7.22-7.05.38-9.5.6-18.63-2.51-27.65-6.34z"/><path fill="url(#paint6_linear)" d="M184.4 190.23l12.24 20.07c-13.35-5.54-26.37-12.37-40.27-10.2l-.12.03-5.35-8.15 33.5-1.75z"/><path fill="url(#paint7_linear)" d="M156.3 200.05l-18.34.3-5.17-5.31 18.15-3.13 5.35 8.14z"/><path fill="url(#paint8_linear)" d="M174.09 136.05s-2.79 27.76-3.06 27.9l-4.8 1.94-7.28-6.77-1.17-9.35 16.3-13.72z"/><path fill="url(#paint9_linear)" d="M166.24 165.9l-20.72-3h-1.95l-5.43-.08 3.4-2.41 9.39-2.32 6.85-8.32 1.17 9.35 7.29 6.77z"/><path fill="url(#paint10_linear)" d="M137.96 200.34l-22.84-5.33-.08.15c-1.08-.89-2.07-1.73-3.23-2.47-1-.65-2.05-1.23-3.14-1.74l11.57-.23 12.55 4.32 5.17 5.3z"/><path fill="url(#paint11_linear)" d="M157.78 149.77l-6.85 8.32-9.4 2.32-11.46-4.01 12.08-5.03 5.74-9.13 9.9 7.53z"/><path fill="url(#paint12_linear)" d="M131.79 162.82l-15.99-.07 1.9-20.15 12.37 13.8 1.72 6.42z"/><path fill="url(#paint13_linear)" d="M138.66 137.9l-7.36 5.89-13.6-1.2 4.17-7.35 16.8 2.67z"/><path fill="url(#paint14_linear)" d="M160.57 80.58l-.18 13.19-32.68-30.24.37.21 1.91.96.53.3c.22.12.37.2.6.32 9.76 5.12 19.26 11.08 29.45 15.26z"/><path fill="url(#paint15_linear)" d="M85.05 65.58l37.12 25.76 16.65 18.6c-3.42-2.28-6.77-4.52-10.2-6.81-2.19-1.51-4.5-2.99-6.6-4.64-3.86-2.92-7.35-6.32-11-9.61A373.56 373.56 0 0072.06 57.3c-2.53-1.79-5.2-3.66-7.52-5.82l20.52 14.1z"/><path fill="url(#paint16_linear)" d="M59.46 33.13l5.19 18.31c-3.1-2.88-5.55-6.2-6.22-10.28a12.95 12.95 0 011.03-8.03z"/></g><path fill="#6A6A86" d="M74.45 139.34l-3.56 5.36 11.23.56 4.1-3.7-11.77-2.22z" opacity=".4"/><path fill="#6A6A86" d="M82.05 124.4l-6.1 2.2 8.69 7.06 5.41-.42-8-8.84z"/><path fill="#6A6A86" d="M89.78 115.2l-3.92 1.45 5.69 4.72 3.5-.31-5.27-5.85z" opacity=".2"/><path fill="#6A6A86" d="M58.83 128.05l-1.66 3.86 7.24-1.06 2.22-2.78-7.8-.02zM124.26 32.21c2.56 1.03 5.11 2.05 7.68 2.89a110.33 110.33 0 01-11.02-8.85 113.33 113.33 0 01-6.53-3.9c3.1 3.38 6.33 6.73 9.87 9.86z" opacity=".4"/><path fill="#6A6A86" d="M105.53 23.69c2.4 2.01 4.92 4 7.48 5.9-1.05-2.34-2.1-4.68-3.07-6.98-1.8-1.68-3.6-3.36-5.37-5.12.34 2.04.63 4.16.96 6.2z"/><path fill="#6A6A86" d="M91.54 14.56l4.6 4.02L94.4 14l-3.33-3.5.48 4.07z" opacity=".2"/><path fill="#6A6A86" d="M132.75 43.86c1.63.41 3.34.67 5.01 1.01-3.22-1.59-6.29-3.29-9.27-5.13a87.69 87.69 0 01-4.62-1.88c2.85 2.07 5.79 4.18 8.88 6z" opacity=".4"/><defs><linearGradient id="paint8_linear" x1="175.236" x2="158.806" y1="158.869" y2="156.213" gradientUnits="userSpaceOnUse"><stop stop-color="#6000FF" stop-opacity=".15"/><stop offset=".344" stop-color="#4200C0"/><stop offset="1" stop-color="#FF5E00"/></linearGradient><linearGradient id="paint0_linear" x1="382.567" x2="368.321" y1="229.316" y2="228.6" gradientUnits="userSpaceOnUse"><stop stop-color="#6000FF" stop-opacity=".15"/><stop offset=".344" stop-color="#4200C0"/><stop offset="1" stop-color="#FF5E00"/></linearGradient><linearGradient id="paint2_linear" x1="372.777" x2="338.959" y1="221.933" y2="242.96" gradientUnits="userSpaceOnUse"><stop stop-color="#6000FF" stop-opacity=".15"/><stop offset=".344" stop-color="#4200C0"/><stop offset="1" stop-color="#FF5E00"/></linearGradient><linearGradient id="paint3_linear" x1="329.216" x2="300.684" y1="269.01" y2="285.99" gradientUnits="userSpaceOnUse"><stop stop-color="#6000FF" stop-opacity=".15"/><stop offset=".344" stop-color="#4200C0"/><stop offset="1" stop-color="#FF5E00"/></linearGradient><linearGradient id="paint4_linear" x1="268.297" x2="259.441" y1="232.7" y2="240.388" gradientUnits="userSpaceOnUse"><stop stop-color="#6000FF" stop-opacity=".15"/><stop offset=".344" stop-color="#4200C0"/><stop offset="1" stop-color="#FF5E00"/></linearGradient><linearGradient id="paint5_linear" x1="229.645" x2="215.483" y1="223.829" y2="232.033" gradientUnits="userSpaceOnUse"><stop stop-color="#6000FF" stop-opacity=".15"/><stop offset=".344" stop-color="#4200C0"/><stop offset="1" stop-color="#FF5E00"/></linearGradient><linearGradient id="paint6_linear" x1="198.066" x2="171.513" y1="214.347" y2="225.613" gradientUnits="userSpaceOnUse"><stop stop-color="#6000FF" stop-opacity=".15"/><stop offset=".344" stop-color="#4200C0"/><stop offset="1" stop-color="#FF5E00"/></linearGradient><linearGradient id="paint7_linear" x1="155.511" x2="140.36" y1="204.582" y2="208.774" gradientUnits="userSpaceOnUse"><stop stop-color="#6000FF" stop-opacity=".15"/><stop offset=".344" stop-color="#4200C0"/><stop offset="1" stop-color="#FF5E00"/></linearGradient><linearGradient id="paint1_linear" x1="347.836" x2="327.298" y1="282.813" y2="284.366" gradientUnits="userSpaceOnUse"><stop stop-color="#6000FF" stop-opacity=".15"/><stop offset=".344" stop-color="#4200C0"/><stop offset="1" stop-color="#FF5E00"/></linearGradient><linearGradient id="paint9_linear" x1="166" x2="145.947" y1="169.86" y2="172.326" gradientUnits="userSpaceOnUse"><stop stop-color="#6000FF" stop-opacity=".15"/><stop offset=".344" stop-color="#4200C0"/><stop offset="1" stop-color="#FF5E00"/></linearGradient><linearGradient id="paint10_linear" x1="137.987" x2="127.441" y1="204.382" y2="211.676" gradientUnits="userSpaceOnUse"><stop stop-color="#6000FF" stop-opacity=".15"/><stop offset=".344" stop-color="#4200C0"/><stop offset="1" stop-color="#FF5E00"/></linearGradient><linearGradient id="paint11_linear" x1="153.248" x2="135.855" y1="160.803" y2="161.191" gradientUnits="userSpaceOnUse"><stop stop-color="#6000FF" stop-opacity=".15"/><stop offset=".344" stop-color="#4200C0"/><stop offset="1" stop-color="#FF5E00"/></linearGradient><linearGradient id="paint12_linear" x1="132.49" x2="115.18" y1="164.558" y2="166.337" gradientUnits="userSpaceOnUse"><stop stop-color="#6000FF" stop-opacity=".15"/><stop offset=".344" stop-color="#4200C0"/><stop offset="1" stop-color="#FF5E00"/></linearGradient><linearGradient id="paint13_linear" x1="135.098" x2="122.268" y1="146.516" y2="147.484" gradientUnits="userSpaceOnUse"><stop stop-color="#6000FF" stop-opacity=".15"/><stop offset=".344" stop-color="#4200C0"/><stop offset="1" stop-color="#FF5E00"/></linearGradient><linearGradient id="paint14_linear" x1="164.859" x2="150.89" y1="91.575" y2="101.828" gradientUnits="userSpaceOnUse"><stop stop-color="#6000FF" stop-opacity=".15"/><stop offset=".344" stop-color="#4200C0"/><stop offset="1" stop-color="#FF5E00"/></linearGradient><linearGradient id="paint15_linear" x1="146.76" x2="129.988" y1="108.276" y2="125.334" gradientUnits="userSpaceOnUse"><stop stop-color="#6000FF" stop-opacity=".15"/><stop offset=".344" stop-color="#4200C0"/><stop offset="1" stop-color="#FF5E00"/></linearGradient><linearGradient id="paint16_linear" x1="67.718" x2="56.599" y1="47.722" y2="47.939" gradientUnits="userSpaceOnUse"><stop stop-color="#6000FF" stop-opacity=".15"/><stop offset=".344" stop-color="#4200C0"/><stop offset="1" stop-color="#FF5E00"/></linearGradient></defs></svg>