<svg xmlns="http://www.w3.org/2000/svg" width="160" height="73" fill="none"><path stroke="#929292" d="M10.73 27.62l61.63-9.28-17.22 53-44.4-43.72z" clip-rule="evenodd"/><path stroke="#929292" d="M24.3 53.27l-.16.98.89-.46L67.04 32l.72-.37-.65-.48L32.85 6.26l-.65-.47-.14.8-7.76 46.68z"/><path stroke="#929292" d="M45.52 48.37l.88.47-.16-1-5.3-31.9-.14-.8-.65.48-23.42 17-.65.48.72.37 28.72 14.9z"/><path stroke="#929292" d="M44.98 34.18l.72-.7-1-.15-17.18-2.58-.8-.13.25.77 4.8 14.78.26.77.57-.57 12.38-12.19z"/><path fill="#929292" fill-rule="evenodd" d="M137.08 23.4v-1.93h-1.95v1.93h1.95zM89.75 35.2c.65 0 1.2-.23 1.67-.68.46-.45.69-1 .69-1.64v-4.72h-5.03v1.94h3.06v2.52c0 .26-.04.43-.12.52-.09.1-.27.14-.54.14h-7.74c-.26 0-.44-.05-.53-.14-.1-.09-.14-.26-.14-.52v-7.67c0-.26.05-.44.14-.53.09-.08.27-.13.53-.13h7.74c.27 0 .45.05.54.13.08.1.12.27.12.53v.5h1.97v-.77a2.2 2.2 0 00-.7-1.64 2.3 2.3 0 00-1.66-.67h-8.28c-.65 0-1.2.22-1.66.67-.46.45-.68 1-.68 1.64v8.2c0 .64.22 1.2.68 1.64.46.45 1.01.68 1.66.68h8.28zm7.55 0v-7.75c0-.27.04-.44.13-.53.1-.09.27-.13.53-.13h5.58v-1.93h-5.85c-.65 0-1.2.23-1.66.68-.45.45-.68 1-.68 1.64v8.02h1.95zm19.47-8.02v8.02h-8.3c-.64 0-1.2-.23-1.66-.68-.45-.45-.68-1-.68-1.64v-3.81h8.67v-1.62c0-.27-.04-.44-.12-.53-.09-.09-.26-.13-.53-.13h-8.02v-1.93h8.3c.64 0 1.2.23 1.65.68.46.45.69 1 .69 1.64zm-1.97 6.1h-6.06c-.26 0-.44-.05-.53-.14-.09-.09-.13-.26-.13-.52v-1.75h6.72v2.4zm17.62-8.42l-5.77 10.34h-1.95l-5.77-10.34h2.25l4.5 8.17 4.48-8.17h2.26zm4.66 0V35.2h-1.95V24.86h1.95zm9.65 10.34v-1.92h-3.62c-.27 0-.44-.05-.53-.14-.1-.09-.14-.26-.14-.52v-5.83h4.3v-1.93h-4.3V21.6h-1.94v11.28c0 .64.22 1.2.68 1.64.46.45 1.01.68 1.66.68h3.9zm12.59 3.28c-.46.45-1.01.68-1.66.68h-6.46V37.2h6.19c.26 0 .44-.04.53-.13.09-.09.13-.26.13-.52V35.2h-6.34c-.65 0-1.2-.23-1.66-.68-.46-.45-.69-1-.69-1.64V24.9h1.95v7.72c0 .26.04.43.13.52.1.1.27.14.53.14h5.41c.27 0 .45-.05.54-.14.09-.09.13-.26.13-.52V24.9H160v11.94c0 .64-.23 1.19-.69 1.64zM81.08 57.3v-5.43h9.38v5.43h1.96V44.47h-1.96v5.44h-9.38v-5.44h-1.95V57.3h1.95zm24.61-.67c-.46.45-1 .67-1.66.67H98.1c-.65 0-1.2-.22-1.66-.67-.46-.45-.68-1-.68-1.64v-8.02h1.94v7.75c0 .26.05.44.14.53.09.09.27.13.53.13h5.41c.27 0 .44-.04.53-.13.1-.1.14-.27.14-.53v-7.75h1.95v8.02c0 .64-.23 1.19-.69 1.64zm11.88.67c.65 0 1.2-.22 1.66-.67.45-.45.68-1 .68-1.64v-5.7c0-.65-.23-1.2-.68-1.65-.46-.45-1.01-.67-1.66-.67h-6.35v-3.4h-1.95V57.3h8.3zm-5.68-1.92h5.4c.27 0 .45-.04.54-.13.09-.1.13-.27.13-.53v-5.17c0-.26-.04-.44-.13-.53-.09-.08-.27-.13-.53-.13h-5.41c-.27 0-.44.05-.53.13-.1.1-.14.27-.14.53v5.17c0 .26.05.44.14.53.09.09.26.13.53.13z" clip-rule="evenodd"/></svg>