<svg xmlns="http://www.w3.org/2000/svg" width="295" height="296" fill="none"><g opacity=".668"><path stroke="url(#a)" d="M3.02 147.97L147.47 1.45l144.46 146.52L147.47 294.5 3.02 147.96z" opacity=".893"/><path stroke="url(#b)" d="M3.5 148.54s17.4-19.44 56.48-28.84c39.08-9.4 68.5 9.4 94.66 28.84 26.16 19.44 46 29.37 76.87 27.6 30.9-1.74 48.72-14.52 59.95-28.22" opacity=".807"/><path fill="url(#c)" fill-rule="evenodd" d="M143.92 107.15c3.38 0 6.12-2.8 6.12-6.23 0-3.43-2.74-6.22-6.12-6.22-3.4 0-6.13 2.8-6.13 6.22 0 3.44 2.73 6.23 6.12 6.23z" opacity=".55" clip-rule="evenodd"/><path stroke="url(#d)" d="M143.92 97.48l-11.65-26.6"/><path stroke="url(#e)" d="M143.92 97.48V67.85"/><path stroke="url(#f)" d="M143.92 97.48l11.58-26.6"/><path fill="url(#g)" d="M129.63 66.5h5.7v5.8h-5.7z" opacity=".659"/><path fill="url(#h)" d="M152.5 66.5h5.7v5.8h-5.7z" opacity=".659"/><path fill="url(#i)" d="M141.06 62.34h5.72v5.8h-5.72z" opacity=".659"/><path fill="url(#j)" fill-rule="evenodd" d="M143.92 186.22c3.38 0 6.12 2.78 6.12 6.22s-2.74 6.22-6.12 6.22c-3.4 0-6.13-2.78-6.13-6.22s2.73-6.22 6.12-6.22z" opacity=".55" clip-rule="evenodd"/><path fill="url(#k)" fill-rule="evenodd" d="M170.35 119.97c2.2 2.84 6.22 3.35 9 1.15 2.8-2.2 3.27-6.3 1.1-9.14-2.2-2.84-6.23-3.35-9-1.14-2.8 2.2-3.28 6.3-1.1 9.13z" opacity=".55" clip-rule="evenodd"/><path stroke="url(#l)" d="M178.2 113.76l14-26.85"/><path stroke="url(#m)" d="M178.2 113.76l23.98-19"/><path stroke="url(#n)" d="M178.2 113.76l29.03-7.35"/><path fill="url(#o)" fill-rule="evenodd" d="M194.05 81.88l3.7 4.8-4.7 3.73-3.7-4.8 4.7-3.72z" opacity=".659" clip-rule="evenodd"/><path fill="url(#p)" fill-rule="evenodd" d="M204.8 88.8l3.7 4.8-4.7 3.74-3.7-4.8 4.7-3.73z" opacity=".659" clip-rule="evenodd"/><path fill="url(#q)" fill-rule="evenodd" d="M118.34 119.1c-2.2 2.84-6.22 3.36-9 1.15-2.8-2.2-3.27-6.3-1.1-9.13 2.2-2.84 6.23-3.36 9.02-1.15 2.78 2.2 3.26 6.3 1.08 9.13z" opacity=".55" clip-rule="evenodd"/><path stroke="url(#r)" d="M110.5 112.9L96.48 86.04"/><path stroke="url(#s)" d="M110.5 112.9l-24-19.02"/><path stroke="url(#t)" d="M110.5 112.9l-29.04-7.36"/><path fill="url(#u)" fill-rule="evenodd" d="M94.64 81.02l-3.7 4.8 4.7 3.72 3.7-4.8-4.7-3.72z" opacity=".659" clip-rule="evenodd"/><path fill="url(#v)" fill-rule="evenodd" d="M79.86 100.2l-3.7 4.8 4.7 3.73 3.7-4.8-4.7-3.73z" opacity=".659" clip-rule="evenodd"/><path fill="url(#w)" fill-rule="evenodd" d="M83.9 87.95l-3.7 4.8 4.7 3.72 3.7-4.8-4.7-3.72z" opacity=".659" clip-rule="evenodd"/><path fill="url(#x)" fill-rule="evenodd" d="M170.35 174.26c2.2-2.84 6.22-3.35 9-1.15 2.8 2.22 3.27 6.3 1.1 9.15-2.2 2.84-6.23 3.35-9 1.14-2.8-2.2-3.28-6.3-1.1-9.14z" opacity=".55" clip-rule="evenodd"/><path stroke="url(#y)" d="M178.2 180.47l14 26.85"/><path stroke="url(#z)" d="M178.2 180.47l23.98 19"/><path stroke="url(#A)" d="M178.2 180.47l29.03 7.35"/><path fill="url(#B)" fill-rule="evenodd" d="M118.34 173.4c-2.2-2.85-6.22-3.36-9-1.16-2.8 2.2-3.27 6.3-1.1 9.14 2.2 2.84 6.23 3.35 9.02 1.14 2.78-2.2 3.26-6.3 1.08-9.13z" opacity=".55" clip-rule="evenodd"/><path stroke="url(#C)" d="M110.5 179.6l-14.02 26.85"/><path stroke="url(#D)" d="M110.5 179.6l-24 19"/><path stroke="url(#E)" d="M110.5 179.6l-29.04 7.36"/><path fill="url(#F)" fill-rule="evenodd" d="M79.86 192.3l-3.7-4.8 4.7-3.74 3.7 4.8-4.7 3.73z" opacity=".659" clip-rule="evenodd"/><path fill="url(#G)" fill-rule="evenodd" d="M184.2 148c0 3.43 2.74 6.2 6.13 6.2 3.4 0 6.13-2.77 6.13-6.2s-2.74-6.2-6.13-6.2c-3.4 0-6.14 2.77-6.14 6.2z" opacity=".55" clip-rule="evenodd"/><path stroke="url(#H)" d="M193.73 148l26.24-11.8"/><path stroke="url(#I)" d="M193.73 148h29.2"/><path stroke="url(#J)" d="M193.73 148l26.24 11.75"/><path fill="url(#K)" fill-rule="evenodd" d="M103.64 148c0 3.43-2.75 6.2-6.14 6.2-3.4 0-6.13-2.77-6.13-6.2s2.74-6.2 6.13-6.2c3.4 0 6.14 2.77 6.14 6.2z" opacity=".546" clip-rule="evenodd"/><path stroke="url(#L)" d="M94.1 148l-26.23-11.8"/><path stroke="url(#M)" d="M94.1 148H64.9"/><path stroke="url(#N)" d="M94.1 148l-26.23 11.75"/><path fill="url(#O)" fill-rule="evenodd" d="M63.55 133.5v5.8h5.73v-5.8h-5.73z" opacity=".659" clip-rule="evenodd"/><path fill="url(#P)" fill-rule="evenodd" d="M63.55 156.7v5.8h5.73v-5.8h-5.73z" opacity=".659" clip-rule="evenodd"/><path fill="url(#Q)" fill-rule="evenodd" d="M59.46 145.1v5.8h5.73v-5.8h-5.74z" opacity=".659" clip-rule="evenodd"/><path stroke="url(#R)" d="M188.02 146.87c0 24.95-19.85 45.15-44.3 45.15-24.47 0-44.32-20.2-44.32-45.15 0-24.94 19.84-45.15 44.3-45.15 24.47 0 44.32 20.2 44.32 45.15z" opacity=".55"/><path stroke="url(#S)" d="M143.55 196.85l-11.62 26.6"/><path stroke="url(#T)" d="M143.55 196.85v29.6"/><path stroke="url(#U)" d="M143.55 196.85l11.56 26.6"/><path fill="url(#V)" d="M0 0h5.7v5.8H0z" opacity=".659" transform="matrix(1 0 0 -1 129.292 227.816)"/><path fill="url(#W)" d="M0 0h5.7v5.8H0z" opacity=".659" transform="matrix(1 0 0 -1 152.102 227.816)"/><path fill="url(#X)" d="M0 0h5.7v5.8H0z" opacity=".659" transform="matrix(1 0 0 -1 140.697 231.962)"/><path fill="url(#Y)" d="M208.32 102.14h5.98v6.05h-5.98z" opacity=".659" transform="rotate(52 208.318 102.137)"/><path fill="url(#Z)" d="M0 0h6v6.05H0z" opacity=".659" transform="matrix(.616 -.788 -.788 -.616 193.551 213.105)"/><path fill="url(#aa)" d="M0 0h6v6.05H0z" opacity=".659" transform="matrix(.616 -.788 -.788 -.616 208.293 194.236)"/><path fill="url(#ab)" d="M0 0h6v6.05H0z" opacity=".659" transform="matrix(.616 -.788 -.788 -.616 204.328 206.332)"/><path fill="url(#ac)" d="M94.4 212.32h6v6.05h-6z" opacity=".659" transform="rotate(-128 94.401 212.316)"/><path fill="url(#ad)" d="M83.62 205.54h6v6.05h-6z" opacity=".659" transform="rotate(-128 83.624 205.542)"/><path fill="url(#ae)" d="M223.7 134.74h5.7v5.8h-5.7z" opacity=".659" transform="rotate(90 223.703 134.74)"/><path fill="url(#af)" d="M223.7 157.55h5.7v5.8h-5.7z" opacity=".659" transform="rotate(90 223.703 157.549)"/><path fill="url(#ag)" d="M227.85 146.15h5.7v5.8h-5.7z" opacity=".659" transform="rotate(90 227.849 146.145)"/><path fill="#202020" fill-opacity=".3" stroke="url(#ah)" d="M112.5 147.34l31.78-31.58 31.8 31.58-31.8 31.58-31.78-31.58z"/><path fill="#FF8E1E" fill-rule="evenodd" d="M143.7 131.2l16.26 16.14-16.25 16.15-16.24-16.16 16.25-16.14z" clip-rule="evenodd"/></g><defs><linearGradient id="a" x1="268.444" x2="109.016" y1="76.104" y2="50.781" gradientUnits="userSpaceOnUse"><stop stop-color="#0533F5"/><stop offset=".49" stop-color="#F39949"/><stop offset="1" stop-color="#E4EBF2"/></linearGradient><linearGradient id="b" x1="195.485" x2="175.032" y1="108.043" y2="180.319" gradientUnits="userSpaceOnUse"><stop stop-color="#0533F5"/><stop offset=".49" stop-color="#F39949"/><stop offset="1" stop-color="#E4EBF2"/></linearGradient><linearGradient id="c" x1="145.959" x2="138.189" y1="92.773" y2="98.324" gradientUnits="userSpaceOnUse"><stop stop-color="#0533F5"/><stop offset=".49" stop-color="#F39949"/><stop offset="1" stop-color="#E4EBF2"/></linearGradient><linearGradient id="d" x1="140.034" x2="129.898" y1="66.744" y2="69.964" gradientUnits="userSpaceOnUse"><stop stop-color="#0533F5"/><stop offset=".49" stop-color="#F39949"/><stop offset="1" stop-color="#E4EBF2"/></linearGradient><linearGradient id="e" x1="144.053" x2="143.271" y1="63.262" y2="63.278" gradientUnits="userSpaceOnUse"><stop stop-color="#0533F5"/><stop offset=".49" stop-color="#F39949"/><stop offset="1" stop-color="#E4EBF2"/></linearGradient><linearGradient id="f" x1="151.642" x2="141.55" y1="66.744" y2="69.933" gradientUnits="userSpaceOnUse"><stop stop-color="#0533F5"/><stop offset=".49" stop-color="#F39949"/><stop offset="1" stop-color="#E4EBF2"/></linearGradient><linearGradient id="g" x1="133.436" x2="129.81" y1="65.59" y2="68.181" gradientUnits="userSpaceOnUse"><stop stop-color="#F39949"/><stop offset="1" stop-color="#E4EBF2"/></linearGradient><linearGradient id="h" x1="156.303" x2="152.678" y1="65.59" y2="68.181" gradientUnits="userSpaceOnUse"><stop stop-color="#F39949"/><stop offset="1" stop-color="#E4EBF2"/></linearGradient><linearGradient id="i" x1="144.87" x2="141.244" y1="61.441" y2="64.032" gradientUnits="userSpaceOnUse"><stop stop-color="#F39949"/><stop offset="1" stop-color="#E4EBF2"/></linearGradient><linearGradient id="j" x1="145.959" x2="138.189" y1="200.591" y2="195.04" gradientUnits="userSpaceOnUse"><stop stop-color="#0533F5"/><stop offset=".49" stop-color="#F39949"/><stop offset="1" stop-color="#E4EBF2"/></linearGradient><linearGradient id="k" x1="183.365" x2="173.714" y1="112.496" y2="109.767" gradientUnits="userSpaceOnUse"><stop stop-color="#0533F5"/><stop offset=".49" stop-color="#F39949"/><stop offset="1" stop-color="#E4EBF2"/></linearGradient><linearGradient id="l" x1="200.721" x2="191.245" y1="90.86" y2="84.527" gradientUnits="userSpaceOnUse"><stop stop-color="#0533F5"/><stop offset=".49" stop-color="#F39949"/><stop offset="1" stop-color="#E4EBF2"/></linearGradient><linearGradient id="m" x1="206.087" x2="205.48" y1="92.044" y2="91.303" gradientUnits="userSpaceOnUse"><stop stop-color="#0533F5"/><stop offset=".49" stop-color="#F39949"/><stop offset="1" stop-color="#E4EBF2"/></linearGradient><linearGradient id="n" x1="208.098" x2="198.986" y1="100.619" y2="94.412" gradientUnits="userSpaceOnUse"><stop stop-color="#0533F5"/><stop offset=".49" stop-color="#F39949"/><stop offset="1" stop-color="#E4EBF2"/></linearGradient><linearGradient id="o" x1="197.288" x2="192.754" y1="84.509" y2="83.227" gradientUnits="userSpaceOnUse"><stop stop-color="#F39949"/><stop offset="1" stop-color="#E4EBF2"/></linearGradient><linearGradient id="p" x1="208.038" x2="203.504" y1="91.44" y2="90.158" gradientUnits="userSpaceOnUse"><stop stop-color="#F39949"/><stop offset="1" stop-color="#E4EBF2"/></linearGradient><linearGradient id="q" x1="105.326" x2="114.977" y1="111.629" y2="108.9" gradientUnits="userSpaceOnUse"><stop stop-color="#0533F5"/><stop offset=".49" stop-color="#F39949"/><stop offset="1" stop-color="#E4EBF2"/></linearGradient><linearGradient id="r" x1="87.969" x2="97.445" y1="89.993" y2="83.66" gradientUnits="userSpaceOnUse"><stop stop-color="#0533F5"/><stop offset=".49" stop-color="#F39949"/><stop offset="1" stop-color="#E4EBF2"/></linearGradient><linearGradient id="s" x1="82.603" x2="83.211" y1="91.177" y2="90.436" gradientUnits="userSpaceOnUse"><stop stop-color="#0533F5"/><stop offset=".49" stop-color="#F39949"/><stop offset="1" stop-color="#E4EBF2"/></linearGradient><linearGradient id="t" x1="91.139" x2="94.16" y1="104.399" y2="113.056" gradientUnits="userSpaceOnUse"><stop stop-color="#0533F5"/><stop offset=".49" stop-color="#F39949"/><stop offset="1" stop-color="#E4EBF2"/></linearGradient><linearGradient id="u" x1="91.402" x2="95.937" y1="83.642" y2="82.36" gradientUnits="userSpaceOnUse"><stop stop-color="#F39949"/><stop offset="1" stop-color="#E4EBF2"/></linearGradient><linearGradient id="v" x1="76.622" x2="81.157" y1="102.83" y2="101.548" gradientUnits="userSpaceOnUse"><stop stop-color="#F39949"/><stop offset="1" stop-color="#E4EBF2"/></linearGradient><linearGradient id="w" x1="80.652" x2="85.186" y1="90.573" y2="89.291" gradientUnits="userSpaceOnUse"><stop stop-color="#F39949"/><stop offset="1" stop-color="#E4EBF2"/></linearGradient><linearGradient id="x" x1="183.365" x2="173.714" y1="181.734" y2="184.462" gradientUnits="userSpaceOnUse"><stop stop-color="#0533F5"/><stop offset=".49" stop-color="#F39949"/><stop offset="1" stop-color="#E4EBF2"/></linearGradient><linearGradient id="y" x1="200.721" x2="191.245" y1="203.369" y2="209.702" gradientUnits="userSpaceOnUse"><stop stop-color="#0533F5"/><stop offset=".49" stop-color="#F39949"/><stop offset="1" stop-color="#E4EBF2"/></linearGradient><linearGradient id="z" x1="206.087" x2="205.48" y1="202.186" y2="202.926" gradientUnits="userSpaceOnUse"><stop stop-color="#0533F5"/><stop offset=".49" stop-color="#F39949"/><stop offset="1" stop-color="#E4EBF2"/></linearGradient><linearGradient id="A" x1="208.098" x2="198.986" y1="193.611" y2="199.817" gradientUnits="userSpaceOnUse"><stop stop-color="#0533F5"/><stop offset=".49" stop-color="#F39949"/><stop offset="1" stop-color="#E4EBF2"/></linearGradient><linearGradient id="B" x1="105.326" x2="114.977" y1="180.865" y2="183.594" gradientUnits="userSpaceOnUse"><stop stop-color="#0533F5"/><stop offset=".49" stop-color="#F39949"/><stop offset="1" stop-color="#E4EBF2"/></linearGradient><linearGradient id="C" x1="101.152" x2="112.9" y1="210.611" y2="206.158" gradientUnits="userSpaceOnUse"><stop stop-color="#0533F5"/><stop offset=".49" stop-color="#F39949"/><stop offset="1" stop-color="#E4EBF2"/></linearGradient><linearGradient id="D" x1="94.504" x2="107.004" y1="201.557" y2="190.107" gradientUnits="userSpaceOnUse"><stop stop-color="#0533F5"/><stop offset=".49" stop-color="#F39949"/><stop offset="1" stop-color="#E4EBF2"/></linearGradient><linearGradient id="E" x1="91.139" x2="94.16" y1="188.094" y2="179.438" gradientUnits="userSpaceOnUse"><stop stop-color="#0533F5"/><stop offset=".49" stop-color="#F39949"/><stop offset="1" stop-color="#E4EBF2"/></linearGradient><linearGradient id="F" x1="76.622" x2="81.157" y1="189.663" y2="190.946" gradientUnits="userSpaceOnUse"><stop stop-color="#F39949"/><stop offset="1" stop-color="#E4EBF2"/></linearGradient><linearGradient id="G" x1="198.366" x2="192.686" y1="150.072" y2="142.343" gradientUnits="userSpaceOnUse"><stop stop-color="#0533F5"/><stop offset=".49" stop-color="#F39949"/><stop offset="1" stop-color="#E4EBF2"/></linearGradient><linearGradient id="H" x1="224.029" x2="220.687" y1="144.062" y2="133.836" gradientUnits="userSpaceOnUse"><stop stop-color="#0533F5"/><stop offset=".49" stop-color="#F39949"/><stop offset="1" stop-color="#E4EBF2"/></linearGradient><linearGradient id="I" x1="227.462" x2="227.438" y1="148.167" y2="147.209" gradientUnits="userSpaceOnUse"><stop stop-color="#0533F5"/><stop offset=".49" stop-color="#F39949"/><stop offset="1" stop-color="#E4EBF2"/></linearGradient><linearGradient id="J" x1="224.029" x2="220.719" y1="155.836" y2="145.654" gradientUnits="userSpaceOnUse"><stop stop-color="#0533F5"/><stop offset=".49" stop-color="#F39949"/><stop offset="1" stop-color="#E4EBF2"/></linearGradient><linearGradient id="K" x1="89.467" x2="95.147" y1="150.072" y2="142.343" gradientUnits="userSpaceOnUse"><stop stop-color="#0533F5"/><stop offset=".49" stop-color="#F39949"/><stop offset="1" stop-color="#E4EBF2"/></linearGradient><linearGradient id="L" x1="63.804" x2="67.147" y1="144.062" y2="133.836" gradientUnits="userSpaceOnUse"><stop stop-color="#0533F5"/><stop offset=".49" stop-color="#F39949"/><stop offset="1" stop-color="#E4EBF2"/></linearGradient><linearGradient id="M" x1="60.372" x2="60.395" y1="148.167" y2="147.209" gradientUnits="userSpaceOnUse"><stop stop-color="#0533F5"/><stop offset=".49" stop-color="#F39949"/><stop offset="1" stop-color="#E4EBF2"/></linearGradient><linearGradient id="N" x1="63.804" x2="67.114" y1="155.836" y2="145.654" gradientUnits="userSpaceOnUse"><stop stop-color="#0533F5"/><stop offset=".49" stop-color="#F39949"/><stop offset="1" stop-color="#E4EBF2"/></linearGradient><linearGradient id="O" x1="62.667" x2="65.317" y1="137.37" y2="133.763" gradientUnits="userSpaceOnUse"><stop stop-color="#F39949"/><stop offset="1" stop-color="#E4EBF2"/></linearGradient><linearGradient id="P" x1="62.667" x2="65.317" y1="160.564" y2="156.957" gradientUnits="userSpaceOnUse"><stop stop-color="#F39949"/><stop offset="1" stop-color="#E4EBF2"/></linearGradient><linearGradient id="Q" x1="58.576" x2="61.227" y1="148.967" y2="145.36" gradientUnits="userSpaceOnUse"><stop stop-color="#F39949"/><stop offset="1" stop-color="#E4EBF2"/></linearGradient><linearGradient id="R" x1="158.651" x2="101.707" y1="87.085" y2="127.658" gradientUnits="userSpaceOnUse"><stop stop-color="#0533F5"/><stop offset=".49" stop-color="#F39949"/><stop offset="1" stop-color="#E4EBF2"/></linearGradient><linearGradient id="S" x1="139.676" x2="129.562" y1="227.562" y2="224.355" gradientUnits="userSpaceOnUse"><stop stop-color="#0533F5"/><stop offset=".49" stop-color="#F39949"/><stop offset="1" stop-color="#E4EBF2"/></linearGradient><linearGradient id="T" x1="143.684" x2="142.904" y1="231.041" y2="231.025" gradientUnits="userSpaceOnUse"><stop stop-color="#0533F5"/><stop offset=".49" stop-color="#F39949"/><stop offset="1" stop-color="#E4EBF2"/></linearGradient><linearGradient id="U" x1="151.254" x2="141.184" y1="227.562" y2="224.386" gradientUnits="userSpaceOnUse"><stop stop-color="#0533F5"/><stop offset=".49" stop-color="#F39949"/><stop offset="1" stop-color="#E4EBF2"/></linearGradient><linearGradient id="V" x1="3.802" x2=".181" y1="-.899" y2="1.683" gradientUnits="userSpaceOnUse"><stop stop-color="#F39949"/><stop offset="1" stop-color="#E4EBF2"/></linearGradient><linearGradient id="W" x1="3.802" x2=".181" y1="-.899" y2="1.683" gradientUnits="userSpaceOnUse"><stop stop-color="#F39949"/><stop offset="1" stop-color="#E4EBF2"/></linearGradient><linearGradient id="X" x1="3.802" x2=".181" y1="-.899" y2="1.683" gradientUnits="userSpaceOnUse"><stop stop-color="#F39949"/><stop offset="1" stop-color="#E4EBF2"/></linearGradient><linearGradient id="Y" x1="212.31" x2="208.526" y1="101.2" y2="103.917" gradientUnits="userSpaceOnUse"><stop stop-color="#F39949"/><stop offset="1" stop-color="#E4EBF2"/></linearGradient><linearGradient id="Z" x1="3.991" x2=".208" y1="-.937" y2="1.78" gradientUnits="userSpaceOnUse"><stop stop-color="#F39949"/><stop offset="1" stop-color="#E4EBF2"/></linearGradient><linearGradient id="aa" x1="3.991" x2=".208" y1="-.937" y2="1.78" gradientUnits="userSpaceOnUse"><stop stop-color="#F39949"/><stop offset="1" stop-color="#E4EBF2"/></linearGradient><linearGradient id="ab" x1="3.991" x2=".208" y1="-.937" y2="1.78" gradientUnits="userSpaceOnUse"><stop stop-color="#F39949"/><stop offset="1" stop-color="#E4EBF2"/></linearGradient><linearGradient id="ac" x1="98.392" x2="94.609" y1="211.378" y2="214.096" gradientUnits="userSpaceOnUse"><stop stop-color="#F39949"/><stop offset="1" stop-color="#E4EBF2"/></linearGradient><linearGradient id="ad" x1="87.615" x2="83.831" y1="204.605" y2="207.322" gradientUnits="userSpaceOnUse"><stop stop-color="#F39949"/><stop offset="1" stop-color="#E4EBF2"/></linearGradient><linearGradient id="ae" x1="227.505" x2="223.884" y1="133.841" y2="136.423" gradientUnits="userSpaceOnUse"><stop stop-color="#F39949"/><stop offset="1" stop-color="#E4EBF2"/></linearGradient><linearGradient id="af" x1="227.505" x2="223.884" y1="156.65" y2="159.233" gradientUnits="userSpaceOnUse"><stop stop-color="#F39949"/><stop offset="1" stop-color="#E4EBF2"/></linearGradient><linearGradient id="ag" x1="231.651" x2="228.03" y1="145.246" y2="147.828" gradientUnits="userSpaceOnUse"><stop stop-color="#F39949"/><stop offset="1" stop-color="#E4EBF2"/></linearGradient><linearGradient id="ah" x1="170.982" x2="135.794" y1="131.48" y2="125.89" gradientUnits="userSpaceOnUse"><stop stop-color="#0533F5"/><stop offset=".49" stop-color="#F39949"/><stop offset="1" stop-color="#E4EBF2"/></linearGradient></defs></svg>