<svg xmlns="http://www.w3.org/2000/svg" width="103" height="103" fill="none"><path stroke="url(#paint0_linear)" d="M1.85 51.5L51.49.8l49.64 50.7-49.64 50.68L1.85 51.5z" opacity=".893"/><path stroke="url(#paint1_linear)" d="M1.56 51.69S7.6 44.9 21.15 41.62c13.55-3.28 23.76 3.28 32.83 10.07 9.07 6.78 15.95 10.25 26.66 9.64 10.7-.61 16.89-5.08 20.78-9.86" opacity=".807"/><path fill="url(#paint2_linear)" fill-rule="evenodd" d="M50.26 37.24c1.17 0 2.12-.98 2.12-2.18 0-1.2-.95-2.17-2.12-2.17-1.18 0-2.13.97-2.13 2.17s.95 2.18 2.13 2.18z" clip-rule="evenodd" opacity=".55"/><path stroke="url(#paint3_linear)" d="M50.26 33.86l-4.04-9.3"/><path stroke="url(#paint4_linear)" d="M50.26 33.86V23.52"/><path stroke="url(#paint5_linear)" d="M50.26 33.86l4.02-9.3"/><path fill="url(#paint6_linear)" d="M45.3 23.04h1.98v2.03H45.3z" opacity=".659"/><path fill="url(#paint7_linear)" d="M53.23 23.04h1.98v2.03h-1.98z" opacity=".659"/><path fill="url(#paint8_linear)" d="M49.27 21.6h1.98v2.02h-1.98z" opacity=".659"/><path fill="url(#paint9_linear)" fill-rule="evenodd" d="M50.26 64.84c1.17 0 2.12.98 2.12 2.18 0 1.2-.95 2.17-2.12 2.17a2.15 2.15 0 01-2.13-2.17c0-1.2.95-2.18 2.13-2.18z" clip-rule="evenodd" opacity=".55"/><path fill="url(#paint10_linear)" fill-rule="evenodd" d="M59.43 41.71a2.2 2.2 0 003.12.4 2.3 2.3 0 00.37-3.19 2.2 2.2 0 00-3.12-.4 2.3 2.3 0 00-.37 3.2z" clip-rule="evenodd" opacity=".55"/><path stroke="url(#paint11_linear)" d="M62.14 39.55l4.87-9.38"/><path stroke="url(#paint12_linear)" d="M62.14 39.55l8.32-6.64"/><path stroke="url(#paint13_linear)" d="M62.14 39.55l10.07-2.57"/><path fill="url(#paint14_linear)" fill-rule="evenodd" d="M67.64 28.41l1.28 1.68-1.63 1.3-1.28-1.67 1.63-1.3z" clip-rule="evenodd" opacity=".659"/><path fill="url(#paint15_linear)" fill-rule="evenodd" d="M71.37 30.84l1.28 1.67-1.63 1.3-1.28-1.67 1.63-1.3z" clip-rule="evenodd" opacity=".659"/><path fill="url(#paint16_linear)" fill-rule="evenodd" d="M41.39 41.41a2.2 2.2 0 01-3.13.4 2.3 2.3 0 01-.37-3.19 2.2 2.2 0 013.12-.4 2.3 2.3 0 01.38 3.2z" clip-rule="evenodd" opacity=".55"/><path stroke="url(#paint17_linear)" d="M38.67 39.24l-4.86-9.37"/><path stroke="url(#paint18_linear)" d="M38.67 39.24l-8.32-6.64"/><path stroke="url(#paint19_linear)" d="M38.67 39.24L28.6 36.67"/><path fill="url(#paint20_linear)" fill-rule="evenodd" d="M33.17 28.11l-1.28 1.68 1.63 1.3 1.28-1.68-1.63-1.3z" clip-rule="evenodd" opacity=".659"/><path fill="url(#paint21_linear)" fill-rule="evenodd" d="M28.04 34.81l-1.28 1.68 1.63 1.3 1.28-1.68-1.63-1.3z" clip-rule="evenodd" opacity=".659"/><path fill="url(#paint22_linear)" fill-rule="evenodd" d="M29.44 30.53l-1.28 1.68 1.63 1.3 1.28-1.68-1.63-1.3z" clip-rule="evenodd" opacity=".659"/><path fill="url(#paint23_linear)" fill-rule="evenodd" d="M59.43 60.67a2.2 2.2 0 013.12-.4 2.3 2.3 0 01.37 3.19 2.2 2.2 0 01-3.12.4 2.3 2.3 0 01-.37-3.2z" clip-rule="evenodd" opacity=".55"/><path stroke="url(#paint24_linear)" d="M62.14 62.84l4.87 9.37"/><path stroke="url(#paint25_linear)" d="M62.14 62.84l8.32 6.63"/><path stroke="url(#paint26_linear)" d="M62.14 62.84l10.07 2.56"/><path fill="url(#paint27_linear)" fill-rule="evenodd" d="M41.39 60.36a2.2 2.2 0 00-3.13-.4 2.3 2.3 0 00-.37 3.2 2.2 2.2 0 003.12.4 2.3 2.3 0 00.38-3.2z" clip-rule="evenodd" opacity=".55"/><path stroke="url(#paint28_linear)" d="M38.67 62.53l-4.86 9.38"/><path stroke="url(#paint29_linear)" d="M38.67 62.53l-8.32 6.64"/><path stroke="url(#paint30_linear)" d="M38.67 62.53L28.6 65.1"/><path fill="url(#paint31_linear)" fill-rule="evenodd" d="M28.04 66.96l-1.28-1.67 1.63-1.3 1.28 1.67-1.63 1.3z" clip-rule="evenodd" opacity=".659"/><path fill="url(#paint32_linear)" fill-rule="evenodd" d="M64.23 51.5c0 1.2.95 2.17 2.12 2.17 1.18 0 2.13-.97 2.13-2.17s-.95-2.17-2.13-2.17c-1.17 0-2.12.97-2.12 2.17z" clip-rule="evenodd" opacity=".55"/><path stroke="url(#paint33_linear)" d="M67.53 51.5l9.1-4.13"/><path stroke="url(#paint34_linear)" d="M67.53 51.5h10.13"/><path stroke="url(#paint35_linear)" d="M67.53 51.5l9.1 4.1"/><path fill="url(#paint36_linear)" fill-rule="evenodd" d="M36.29 51.5c0 1.2-.95 2.17-2.13 2.17a2.15 2.15 0 01-2.13-2.17c0-1.2.96-2.17 2.13-2.17 1.18 0 2.13.97 2.13 2.17z" clip-rule="evenodd" opacity=".546"/><path stroke="url(#paint37_linear)" d="M32.98 51.5l-9.1-4.13"/><path stroke="url(#paint38_linear)" d="M32.98 51.5H22.85"/><path stroke="url(#paint39_linear)" d="M32.98 51.5l-9.1 4.1"/><path fill="url(#paint40_linear)" fill-rule="evenodd" d="M22.39 46.44v2.02h1.98v-2.02H22.4z" clip-rule="evenodd" opacity=".659"/><path fill="url(#paint41_linear)" fill-rule="evenodd" d="M22.39 54.54v2.02h1.98v-2.02H22.4z" clip-rule="evenodd" opacity=".659"/><path fill="url(#paint42_linear)" fill-rule="evenodd" d="M20.97 50.49v2.02h1.98V50.5h-1.98z" clip-rule="evenodd" opacity=".659"/><path stroke="url(#paint43_linear)" d="M65.22 51.1c0 8.54-6.74 15.44-15.04 15.44-8.29 0-15.03-6.9-15.03-15.43 0-8.54 6.74-15.44 15.03-15.44 8.3 0 15.04 6.9 15.04 15.44z" opacity=".55"/><path stroke="url(#paint44_linear)" d="M50.13 68.56l-4.03 9.28"/><path stroke="url(#paint45_linear)" d="M50.13 68.56v10.33"/><path stroke="url(#paint46_linear)" d="M50.13 68.56l4 9.28"/><path fill="url(#paint47_linear)" d="M0 0h1.98v2.03H0z" opacity=".659" transform="matrix(1 0 0 -1 45.185 79.368)"/><path fill="url(#paint48_linear)" d="M0 0h1.98v2.03H0z" opacity=".659" transform="matrix(1 0 0 -1 53.096 79.368)"/><path fill="url(#paint49_linear)" d="M0 0h1.98v2.03H0z" opacity=".659" transform="matrix(1 0 0 -1 49.14 80.815)"/><path fill="url(#paint50_linear)" d="M72.6 35.5h2.07v2.1H72.6z" opacity=".659" transform="rotate(52 72.598 35.493)"/><path fill="url(#paint51_linear)" d="M0 0h2.08v2.11H0z" opacity=".659" transform="scale(1 -1) rotate(52 109.806 32.068)"/><path fill="url(#paint52_linear)" d="M0 0h2.08v2.11H0z" opacity=".659" transform="scale(1 -1) rotate(52 105.654 40.581)"/><path fill="url(#paint53_linear)" d="M0 0h2.08v2.11H0z" opacity=".659" transform="scale(1 -1) rotate(52 109.277 37.079)"/><path fill="url(#paint54_linear)" d="M33.08 73.94h2.08v2.11h-2.08z" opacity=".659" transform="rotate(-128 33.083 73.939)"/><path fill="url(#paint55_linear)" d="M29.34 71.6h2.07v2.1h-2.07z" opacity=".659" transform="rotate(-128 29.337 71.596)"/><path fill="url(#paint56_linear)" d="M77.93 46.9h1.98v2.03h-1.98z" opacity=".659" transform="rotate(90 77.93 46.904)"/><path fill="url(#paint57_linear)" d="M77.93 54.81h1.98v2.03h-1.98z" opacity=".659" transform="rotate(90 77.93 54.815)"/><path fill="url(#paint58_linear)" d="M79.38 50.86h1.98v2.03h-1.98z" opacity=".659" transform="rotate(90 79.378 50.86)"/><defs><linearGradient id="paint29_linear" x1="33.121" x2="37.483" y1="70.2" y2="66.231" gradientUnits="userSpaceOnUse"><stop stop-color="#0533F5"/><stop offset=".49" stop-color="#F39949"/><stop offset="1" stop-color="#E4EBF2"/></linearGradient><linearGradient id="paint0_linear" x1="93.728" x2="38.063" y1="26.397" y2="17.556" gradientUnits="userSpaceOnUse"><stop stop-color="#0533F5"/><stop offset=".49" stop-color="#F39949"/><stop offset="1" stop-color="#E4EBF2"/></linearGradient><linearGradient id="paint2_linear" x1="50.966" x2="48.259" y1="32.217" y2="34.138" gradientUnits="userSpaceOnUse"><stop stop-color="#0533F5"/><stop offset=".49" stop-color="#F39949"/><stop offset="1" stop-color="#E4EBF2"/></linearGradient><linearGradient id="paint3_linear" x1="48.911" x2="45.391" y1="23.129" y2="24.24" gradientUnits="userSpaceOnUse"><stop stop-color="#0533F5"/><stop offset=".49" stop-color="#F39949"/><stop offset="1" stop-color="#E4EBF2"/></linearGradient><linearGradient id="paint4_linear" x1="50.304" x2="50.033" y1="21.914" y2="21.919" gradientUnits="userSpaceOnUse"><stop stop-color="#0533F5"/><stop offset=".49" stop-color="#F39949"/><stop offset="1" stop-color="#E4EBF2"/></linearGradient><linearGradient id="paint5_linear" x1="52.936" x2="49.432" y1="23.129" y2="24.229" gradientUnits="userSpaceOnUse"><stop stop-color="#0533F5"/><stop offset=".49" stop-color="#F39949"/><stop offset="1" stop-color="#E4EBF2"/></linearGradient><linearGradient id="paint6_linear" x1="46.623" x2="45.359" y1="22.726" y2="23.623" gradientUnits="userSpaceOnUse"><stop stop-color="#F39949"/><stop offset="1" stop-color="#E4EBF2"/></linearGradient><linearGradient id="paint7_linear" x1="54.553" x2="53.29" y1="22.726" y2="23.623" gradientUnits="userSpaceOnUse"><stop stop-color="#F39949"/><stop offset="1" stop-color="#E4EBF2"/></linearGradient><linearGradient id="paint8_linear" x1="50.588" x2="49.325" y1="21.278" y2="22.174" gradientUnits="userSpaceOnUse"><stop stop-color="#F39949"/><stop offset="1" stop-color="#E4EBF2"/></linearGradient><linearGradient id="paint9_linear" x1="50.966" x2="48.259" y1="69.862" y2="67.941" gradientUnits="userSpaceOnUse"><stop stop-color="#0533F5"/><stop offset=".49" stop-color="#F39949"/><stop offset="1" stop-color="#E4EBF2"/></linearGradient><linearGradient id="paint10_linear" x1="63.946" x2="60.586" y1="39.11" y2="38.162" gradientUnits="userSpaceOnUse"><stop stop-color="#0533F5"/><stop offset=".49" stop-color="#F39949"/><stop offset="1" stop-color="#E4EBF2"/></linearGradient><linearGradient id="paint11_linear" x1="69.982" x2="66.656" y1="31.563" y2="29.35" gradientUnits="userSpaceOnUse"><stop stop-color="#0533F5"/><stop offset=".49" stop-color="#F39949"/><stop offset="1" stop-color="#E4EBF2"/></linearGradient><linearGradient id="paint12_linear" x1="71.9" x2="71.261" y1="32.066" y2="31.355" gradientUnits="userSpaceOnUse"><stop stop-color="#0533F5"/><stop offset=".49" stop-color="#F39949"/><stop offset="1" stop-color="#E4EBF2"/></linearGradient><linearGradient id="paint13_linear" x1="72.519" x2="69.371" y1="34.973" y2="32.822" gradientUnits="userSpaceOnUse"><stop stop-color="#0533F5"/><stop offset=".49" stop-color="#F39949"/><stop offset="1" stop-color="#E4EBF2"/></linearGradient><linearGradient id="paint14_linear" x1="68.775" x2="67.191" y1="29.333" y2="28.886" gradientUnits="userSpaceOnUse"><stop stop-color="#F39949"/><stop offset="1" stop-color="#E4EBF2"/></linearGradient><linearGradient id="paint15_linear" x1="72.503" x2="70.919" y1="31.753" y2="31.306" gradientUnits="userSpaceOnUse"><stop stop-color="#F39949"/><stop offset="1" stop-color="#E4EBF2"/></linearGradient><linearGradient id="paint16_linear" x1="36.866" x2="40.226" y1="38.807" y2="37.86" gradientUnits="userSpaceOnUse"><stop stop-color="#0533F5"/><stop offset=".49" stop-color="#F39949"/><stop offset="1" stop-color="#E4EBF2"/></linearGradient><linearGradient id="paint17_linear" x1="30.829" x2="34.156" y1="31.26" y2="29.047" gradientUnits="userSpaceOnUse"><stop stop-color="#0533F5"/><stop offset=".49" stop-color="#F39949"/><stop offset="1" stop-color="#E4EBF2"/></linearGradient><linearGradient id="paint18_linear" x1="28.912" x2="29.551" y1="31.764" y2="31.052" gradientUnits="userSpaceOnUse"><stop stop-color="#0533F5"/><stop offset=".49" stop-color="#F39949"/><stop offset="1" stop-color="#E4EBF2"/></linearGradient><linearGradient id="paint19_linear" x1="31.954" x2="33.014" y1="36.277" y2="39.295" gradientUnits="userSpaceOnUse"><stop stop-color="#0533F5"/><stop offset=".49" stop-color="#F39949"/><stop offset="1" stop-color="#E4EBF2"/></linearGradient><linearGradient id="paint20_linear" x1="32.037" x2="33.621" y1="29.03" y2="28.584" gradientUnits="userSpaceOnUse"><stop stop-color="#F39949"/><stop offset="1" stop-color="#E4EBF2"/></linearGradient><linearGradient id="paint21_linear" x1="26.912" x2="28.495" y1="35.73" y2="35.283" gradientUnits="userSpaceOnUse"><stop stop-color="#F39949"/><stop offset="1" stop-color="#E4EBF2"/></linearGradient><linearGradient id="paint22_linear" x1="28.309" x2="29.893" y1="31.45" y2="31.004" gradientUnits="userSpaceOnUse"><stop stop-color="#F39949"/><stop offset="1" stop-color="#E4EBF2"/></linearGradient><linearGradient id="paint23_linear" x1="63.946" x2="60.586" y1="63.272" y2="64.219" gradientUnits="userSpaceOnUse"><stop stop-color="#0533F5"/><stop offset=".49" stop-color="#F39949"/><stop offset="1" stop-color="#E4EBF2"/></linearGradient><linearGradient id="paint24_linear" x1="69.982" x2="66.656" y1="70.819" y2="73.032" gradientUnits="userSpaceOnUse"><stop stop-color="#0533F5"/><stop offset=".49" stop-color="#F39949"/><stop offset="1" stop-color="#E4EBF2"/></linearGradient><linearGradient id="paint25_linear" x1="71.9" x2="71.261" y1="70.316" y2="71.027" gradientUnits="userSpaceOnUse"><stop stop-color="#0533F5"/><stop offset=".49" stop-color="#F39949"/><stop offset="1" stop-color="#E4EBF2"/></linearGradient><linearGradient id="paint26_linear" x1="72.519" x2="69.371" y1="67.409" y2="69.559" gradientUnits="userSpaceOnUse"><stop stop-color="#0533F5"/><stop offset=".49" stop-color="#F39949"/><stop offset="1" stop-color="#E4EBF2"/></linearGradient><linearGradient id="paint27_linear" x1="36.866" x2="40.226" y1="62.969" y2="63.916" gradientUnits="userSpaceOnUse"><stop stop-color="#0533F5"/><stop offset=".49" stop-color="#F39949"/><stop offset="1" stop-color="#E4EBF2"/></linearGradient><linearGradient id="paint28_linear" x1="35.426" x2="39.508" y1="73.361" y2="71.824" gradientUnits="userSpaceOnUse"><stop stop-color="#0533F5"/><stop offset=".49" stop-color="#F39949"/><stop offset="1" stop-color="#E4EBF2"/></linearGradient><linearGradient id="paint1_linear" x1="68.141" x2="60.959" y1="37.549" y2="62.759" gradientUnits="userSpaceOnUse"><stop stop-color="#0533F5"/><stop offset=".49" stop-color="#F39949"/><stop offset="1" stop-color="#E4EBF2"/></linearGradient><linearGradient id="paint30_linear" x1="31.954" x2="33.014" y1="65.499" y2="62.481" gradientUnits="userSpaceOnUse"><stop stop-color="#0533F5"/><stop offset=".49" stop-color="#F39949"/><stop offset="1" stop-color="#E4EBF2"/></linearGradient><linearGradient id="paint31_linear" x1="26.912" x2="28.495" y1="66.046" y2="66.493" gradientUnits="userSpaceOnUse"><stop stop-color="#F39949"/><stop offset="1" stop-color="#E4EBF2"/></linearGradient><linearGradient id="paint32_linear" x1="69.14" x2="67.153" y1="52.223" y2="49.538" gradientUnits="userSpaceOnUse"><stop stop-color="#0533F5"/><stop offset=".49" stop-color="#F39949"/><stop offset="1" stop-color="#E4EBF2"/></linearGradient><linearGradient id="paint33_linear" x1="78.04" x2="76.867" y1="50.125" y2="46.559" gradientUnits="userSpaceOnUse"><stop stop-color="#0533F5"/><stop offset=".49" stop-color="#F39949"/><stop offset="1" stop-color="#E4EBF2"/></linearGradient><linearGradient id="paint34_linear" x1="79.231" x2="79.162" y1="51.667" y2="50.714" gradientUnits="userSpaceOnUse"><stop stop-color="#0533F5"/><stop offset=".49" stop-color="#F39949"/><stop offset="1" stop-color="#E4EBF2"/></linearGradient><linearGradient id="paint35_linear" x1="78.04" x2="76.878" y1="54.236" y2="50.685" gradientUnits="userSpaceOnUse"><stop stop-color="#0533F5"/><stop offset=".49" stop-color="#F39949"/><stop offset="1" stop-color="#E4EBF2"/></linearGradient><linearGradient id="paint36_linear" x1="31.374" x2="33.361" y1="52.223" y2="49.538" gradientUnits="userSpaceOnUse"><stop stop-color="#0533F5"/><stop offset=".49" stop-color="#F39949"/><stop offset="1" stop-color="#E4EBF2"/></linearGradient><linearGradient id="paint37_linear" x1="22.474" x2="23.648" y1="50.125" y2="46.559" gradientUnits="userSpaceOnUse"><stop stop-color="#0533F5"/><stop offset=".49" stop-color="#F39949"/><stop offset="1" stop-color="#E4EBF2"/></linearGradient><linearGradient id="paint38_linear" x1="21.284" x2="21.352" y1="51.667" y2="50.714" gradientUnits="userSpaceOnUse"><stop stop-color="#0533F5"/><stop offset=".49" stop-color="#F39949"/><stop offset="1" stop-color="#E4EBF2"/></linearGradient><linearGradient id="paint39_linear" x1="22.474" x2="23.636" y1="54.236" y2="50.685" gradientUnits="userSpaceOnUse"><stop stop-color="#0533F5"/><stop offset=".49" stop-color="#F39949"/><stop offset="1" stop-color="#E4EBF2"/></linearGradient><linearGradient id="paint40_linear" x1="22.08" x2="23.007" y1="47.788" y2="46.535" gradientUnits="userSpaceOnUse"><stop stop-color="#F39949"/><stop offset="1" stop-color="#E4EBF2"/></linearGradient><linearGradient id="paint41_linear" x1="22.08" x2="23.007" y1="55.887" y2="54.633" gradientUnits="userSpaceOnUse"><stop stop-color="#F39949"/><stop offset="1" stop-color="#E4EBF2"/></linearGradient><linearGradient id="paint42_linear" x1="20.661" x2="21.588" y1="51.837" y2="50.584" gradientUnits="userSpaceOnUse"><stop stop-color="#F39949"/><stop offset="1" stop-color="#E4EBF2"/></linearGradient><linearGradient id="paint43_linear" x1="55.367" x2="35.529" y1="30.231" y2="44.271" gradientUnits="userSpaceOnUse"><stop stop-color="#0533F5"/><stop offset=".49" stop-color="#F39949"/><stop offset="1" stop-color="#E4EBF2"/></linearGradient><linearGradient id="paint44_linear" x1="48.787" x2="45.275" y1="79.279" y2="78.173" gradientUnits="userSpaceOnUse"><stop stop-color="#0533F5"/><stop offset=".49" stop-color="#F39949"/><stop offset="1" stop-color="#E4EBF2"/></linearGradient><linearGradient id="paint45_linear" x1="50.176" x2="49.906" y1="80.494" y2="80.488" gradientUnits="userSpaceOnUse"><stop stop-color="#0533F5"/><stop offset=".49" stop-color="#F39949"/><stop offset="1" stop-color="#E4EBF2"/></linearGradient><linearGradient id="paint46_linear" x1="52.802" x2="49.305" y1="79.279" y2="78.184" gradientUnits="userSpaceOnUse"><stop stop-color="#0533F5"/><stop offset=".49" stop-color="#F39949"/><stop offset="1" stop-color="#E4EBF2"/></linearGradient><linearGradient id="paint47_linear" x1="1.319" x2=".057" y1="-.314" y2=".58" gradientUnits="userSpaceOnUse"><stop stop-color="#F39949"/><stop offset="1" stop-color="#E4EBF2"/></linearGradient><linearGradient id="paint48_linear" x1="1.319" x2=".057" y1="-.314" y2=".58" gradientUnits="userSpaceOnUse"><stop stop-color="#F39949"/><stop offset="1" stop-color="#E4EBF2"/></linearGradient><linearGradient id="paint49_linear" x1="1.319" x2=".057" y1="-.314" y2=".58" gradientUnits="userSpaceOnUse"><stop stop-color="#F39949"/><stop offset="1" stop-color="#E4EBF2"/></linearGradient><linearGradient id="paint50_linear" x1="73.982" x2="72.664" y1="35.166" y2="36.106" gradientUnits="userSpaceOnUse"><stop stop-color="#F39949"/><stop offset="1" stop-color="#E4EBF2"/></linearGradient><linearGradient id="paint51_linear" x1="1.384" x2=".066" y1="-.327" y2=".613" gradientUnits="userSpaceOnUse"><stop stop-color="#F39949"/><stop offset="1" stop-color="#E4EBF2"/></linearGradient><linearGradient id="paint52_linear" x1="1.384" x2=".066" y1="-.327" y2=".613" gradientUnits="userSpaceOnUse"><stop stop-color="#F39949"/><stop offset="1" stop-color="#E4EBF2"/></linearGradient><linearGradient id="paint53_linear" x1="1.384" x2=".066" y1="-.327" y2=".613" gradientUnits="userSpaceOnUse"><stop stop-color="#F39949"/><stop offset="1" stop-color="#E4EBF2"/></linearGradient><linearGradient id="paint54_linear" x1="34.467" x2="33.149" y1="73.612" y2="74.552" gradientUnits="userSpaceOnUse"><stop stop-color="#F39949"/><stop offset="1" stop-color="#E4EBF2"/></linearGradient><linearGradient id="paint55_linear" x1="30.722" x2="29.404" y1="71.269" y2="72.209" gradientUnits="userSpaceOnUse"><stop stop-color="#F39949"/><stop offset="1" stop-color="#E4EBF2"/></linearGradient><linearGradient id="paint56_linear" x1="79.249" x2="77.987" y1="46.59" y2="47.484" gradientUnits="userSpaceOnUse"><stop stop-color="#F39949"/><stop offset="1" stop-color="#E4EBF2"/></linearGradient><linearGradient id="paint57_linear" x1="79.249" x2="77.987" y1="54.501" y2="55.394" gradientUnits="userSpaceOnUse"><stop stop-color="#F39949"/><stop offset="1" stop-color="#E4EBF2"/></linearGradient><linearGradient id="paint58_linear" x1="80.696" x2="79.434" y1="50.545" y2="51.439" gradientUnits="userSpaceOnUse"><stop stop-color="#F39949"/><stop offset="1" stop-color="#E4EBF2"/></linearGradient></defs></svg>