<svg width="295" height="296" viewBox="0 0 295 296" fill="none" xmlns="http://www.w3.org/2000/svg">
<path opacity="0.667992" fill-rule="evenodd" clip-rule="evenodd" d="M147.474 1.45459L3.01685 147.974L147.474 294.494L291.932 147.974L147.474 1.45459Z" stroke="url(#paint0_linear)"/>
<path opacity="0.807245" d="M3.49023 148.543C15.1034 135.578 33.9348 125.963 59.9844 119.699C99.0589 110.301 128.485 129.11 154.641 148.543C180.797 167.977 200.63 177.908 231.511 176.154C262.392 174.401 280.222 161.617 291.449 147.924" stroke="url(#paint1_linear)"/>
<path opacity="0.55" d="M143.917 107.147C147.299 107.147 150.042 104.361 150.042 100.924C150.042 97.4874 147.299 94.7012 143.917 94.7012C140.534 94.7012 137.791 97.4874 137.791 100.924C137.791 104.361 140.534 107.147 143.917 107.147Z" fill="url(#paint2_linear)"/>
<path opacity="0.667992" d="M143.917 97.4771L132.268 70.8652" stroke="url(#paint3_linear)"/>
<path opacity="0.667992" d="M143.917 97.4772V67.8511" stroke="url(#paint4_linear)"/>
<path opacity="0.667992" d="M143.917 97.4771L155.503 70.8652" stroke="url(#paint5_linear)"/>
<path opacity="0.658877" d="M135.341 66.4897H129.625V72.298H135.341V66.4897Z" fill="url(#paint6_linear)"/>
<path opacity="0.658877" d="M158.209 66.4897H152.492V72.298H158.209V66.4897Z" fill="url(#paint7_linear)"/>
<path opacity="0.658877" d="M146.775 62.3411H141.058V68.1493H146.775V62.3411Z" fill="url(#paint8_linear)"/>
<path opacity="0.55" d="M143.917 186.217C147.299 186.217 150.042 189.003 150.042 192.44C150.042 195.877 147.299 198.663 143.917 198.663C140.534 198.663 137.791 195.877 137.791 192.44C137.791 189.003 140.534 186.217 143.917 186.217Z" fill="url(#paint9_linear)"/>
<path opacity="0.55" d="M170.327 119.936C172.533 122.76 176.59 123.276 179.389 121.089C182.188 118.902 182.669 114.841 180.463 112.017C178.257 109.194 174.2 108.678 171.401 110.864C168.602 113.051 168.121 117.113 170.327 119.936Z" fill="url(#paint10_linear)"/>
<path opacity="0.667992" d="M178.187 113.764L192.212 86.9089" stroke="url(#paint11_linear)"/>
<path opacity="0.667992" d="M178.187 113.764L202.183 94.7488" stroke="url(#paint12_linear)"/>
<path opacity="0.667992" d="M178.187 113.764L207.231 106.406" stroke="url(#paint13_linear)"/>
<path opacity="0.658877" fill-rule="evenodd" clip-rule="evenodd" d="M194.048 81.8826L197.743 86.6795L193.039 90.4075L189.344 85.6106L194.048 81.8826Z" fill="url(#paint14_linear)"/>
<path opacity="0.658877" fill-rule="evenodd" clip-rule="evenodd" d="M204.798 88.8137L208.493 93.6107L203.789 97.3387L200.094 92.5417L204.798 88.8137Z" fill="url(#paint15_linear)"/>
<path opacity="0.55" d="M118.364 119.069C116.158 121.893 112.1 122.409 109.301 120.222C106.503 118.035 106.022 113.974 108.228 111.15C110.434 108.327 114.491 107.811 117.29 109.998C120.089 112.184 120.569 116.246 118.364 119.069Z" fill="url(#paint16_linear)"/>
<path opacity="0.667992" d="M110.504 112.897L96.4785 86.042" stroke="url(#paint17_linear)"/>
<path opacity="0.667992" d="M110.504 112.897L86.5078 93.8818" stroke="url(#paint18_linear)"/>
<path opacity="0.667992" d="M110.504 112.897L81.46 105.539" stroke="url(#paint19_linear)"/>
<path opacity="0.658877" fill-rule="evenodd" clip-rule="evenodd" d="M94.6426 81.0156L90.9475 85.8126L95.652 89.5406L99.347 84.7436L94.6426 81.0156Z" fill="url(#paint20_linear)"/>
<path opacity="0.658877" fill-rule="evenodd" clip-rule="evenodd" d="M79.8623 100.204L76.1672 105.001L80.8717 108.729L84.5668 103.932L79.8623 100.204Z" fill="url(#paint21_linear)"/>
<path opacity="0.658877" fill-rule="evenodd" clip-rule="evenodd" d="M83.8921 87.9468L80.197 92.7438L84.9015 96.4717L88.5965 91.6748L83.8921 87.9468Z" fill="url(#paint22_linear)"/>
<path opacity="0.55" d="M170.327 174.293C172.533 171.47 176.59 170.954 179.389 173.14C182.188 175.327 182.669 179.389 180.463 182.212C178.257 185.036 174.2 185.552 171.401 183.365C168.602 181.178 168.121 177.117 170.327 174.293Z" fill="url(#paint23_linear)"/>
<path opacity="0.667992" d="M178.187 180.465L192.212 207.321" stroke="url(#paint24_linear)"/>
<path opacity="0.667992" d="M178.187 180.465L202.183 199.481" stroke="url(#paint25_linear)"/>
<path opacity="0.667992" d="M178.187 180.465L207.231 187.823" stroke="url(#paint26_linear)"/>
<path opacity="0.55" d="M118.364 173.424C116.158 170.601 112.1 170.085 109.301 172.271C106.503 174.458 106.022 178.52 108.228 181.343C110.434 184.167 114.491 184.683 117.29 182.496C120.089 180.309 120.569 176.248 118.364 173.424Z" fill="url(#paint27_linear)"/>
<path opacity="0.667992" d="M110.504 179.596L96.4785 206.452" stroke="url(#paint28_linear)"/>
<path opacity="0.667992" d="M110.504 179.596L86.5076 198.612" stroke="url(#paint29_linear)"/>
<path opacity="0.667992" d="M110.504 179.596L81.46 186.955" stroke="url(#paint30_linear)"/>
<path opacity="0.658877" fill-rule="evenodd" clip-rule="evenodd" d="M79.8623 192.29L76.1672 187.493L80.8717 183.765L84.5668 188.562L79.8623 192.29Z" fill="url(#paint31_linear)"/>
<path opacity="0.55" d="M184.194 148C184.194 151.431 186.941 154.213 190.33 154.213C193.718 154.213 196.465 151.431 196.465 148C196.465 144.569 193.718 141.787 190.33 141.787C186.941 141.787 184.194 144.569 184.194 148Z" fill="url(#paint32_linear)"/>
<path opacity="0.667992" d="M193.728 148L219.966 136.185" stroke="url(#paint33_linear)"/>
<path opacity="0.667992" d="M193.728 148H222.938" stroke="url(#paint34_linear)"/>
<path opacity="0.667992" d="M193.728 148L219.966 159.752" stroke="url(#paint35_linear)"/>
<path opacity="0.545689" d="M103.639 148C103.639 151.431 100.892 154.213 97.5034 154.213C94.1149 154.213 91.3679 151.431 91.3679 148C91.3679 144.569 94.1149 141.787 97.5034 141.787C100.892 141.787 103.639 144.569 103.639 148Z" fill="url(#paint36_linear)"/>
<path opacity="0.667992" d="M94.1051 148L67.8679 136.185" stroke="url(#paint37_linear)"/>
<path opacity="0.667992" d="M94.1051 148H64.896" stroke="url(#paint38_linear)"/>
<path opacity="0.667992" d="M94.1051 148L67.8679 159.752" stroke="url(#paint39_linear)"/>
<path opacity="0.658877" fill-rule="evenodd" clip-rule="evenodd" d="M63.5537 133.504V139.302H69.2801V133.504H63.5537Z" fill="url(#paint40_linear)"/>
<path opacity="0.658877" fill-rule="evenodd" clip-rule="evenodd" d="M63.5537 156.698V162.496H69.2801V156.698H63.5537Z" fill="url(#paint41_linear)"/>
<path opacity="0.658877" fill-rule="evenodd" clip-rule="evenodd" d="M59.4631 145.101V150.899H65.1896V145.101H59.4631Z" fill="url(#paint42_linear)"/>
<path opacity="0.667992" d="M143.707 192.021C168.178 192.021 188.016 171.808 188.016 146.873C188.016 121.939 168.178 101.725 143.707 101.725C119.237 101.725 99.3989 121.939 99.3989 146.873C99.3989 171.808 119.237 192.021 143.707 192.021Z" stroke="url(#paint43_linear)"/>
<g opacity="0.667992">
<g opacity="0.667992">
<g opacity="0.667992">
<path opacity="0.667992" d="M143.548 196.849L131.929 223.443" stroke="url(#paint44_linear)"/>
<path opacity="0.667992" d="M143.548 196.849V226.455" stroke="url(#paint45_linear)"/>
<path opacity="0.667992" d="M143.548 196.849L155.106 223.443" stroke="url(#paint46_linear)"/>
<path opacity="0.658877" d="M134.995 227.816H129.293V222.011H134.995V227.816Z" fill="url(#paint47_linear)"/>
<path opacity="0.658877" d="M157.804 227.816H152.102V222.011H157.804V227.816Z" fill="url(#paint48_linear)"/>
<path opacity="0.658877" d="M146.399 231.962H140.697V226.157H146.399V231.962Z" fill="url(#paint49_linear)"/>
</g>
<g opacity="0.658877">
<path opacity="0.658877" d="M212.004 106.854L208.319 102.137L203.55 105.863L207.236 110.58L212.004 106.854Z" fill="url(#paint50_linear)"/>
</g>
<g opacity="0.658877">
<path opacity="0.658877" d="M197.236 208.388L193.551 213.105L188.782 209.38L192.468 204.663L197.236 208.388Z" fill="url(#paint51_linear)"/>
<path opacity="0.658877" d="M211.979 189.518L208.293 194.236L203.525 190.51L207.21 185.793L211.979 189.518Z" fill="url(#paint52_linear)"/>
<path opacity="0.658877" d="M208.014 201.614L204.328 206.332L199.56 202.606L203.245 197.889L208.014 201.614Z" fill="url(#paint53_linear)"/>
</g>
<g opacity="0.658877">
<path opacity="0.658877" d="M90.7156 207.598L94.4012 212.316L99.1697 208.59L95.4841 203.873L90.7156 207.598Z" fill="url(#paint54_linear)"/>
<path opacity="0.658877" d="M79.9382 200.825L83.6239 205.542L88.3924 201.816L84.7067 197.099L79.9382 200.825Z" fill="url(#paint55_linear)"/>
</g>
<g opacity="0.658877">
<path opacity="0.658877" d="M223.704 140.442V134.74H217.899V140.442H223.704Z" fill="url(#paint56_linear)"/>
<path opacity="0.658877" d="M223.704 163.251V157.549H217.899V163.251H223.704Z" fill="url(#paint57_linear)"/>
<path opacity="0.658877" d="M227.85 151.847V146.145H222.045V151.847H227.85Z" fill="url(#paint58_linear)"/>
</g>
</g>
</g>
<path opacity="0.667992" fill-rule="evenodd" clip-rule="evenodd" d="M176.069 147.343L144.282 115.763L112.495 147.343L144.282 178.922L176.069 147.343Z" fill="#202020" stroke="url(#paint59_linear)"/>
<path fill-rule="evenodd" clip-rule="evenodd" d="M143.708 131.2L159.956 147.343L143.708 163.485L127.459 147.343L143.708 131.2Z" fill="#FF8E1E"/>
<defs>
<linearGradient id="paint0_linear" x1="255.259" y1="155.78" x2="96.6017" y2="130.579" gradientUnits="userSpaceOnUse">
<stop stop-color="#0533F5"/>
<stop offset="0.490467" stop-color="#F39949"/>
<stop offset="1" stop-color="#E4EBF2"/>
</linearGradient>
<linearGradient id="paint1_linear" x1="261.056" y1="145.927" x2="84.1488" y2="172.303" gradientUnits="userSpaceOnUse">
<stop stop-color="#0533F5"/>
<stop offset="0.490467" stop-color="#F39949"/>
<stop offset="1" stop-color="#E4EBF2"/>
</linearGradient>
<linearGradient id="paint2_linear" x1="148.598" y1="96.6779" x2="141.067" y2="102.232" gradientUnits="userSpaceOnUse">
<stop stop-color="#0533F5"/>
<stop offset="0.490467" stop-color="#F39949"/>
<stop offset="1" stop-color="#E4EBF2"/>
</linearGradient>
<linearGradient id="paint3_linear" x1="138.973" y1="75.0918" x2="133.239" y2="84.5985" gradientUnits="userSpaceOnUse">
<stop stop-color="#0533F5"/>
<stop offset="0.490467" stop-color="#F39949"/>
<stop offset="1" stop-color="#E4EBF2"/>
</linearGradient>
<linearGradient id="paint4_linear" x1="-nan" y1="-nan" x2="-nan" y2="-nan" gradientUnits="userSpaceOnUse">
<stop stop-color="#0533F5"/>
<stop offset="0.490467" stop-color="#F39949"/>
<stop offset="1" stop-color="#E4EBF2"/>
</linearGradient>
<linearGradient id="paint5_linear" x1="150.576" y1="75.0918" x2="144.866" y2="84.6124" gradientUnits="userSpaceOnUse">
<stop stop-color="#0533F5"/>
<stop offset="0.490467" stop-color="#F39949"/>
<stop offset="1" stop-color="#E4EBF2"/>
</linearGradient>
<linearGradient id="paint6_linear" x1="134.668" y1="67.4122" x2="131.153" y2="70.0039" gradientUnits="userSpaceOnUse">
<stop stop-color="#F39949"/>
<stop offset="1" stop-color="#E4EBF2"/>
</linearGradient>
<linearGradient id="paint7_linear" x1="157.535" y1="67.4122" x2="154.021" y2="70.0039" gradientUnits="userSpaceOnUse">
<stop stop-color="#F39949"/>
<stop offset="1" stop-color="#E4EBF2"/>
</linearGradient>
<linearGradient id="paint8_linear" x1="146.101" y1="63.2635" x2="142.587" y2="65.8552" gradientUnits="userSpaceOnUse">
<stop stop-color="#F39949"/>
<stop offset="1" stop-color="#E4EBF2"/>
</linearGradient>
<linearGradient id="paint9_linear" x1="148.598" y1="196.687" x2="141.067" y2="191.133" gradientUnits="userSpaceOnUse">
<stop stop-color="#0533F5"/>
<stop offset="0.490467" stop-color="#F39949"/>
<stop offset="1" stop-color="#E4EBF2"/>
</linearGradient>
<linearGradient id="paint10_linear" x1="181.944" y1="117.355" x2="172.373" y2="114.563" gradientUnits="userSpaceOnUse">
<stop stop-color="#0533F5"/>
<stop offset="0.490467" stop-color="#F39949"/>
<stop offset="1" stop-color="#E4EBF2"/>
</linearGradient>
<linearGradient id="paint11_linear" x1="193.243" y1="95.3453" x2="181.796" y2="96.5421" gradientUnits="userSpaceOnUse">
<stop stop-color="#0533F5"/>
<stop offset="0.490467" stop-color="#F39949"/>
<stop offset="1" stop-color="#E4EBF2"/>
</linearGradient>
<linearGradient id="paint12_linear" x1="198.416" y1="97.8256" x2="186.155" y2="103.794" gradientUnits="userSpaceOnUse">
<stop stop-color="#0533F5"/>
<stop offset="0.490467" stop-color="#F39949"/>
<stop offset="1" stop-color="#E4EBF2"/>
</linearGradient>
<linearGradient id="paint13_linear" x1="200.65" y1="105.056" x2="189.291" y2="106.397" gradientUnits="userSpaceOnUse">
<stop stop-color="#0533F5"/>
<stop offset="0.490467" stop-color="#F39949"/>
<stop offset="1" stop-color="#E4EBF2"/>
</linearGradient>
<linearGradient id="paint14_linear" x1="196.621" y1="86.7922" x2="192.123" y2="85.4804" gradientUnits="userSpaceOnUse">
<stop stop-color="#F39949"/>
<stop offset="1" stop-color="#E4EBF2"/>
</linearGradient>
<linearGradient id="paint15_linear" x1="207.371" y1="93.7234" x2="202.874" y2="92.4116" gradientUnits="userSpaceOnUse">
<stop stop-color="#F39949"/>
<stop offset="1" stop-color="#E4EBF2"/>
</linearGradient>
<linearGradient id="paint16_linear" x1="106.746" y1="116.488" x2="116.318" y2="113.696" gradientUnits="userSpaceOnUse">
<stop stop-color="#0533F5"/>
<stop offset="0.490467" stop-color="#F39949"/>
<stop offset="1" stop-color="#E4EBF2"/>
</linearGradient>
<linearGradient id="paint17_linear" x1="95.4472" y1="94.4783" x2="106.895" y2="95.6752" gradientUnits="userSpaceOnUse">
<stop stop-color="#0533F5"/>
<stop offset="0.490467" stop-color="#F39949"/>
<stop offset="1" stop-color="#E4EBF2"/>
</linearGradient>
<linearGradient id="paint18_linear" x1="90.2746" y1="96.9587" x2="102.535" y2="102.927" gradientUnits="userSpaceOnUse">
<stop stop-color="#0533F5"/>
<stop offset="0.490467" stop-color="#F39949"/>
<stop offset="1" stop-color="#E4EBF2"/>
</linearGradient>
<linearGradient id="paint19_linear" x1="84.5255" y1="109.057" x2="102.19" y2="112.306" gradientUnits="userSpaceOnUse">
<stop stop-color="#0533F5"/>
<stop offset="0.490467" stop-color="#F39949"/>
<stop offset="1" stop-color="#E4EBF2"/>
</linearGradient>
<linearGradient id="paint20_linear" x1="92.0697" y1="85.9253" x2="96.5671" y2="84.6135" gradientUnits="userSpaceOnUse">
<stop stop-color="#F39949"/>
<stop offset="1" stop-color="#E4EBF2"/>
</linearGradient>
<linearGradient id="paint21_linear" x1="77.2894" y1="105.113" x2="81.7869" y2="103.801" gradientUnits="userSpaceOnUse">
<stop stop-color="#F39949"/>
<stop offset="1" stop-color="#E4EBF2"/>
</linearGradient>
<linearGradient id="paint22_linear" x1="81.3192" y1="92.8564" x2="85.8167" y2="91.5446" gradientUnits="userSpaceOnUse">
<stop stop-color="#F39949"/>
<stop offset="1" stop-color="#E4EBF2"/>
</linearGradient>
<linearGradient id="paint23_linear" x1="181.944" y1="176.875" x2="172.373" y2="179.667" gradientUnits="userSpaceOnUse">
<stop stop-color="#0533F5"/>
<stop offset="0.490467" stop-color="#F39949"/>
<stop offset="1" stop-color="#E4EBF2"/>
</linearGradient>
<linearGradient id="paint24_linear" x1="193.243" y1="198.884" x2="181.796" y2="197.687" gradientUnits="userSpaceOnUse">
<stop stop-color="#0533F5"/>
<stop offset="0.490467" stop-color="#F39949"/>
<stop offset="1" stop-color="#E4EBF2"/>
</linearGradient>
<linearGradient id="paint25_linear" x1="198.416" y1="196.404" x2="186.155" y2="190.435" gradientUnits="userSpaceOnUse">
<stop stop-color="#0533F5"/>
<stop offset="0.490467" stop-color="#F39949"/>
<stop offset="1" stop-color="#E4EBF2"/>
</linearGradient>
<linearGradient id="paint26_linear" x1="200.65" y1="189.174" x2="189.291" y2="187.832" gradientUnits="userSpaceOnUse">
<stop stop-color="#0533F5"/>
<stop offset="0.490467" stop-color="#F39949"/>
<stop offset="1" stop-color="#E4EBF2"/>
</linearGradient>
<linearGradient id="paint27_linear" x1="106.746" y1="176.006" x2="116.318" y2="178.798" gradientUnits="userSpaceOnUse">
<stop stop-color="#0533F5"/>
<stop offset="0.490467" stop-color="#F39949"/>
<stop offset="1" stop-color="#E4EBF2"/>
</linearGradient>
<linearGradient id="paint28_linear" x1="101.982" y1="202.186" x2="108.599" y2="192.99" gradientUnits="userSpaceOnUse">
<stop stop-color="#0533F5"/>
<stop offset="0.490467" stop-color="#F39949"/>
<stop offset="1" stop-color="#E4EBF2"/>
</linearGradient>
<linearGradient id="paint29_linear" x1="89.0403" y1="193.178" x2="102.703" y2="185.319" gradientUnits="userSpaceOnUse">
<stop stop-color="#0533F5"/>
<stop offset="0.490467" stop-color="#F39949"/>
<stop offset="1" stop-color="#E4EBF2"/>
</linearGradient>
<linearGradient id="paint30_linear" x1="84.5255" y1="183.437" x2="102.19" y2="180.188" gradientUnits="userSpaceOnUse">
<stop stop-color="#0533F5"/>
<stop offset="0.490467" stop-color="#F39949"/>
<stop offset="1" stop-color="#E4EBF2"/>
</linearGradient>
<linearGradient id="paint31_linear" x1="77.2894" y1="187.38" x2="81.7869" y2="188.692" gradientUnits="userSpaceOnUse">
<stop stop-color="#F39949"/>
<stop offset="1" stop-color="#E4EBF2"/>
</linearGradient>
<linearGradient id="paint32_linear" x1="194.413" y1="152.901" x2="188.871" y2="145.171" gradientUnits="userSpaceOnUse">
<stop stop-color="#0533F5"/>
<stop offset="0.490467" stop-color="#F39949"/>
<stop offset="1" stop-color="#E4EBF2"/>
</linearGradient>
<linearGradient id="paint33_linear" x1="215.798" y1="143.037" x2="206.497" y2="137.267" gradientUnits="userSpaceOnUse">
<stop stop-color="#0533F5"/>
<stop offset="0.490467" stop-color="#F39949"/>
<stop offset="1" stop-color="#E4EBF2"/>
</linearGradient>
<linearGradient id="paint34_linear" x1="-nan" y1="-nan" x2="-nan" y2="-nan" gradientUnits="userSpaceOnUse">
<stop stop-color="#0533F5"/>
<stop offset="0.490467" stop-color="#F39949"/>
<stop offset="1" stop-color="#E4EBF2"/>
</linearGradient>
<linearGradient id="paint35_linear" x1="215.798" y1="154.806" x2="206.484" y2="149.058" gradientUnits="userSpaceOnUse">
<stop stop-color="#0533F5"/>
<stop offset="0.490467" stop-color="#F39949"/>
<stop offset="1" stop-color="#E4EBF2"/>
</linearGradient>
<linearGradient id="paint36_linear" x1="93.4202" y1="152.901" x2="98.9618" y2="145.171" gradientUnits="userSpaceOnUse">
<stop stop-color="#0533F5"/>
<stop offset="0.490467" stop-color="#F39949"/>
<stop offset="1" stop-color="#E4EBF2"/>
</linearGradient>
<linearGradient id="paint37_linear" x1="72.035" y1="143.037" x2="81.3365" y2="137.267" gradientUnits="userSpaceOnUse">
<stop stop-color="#0533F5"/>
<stop offset="0.490467" stop-color="#F39949"/>
<stop offset="1" stop-color="#E4EBF2"/>
</linearGradient>
<linearGradient id="paint38_linear" x1="-nan" y1="-nan" x2="-nan" y2="-nan" gradientUnits="userSpaceOnUse">
<stop stop-color="#0533F5"/>
<stop offset="0.490467" stop-color="#F39949"/>
<stop offset="1" stop-color="#E4EBF2"/>
</linearGradient>
<linearGradient id="paint39_linear" x1="72.035" y1="154.806" x2="81.3498" y2="149.058" gradientUnits="userSpaceOnUse">
<stop stop-color="#0533F5"/>
<stop offset="0.490467" stop-color="#F39949"/>
<stop offset="1" stop-color="#E4EBF2"/>
</linearGradient>
<linearGradient id="paint40_linear" x1="64.5114" y1="138.69" x2="67.0975" y2="135.083" gradientUnits="userSpaceOnUse">
<stop stop-color="#F39949"/>
<stop offset="1" stop-color="#E4EBF2"/>
</linearGradient>
<linearGradient id="paint41_linear" x1="64.5114" y1="161.884" x2="67.0975" y2="158.277" gradientUnits="userSpaceOnUse">
<stop stop-color="#F39949"/>
<stop offset="1" stop-color="#E4EBF2"/>
</linearGradient>
<linearGradient id="paint42_linear" x1="60.4208" y1="150.287" x2="63.0069" y2="146.68" gradientUnits="userSpaceOnUse">
<stop stop-color="#F39949"/>
<stop offset="1" stop-color="#E4EBF2"/>
</linearGradient>
<linearGradient id="paint43_linear" x1="177.389" y1="116.066" x2="123.091" y2="156.209" gradientUnits="userSpaceOnUse">
<stop stop-color="#0533F5"/>
<stop offset="0.490467" stop-color="#F39949"/>
<stop offset="1" stop-color="#E4EBF2"/>
</linearGradient>
<linearGradient id="paint44_linear" x1="138.614" y1="219.219" x2="132.892" y2="209.714" gradientUnits="userSpaceOnUse">
<stop stop-color="#0533F5"/>
<stop offset="0.490467" stop-color="#F39949"/>
<stop offset="1" stop-color="#E4EBF2"/>
</linearGradient>
<linearGradient id="paint45_linear" x1="-nan" y1="-nan" x2="-nan" y2="-nan" gradientUnits="userSpaceOnUse">
<stop stop-color="#0533F5"/>
<stop offset="0.490467" stop-color="#F39949"/>
<stop offset="1" stop-color="#E4EBF2"/>
</linearGradient>
<linearGradient id="paint46_linear" x1="150.188" y1="219.219" x2="144.489" y2="209.7" gradientUnits="userSpaceOnUse">
<stop stop-color="#0533F5"/>
<stop offset="0.490467" stop-color="#F39949"/>
<stop offset="1" stop-color="#E4EBF2"/>
</linearGradient>
<linearGradient id="paint47_linear" x1="134.315" y1="226.894" x2="130.818" y2="224.31" gradientUnits="userSpaceOnUse">
<stop stop-color="#F39949"/>
<stop offset="1" stop-color="#E4EBF2"/>
</linearGradient>
<linearGradient id="paint48_linear" x1="157.124" y1="226.894" x2="153.627" y2="224.31" gradientUnits="userSpaceOnUse">
<stop stop-color="#F39949"/>
<stop offset="1" stop-color="#E4EBF2"/>
</linearGradient>
<linearGradient id="paint49_linear" x1="145.719" y1="231.04" x2="142.222" y2="228.456" gradientUnits="userSpaceOnUse">
<stop stop-color="#F39949"/>
<stop offset="1" stop-color="#E4EBF2"/>
</linearGradient>
<linearGradient id="paint50_linear" x1="210.827" y1="106.909" x2="206.405" y2="105.663" gradientUnits="userSpaceOnUse">
<stop stop-color="#F39949"/>
<stop offset="1" stop-color="#E4EBF2"/>
</linearGradient>
<linearGradient id="paint51_linear" x1="196.059" y1="208.334" x2="191.637" y2="209.58" gradientUnits="userSpaceOnUse">
<stop stop-color="#F39949"/>
<stop offset="1" stop-color="#E4EBF2"/>
</linearGradient>
<linearGradient id="paint52_linear" x1="210.802" y1="189.464" x2="206.38" y2="190.71" gradientUnits="userSpaceOnUse">
<stop stop-color="#F39949"/>
<stop offset="1" stop-color="#E4EBF2"/>
</linearGradient>
<linearGradient id="paint53_linear" x1="206.836" y1="201.56" x2="202.414" y2="202.806" gradientUnits="userSpaceOnUse">
<stop stop-color="#F39949"/>
<stop offset="1" stop-color="#E4EBF2"/>
</linearGradient>
<linearGradient id="paint54_linear" x1="91.8929" y1="207.544" x2="96.3149" y2="208.79" gradientUnits="userSpaceOnUse">
<stop stop-color="#F39949"/>
<stop offset="1" stop-color="#E4EBF2"/>
</linearGradient>
<linearGradient id="paint55_linear" x1="81.1156" y1="200.77" x2="85.5376" y2="202.016" gradientUnits="userSpaceOnUse">
<stop stop-color="#F39949"/>
<stop offset="1" stop-color="#E4EBF2"/>
</linearGradient>
<linearGradient id="paint56_linear" x1="222.782" y1="139.762" x2="220.198" y2="136.265" gradientUnits="userSpaceOnUse">
<stop stop-color="#F39949"/>
<stop offset="1" stop-color="#E4EBF2"/>
</linearGradient>
<linearGradient id="paint57_linear" x1="222.782" y1="162.571" x2="220.198" y2="159.074" gradientUnits="userSpaceOnUse">
<stop stop-color="#F39949"/>
<stop offset="1" stop-color="#E4EBF2"/>
</linearGradient>
<linearGradient id="paint58_linear" x1="226.928" y1="151.167" x2="224.344" y2="147.67" gradientUnits="userSpaceOnUse">
<stop stop-color="#F39949"/>
<stop offset="1" stop-color="#E4EBF2"/>
</linearGradient>
<linearGradient id="paint59_linear" x1="167.666" y1="149.036" x2="133.245" y2="143.569" gradientUnits="userSpaceOnUse">
<stop stop-color="#0533F5"/>
<stop offset="0.490467" stop-color="#F39949"/>
<stop offset="1" stop-color="#E4EBF2"/>
</linearGradient>
</defs>
</svg>
