<svg xmlns="http://www.w3.org/2000/svg" width="83" height="32" fill="none"><path fill="#929292" d="M31.09 31.23c.58 0 1.06-.2 1.45-.59.4-.4.59-.88.59-1.46 0-.57-.2-1.06-.59-1.45-.4-.4-.87-.6-1.45-.6H16.9V2.56c0-.58-.2-1.07-.59-1.46-.39-.4-.87-.59-1.45-.59-.54 0-1.02.2-1.4.59-.4.4-.6.88-.6 1.46 0 0 0 11.07 0 16.6 0 3.35 0 6.25 0 6.25 0 .58 1.63 3.98 2 4.37.38.4-.7 1.3-.48 1.4.23.11 1.24.06 1.54.06.28 0 .52 0 .7 0 4.83 0 14.47 0 14.47 0z"/><path fill="#929292" d="M14.66 31.23c.47 0 .85-.11 1.17-.33.3-.23.56-.55.75-.97L28.63 3.21c.33-.68.34-1.3.02-1.86-.3-.57-.87-.85-1.69-.85-.49 0-.87.09-1.16.26-.28.17-.53.49-.75.96 0 0-6.44 15.74-8.47 20.36-.59 1.34-.67.45-1.15 1.54-.28.62-.82 1.86-.82 1.86L4.36 1.72A1.9 1.9 0 002.64.51L2.4.5C1.57.5 1 .79.7 1.37c-.3.57-.26 1.3.12 2.2l11.93 26.36c.4.87 1.05 1.3 1.91 1.3z"/><path fill="#929292" fill-rule="evenodd" d="M50.24 29.95a9.41 9.41 0 01-5.14 1.44c-1.9 0-3.62-.48-5.13-1.44a10.2 10.2 0 01-3.59-3.9 11.64 11.64 0 01-1.31-5.56c0-2.07.48-3.94 1.43-5.59a10.6 10.6 0 019.39-5.35 10.58 10.58 0 019.35 5.35 10.97 10.97 0 011.43 5.59v8.77a1.95 1.95 0 01-2 2c-.58 0-1.05-.18-1.43-.56l-.14-.15a1.97 1.97 0 01-.43-1.29V27.8l-.1.13c-.67.79-1.45 1.46-2.33 2.02zm-7.9-3.07a6.7 6.7 0 003.55.97 6.67 6.67 0 006.03-3.6c.6-1.12.9-2.37.9-3.76 0-1.42-.3-2.68-.9-3.8a6.67 6.67 0 00-6.04-3.6 6.7 6.7 0 00-3.54.96 6.94 6.94 0 00-2.5 2.64 7.74 7.74 0 00-.93 3.8c0 1.39.3 2.64.92 3.76.62 1.11 1.45 1.99 2.51 2.63zM76.82 29.95a10.65 10.65 0 01-5.53 1.44 10.5 10.5 0 01-9.33-5.35 11.4 11.4 0 01-1.45-5.6V2.52c0-.6.2-1.1.57-1.46.38-.37.86-.55 1.43-.55.6 0 1.09.18 1.45.55.37.37.55.85.55 1.46v10.62a10.1 10.1 0 013.31-2.62 9.42 9.42 0 014.26-.96c1.9 0 3.61.48 5.13 1.44a10.2 10.2 0 013.59 3.9c.87 1.63 1.3 3.49 1.3 5.56 0 2.07-.47 3.93-1.42 5.59a10.65 10.65 0 01-3.86 3.91zm-9.08-3.07a6.7 6.7 0 003.55.97 6.67 6.67 0 006.06-3.62c.61-1.13.92-2.4.92-3.78 0-1.42-.3-2.68-.92-3.78a7.03 7.03 0 00-2.5-2.61 6.67 6.67 0 00-3.56-.97 6.7 6.7 0 00-6.03 3.58c-.6 1.1-.9 2.36-.9 3.78 0 1.39.3 2.65.9 3.78a6.76 6.76 0 002.48 2.65z" clip-rule="evenodd"/></svg>