<svg xmlns="http://www.w3.org/2000/svg" width="105" height="64" fill="none"><path fill="#929292" fill-rule="evenodd" d="M85.2 59.7v1.67c-1.92 0-2.88-.93-2.88-2.8V51h1.97v7.77c0 .57.3.9.9.94zm-49.4.9l-.85.63h-1.4c-1.55 0-2.32-.74-2.32-2.24v-7.3h1.97v2.23h2.46v1.66H33.2v3.53c0 .3.15.44.46.44h2.14v1.04zm-30.64.63l2.27-7-.2-.3h-1.7L3.8 59.57h-.16L1.9 53.93H.2l-.2.3 2.27 7h2.9zm10.7 0l.86-.62v-1.03h-3.77c-.3 0-.45-.14-.45-.44v-.83H17v-2.13c0-1.5-.76-2.24-2.3-2.24h-1.86c-1.54 0-2.32.75-2.32 2.24V59c0 1.5.78 2.23 2.32 2.23h3.03zM12.5 56.8h2.54v-.77c0-.3-.15-.44-.46-.44h-1.63c-.3 0-.45.14-.45.43v.78zm10.35 4.43V55.6h2.1c.3 0 .44.14.44.43v5.2h1.96v-5.06c0-1.5-.77-2.24-2.3-2.24h-4.18v7.3h1.97zm22.85 0v-7.3h-1.97v5.64h-2.1c-.3 0-.45-.14-.45-.44v-5.2H39.2V59c0 1.5.78 2.23 2.33 2.23h4.17zm9.84-5.06v5.06H51.6c-1.55 0-2.32-.73-2.32-2.2 0-1.46.77-2.2 2.3-2.2h2v-.8c0-.3-.17-.44-.47-.44H50.1v-1.05l.86-.62h2.28c1.55 0 2.32.75 2.32 2.24zm-1.97 3.4H51.7c-.3 0-.45-.14-.45-.44v-.36c0-.3.15-.44.46-.44h1.87v1.24zm7.8-3.8v5.46h-1.96v-6.36c.36-.62 1.03-.94 2.03-.94h1.55l.85.62v1.04H61.9c-.25 0-.43.05-.52.17zm9.3 8.23l3.15-9.78-.2-.3h-1.7l-1.75 5.65h-.14l-1.74-5.64h-1.7l-.2.3 2.26 7h.96l-.86 2.48.2.3h1.7zm23.92-2.77v-5.06c0-1.5-.78-2.24-2.32-2.24h-2.3l-.85.62v1.04h3.03c.3 0 .46.14.46.43v.8h-1.97c-1.55 0-2.32.74-2.32 2.2 0 1.47.77 2.2 2.32 2.2h3.94zm-3.84-1.66h1.86v-1.24h-1.86c-.3 0-.46.15-.46.44v.36c0 .3.16.44.46.44zm11.93 1.66c1.53 0 2.3-.74 2.3-2.24v-2.83c0-1.5-.77-2.24-2.3-2.24h-2.2V51h-2v10.23h4.2zm-2.2-1.66h2.07c.3 0 .46-.14.46-.44v-3.1c0-.3-.15-.44-.46-.44h-2.08v3.97z" clip-rule="evenodd"/><path fill="#929292" d="M39.17 39.65c.74 0 1.36-.25 1.86-.76.5-.52.75-1.14.75-1.9 0-.73-.25-1.36-.75-1.87-.5-.5-1.12-.76-1.86-.76H21V2.64c0-.74-.25-1.37-.75-1.88-.5-.5-1.12-.76-1.86-.76-.7 0-1.3.25-1.8.76-.52.5-.77 1.14-.77 1.88 0 0 0 14.3 0 21.43 0 4.32 0 8.06 0 8.06 0 .74 2.08 5.13 2.56 5.64.48.5-.92 1.68-.63 1.82.3.12 1.6.05 1.97.05.36 0 .67 0 .9 0 6.18 0 18.53 0 18.53 0zM18.14 39.65c.6 0 1.08-.14 1.48-.43.4-.3.73-.7.97-1.24L36 3.5c.42-.88.43-1.68.03-2.4C35.65.35 34.93 0 33.9 0c-.64 0-1.14.1-1.5.33-.37.22-.7.63-.97 1.24 0 0-8.24 20.32-10.84 26.28-.76 1.72-.87.57-1.5 1.98-.34.8-1.04 2.4-1.04 2.4L4.96 1.58C4.52.6 3.8.1 2.73 0h-.3C1.36 0 .64.37.24 1.12c-.37.74-.32 1.7.17 2.84l15.3 34.02c.5 1.1 1.33 1.67 2.44 1.67z"/><path fill="#929292" fill-rule="evenodd" d="M63.7 38c-1.95 1.24-4.14 1.85-6.6 1.85-2.43 0-4.62-.6-6.56-1.85-1.94-1.23-3.47-2.9-4.6-5.02-1.1-2.12-1.67-4.5-1.67-7.2 0-2.66.6-5.07 1.83-7.2 1.22-2.13 2.88-3.8 4.97-5.05 2.1-1.23 4.44-1.85 7.05-1.85 2.6 0 4.95.62 7.02 1.85 2.08 1.24 3.73 2.92 4.95 5.05 1.2 2.13 1.82 4.54 1.82 7.2v11.33c0 .76-.24 1.38-.73 1.87-.5.5-1.1.73-1.84.73s-1.35-.24-1.83-.73l-.17-.2c-.37-.45-.56-1-.56-1.66v-1.88l-.13.17c-.86 1-1.85 1.88-2.98 2.6zm-10.12-3.96c1.35.83 2.87 1.25 4.54 1.25 1.7 0 3.23-.43 4.57-1.26 1.32-.83 2.38-1.96 3.15-3.4S67 27.6 67 25.8c0-1.84-.38-3.47-1.15-4.9-.77-1.45-1.83-2.58-3.16-3.4-1.35-.84-2.88-1.25-4.58-1.25-1.67 0-3.2.4-4.54 1.24-1.36.82-2.43 1.95-3.22 3.4-.78 1.43-1.18 3.06-1.18 4.9 0 1.8.4 3.4 1.18 4.84.8 1.44 1.86 2.57 3.22 3.4zM97.72 38c-2.07 1.24-4.43 1.85-7.07 1.85-2.6 0-4.95-.6-7.03-1.85-2.07-1.23-3.7-2.92-4.92-5.05-1.2-2.13-1.82-4.54-1.85-7.2V2.58c0-.8.24-1.42.72-1.9.5-.46 1.1-.7 1.84-.7.77 0 1.4.24 1.86.7.47.48.7 1.1.7 1.9v13.7c1.18-1.42 2.6-2.55 4.25-3.38 1.66-.83 3.48-1.24 5.45-1.24 2.44 0 4.63.6 6.58 1.85 1.94 1.24 3.47 2.9 4.6 5.03 1.1 2.1 1.67 4.5 1.67 7.18 0 2.67-.6 5.08-1.83 7.2-1.22 2.14-2.87 3.83-4.95 5.06zm-11.6-3.96c1.34.83 2.85 1.25 4.53 1.25 1.7 0 3.23-.43 4.56-1.26 1.35-.83 2.4-1.97 3.2-3.43.8-1.44 1.18-3.07 1.18-4.86 0-1.83-.4-3.45-1.18-4.87-.8-1.42-1.85-2.55-3.2-3.38-1.32-.84-2.85-1.25-4.55-1.25-1.68 0-3.2.4-4.54 1.24-1.35.82-2.4 1.95-3.18 3.37-.77 1.42-1.16 3.04-1.16 4.87 0 1.8.4 3.42 1.16 4.87.77 1.47 1.83 2.6 3.2 3.44z" clip-rule="evenodd"/></svg>