<svg width="248" height="46" viewBox="0 0 248 46" fill="none" xmlns="http://www.w3.org/2000/svg">
<path fill-rule="evenodd" clip-rule="evenodd" d="M247.473 32.0719H247.474C247.474 32.0131 247.473 31.9546 247.473 31.8962V32.0719Z" fill="white" fill-opacity="0.28"/>
<path fill-rule="evenodd" clip-rule="evenodd" d="M225.235 31.7927V33.1258C225.282 35.499 225.77 37.6014 226.702 39.4331C226.764 39.5543 226.828 39.6738 226.894 39.7914C224.131 42.8187 219.953 44.7899 215.849 44.7899C214.259 44.7899 212.744 44.494 211.352 43.9555V37.5751C212.577 38.6314 214.154 39.2603 215.849 39.2603C219.64 39.2603 225.233 36.1127 225.233 32.0717C225.233 32.0427 225.233 32.0136 225.233 31.9846C225.234 31.9206 225.234 31.8566 225.235 31.7927Z" fill="white" fill-opacity="0.16"/>
<path fill-rule="evenodd" clip-rule="evenodd" d="M234.938 24.2269C235.359 24.114 235.804 24.0539 236.27 24.0539C237.095 24.0539 237.852 24.2422 238.532 24.5785C237.907 24.2173 237.182 24.0366 236.354 24.0366C235.842 24.0366 235.37 24.1 234.938 24.2269Z" fill="white" fill-opacity="0.28"/>
<path fill-rule="evenodd" clip-rule="evenodd" d="M0.244369 24.8878V19.6302H2.62729C1.78147 19.4491 0.902798 19.3538 0 19.3538V24.8834C0.0817171 24.8834 0.163211 24.8848 0.244369 24.8878Z" fill="white" fill-opacity="0.28"/>
<path fill-rule="evenodd" clip-rule="evenodd" d="M21.4695 44.7185C27.7757 44.0371 32.1501 38.574 32.1501 32.0719C32.1501 29.1979 33.7695 26.7758 36.0688 25.6166V19.6302H41.7957C40.9338 19.4491 40.0457 19.3538 39.1432 19.3538C29.8913 19.3538 26.5645 25.1188 26.5645 32.0719C26.5645 35.6177 24.5296 38.4755 21.4695 39.1227V44.7185Z" fill="white" fill-opacity="0.16"/>
<path fill-rule="evenodd" clip-rule="evenodd" d="M49.4571 24.313C51.2126 26.4693 52.2806 29.1668 52.2806 32.0717C52.2806 36.1127 55.4822 39.2602 59.2737 39.2602C63.0652 39.2602 66.4685 36.1128 66.4685 32.0717C66.4685 31.2082 66.5512 30.3631 66.7093 29.545V36.2189C66.7355 38.2887 67.2511 40.0293 68.2553 41.4406C65.7826 43.5147 62.5742 44.7899 59.2737 44.7899C57.2149 44.7899 55.2812 44.2935 53.5764 43.4163V40.1242H49.5381C48.1668 38.4283 47.2217 36.3714 46.8598 34.1281H51.8309V29.6179H46.2135C45.479 27.8062 43.9748 26.3521 42.1958 25.5544V24.313H49.4571Z" fill="white" fill-opacity="0.16"/>
<path fill-rule="evenodd" clip-rule="evenodd" d="M86.7301 22.1599C89.6033 24.503 91.4242 28.0929 91.4242 32.0719C91.4242 36.1129 94.6258 39.2604 98.4173 39.2604C102.209 39.2604 105.41 36.1129 105.41 32.0719C105.36 29.1152 106.103 26.4392 107.483 24.3132H107.491V40.8803C105.213 43.2829 102.006 44.7901 98.4173 44.7901C93.0557 44.7901 88.5448 41.425 86.7139 36.7359C86.7245 36.5267 86.7301 36.3141 86.7301 36.0982V22.1599Z" fill="white" fill-opacity="0.16"/>
<path fill-rule="evenodd" clip-rule="evenodd" d="M114.243 19.6302C115.074 19.4488 115.952 19.3538 116.872 19.3538C127.241 19.3538 130.568 22.354 130.568 32.0719C130.568 34.9806 132.227 37.4265 134.571 38.5686V44.43C129.027 43.0674 124.983 38.0017 124.983 32.0719C124.983 28.0308 120.664 24.8834 116.872 24.8834C115.587 24.8834 114.496 25.2456 113.618 25.882V24.3132H121.246V19.6302H114.243Z" fill="white" fill-opacity="0.16"/>
<path fill-rule="evenodd" clip-rule="evenodd" d="M140.698 44.3933C142.97 43.8053 144.984 42.5932 146.563 40.9553L144.014 35.908H143.479C142.798 37.0136 141.833 37.9092 140.698 38.4956V44.3933Z" fill="white" fill-opacity="0.28"/>
<path fill-rule="evenodd" clip-rule="evenodd" d="M150.826 21.0624C151.114 21.2323 151.385 21.4173 151.641 21.6175C152.942 22.6314 153.745 23.966 154.05 25.6211C154.985 25.1476 156.034 24.8834 157.133 24.8834C160.925 24.8834 164.126 28.0308 164.126 32.0719C164.126 36.4921 165.923 40.4321 169.034 42.7162V26.7875C166.899 22.4249 162.255 19.3538 157.133 19.3538C154.825 19.3538 152.674 19.9776 150.826 21.0624Z" fill="white" fill-opacity="0.16"/>
<path fill-rule="evenodd" clip-rule="evenodd" d="M175.143 44.7821C175.29 44.7873 175.439 44.7899 175.588 44.7899C182.606 44.7899 189.842 39.0249 189.842 32.0717C189.842 31.2929 189.941 30.5472 190.127 29.8509V21.0535C186.516 23.2642 184.257 27.3998 184.257 32.0717C184.257 36.1128 179.379 39.2603 175.588 39.2603C175.436 39.2603 175.288 39.2552 175.143 39.2452V44.7821Z" fill="white" fill-opacity="0.16"/>
<path fill-rule="evenodd" clip-rule="evenodd" d="M149.947 34.2957C149.885 34.3266 149.821 34.3571 149.756 34.3873L149.884 34.6311C149.907 34.5198 149.928 34.408 149.947 34.2957Z" fill="white" fill-opacity="0.28"/>
<path fill-rule="evenodd" clip-rule="evenodd" d="M211.352 44.7899H205.26L196.253 29.1342V44.7899H190.127V19.6301H196.253L199.85 25.8938L203.267 31.8454L205.242 35.2859V19.6301H211.352V44.7899Z" fill="#E5E5E5"/>
<path fill-rule="evenodd" clip-rule="evenodd" d="M175.143 44.7899H169.034V19.6301H175.143V44.7899Z" fill="#E5E5E5"/>
<path fill-rule="evenodd" clip-rule="evenodd" d="M144.572 24.3131H140.698V31.2251L144.582 31.225C145.741 31.2234 146.611 30.9239 147.191 30.3265C147.784 29.7159 148.081 28.8692 148.081 27.7863C148.081 26.7035 147.784 25.8567 147.191 25.2461C147.075 25.1252 146.525 24.7793 146.291 24.6272C145.881 24.4472 145.401 24.345 144.852 24.3194L144.572 24.3131ZM134.571 19.6301H144.572C146.981 19.6301 148.969 20.053 150.537 20.8987L150.827 21.0622C151.114 21.2322 151.385 21.4172 151.641 21.6174C152.942 22.6313 153.745 23.9659 154.05 25.621C154.143 26.1284 154.19 26.6658 154.19 27.2334C154.19 28.9844 153.829 30.436 153.108 31.5879C152.428 32.6913 151.374 33.5939 149.947 34.2957C149.885 34.3266 149.821 34.3572 149.756 34.3873L149.884 34.6311L155.063 44.5307V44.7899H148.5L146.563 40.9553L144.014 35.908H140.698V44.3933C139.697 44.6521 138.647 44.7899 137.561 44.7899C136.529 44.7899 135.528 44.6651 134.571 44.4299V19.6301Z" fill="#E5E5E5"/>
<path fill-rule="evenodd" clip-rule="evenodd" d="M137.561 44.79C138.647 44.79 139.697 44.6521 140.698 44.3933V44.79H137.561Z" fill="white"/>
<path fill-rule="evenodd" clip-rule="evenodd" d="M134.571 44.4299C135.528 44.6651 136.529 44.79 137.561 44.79H134.571V44.4299Z" fill="white"/>
<path fill-rule="evenodd" clip-rule="evenodd" d="M113.618 44.7899H107.491V24.3131H100.003V19.6301H121.246V24.3131H113.618V44.7899Z" fill="#E5E5E5"/>
<path fill-rule="evenodd" clip-rule="evenodd" d="M72.8707 36.34C72.9405 39.0932 74.2325 40.4699 76.746 40.4699C78.0145 40.4699 78.9746 40.1243 79.6259 39.4331C80.2777 38.7419 80.6034 37.6187 80.6034 36.0635V19.6301H86.7302V36.098C86.7302 36.3139 86.7246 36.5265 86.714 36.7358C86.6319 38.3355 86.2359 39.7414 85.5259 40.9537C84.7227 42.3131 83.571 43.3499 82.0696 44.0642C80.5687 44.7784 78.7942 45.1355 76.746 45.1355C73.6504 45.1355 71.2129 44.3406 69.4322 42.7509C68.9848 42.3512 68.5921 41.9145 68.2553 41.4406C67.251 40.0294 66.7355 38.2888 66.7092 36.219V19.6301H72.8707V36.34Z" fill="#E5E5E5"/>
<path fill-rule="evenodd" clip-rule="evenodd" d="M53.5763 44.7899H36.0688V19.6301H53.6109V24.3131H42.1957V29.618H51.8308V34.1281H42.1957V40.1243H53.5763V44.7899Z" fill="#E5E5E5"/>
<path fill-rule="evenodd" clip-rule="evenodd" d="M20.1301 44.7901C20.5854 44.7901 21.0322 44.7658 21.4697 44.7185V44.7901H20.1301Z" fill="white"/>
<path fill-rule="evenodd" clip-rule="evenodd" d="M14.6899 43.5942C16.3656 44.3604 18.2144 44.79 20.1301 44.79H15.3778L14.6899 43.5942Z" fill="white"/>
<path fill-rule="evenodd" clip-rule="evenodd" d="M12.4431 30.2051L15.3604 35.2859V19.6301H21.4696V44.7184C21.0321 44.7656 20.5854 44.7899 20.1301 44.7899C18.2144 44.7899 16.3656 44.3603 14.6899 43.5942L6.43126 29.2387L6.37105 29.1342V44.7899H0.244385V19.6301H6.37105L7.77118 22.0686L12.4431 30.2051Z" fill="#E5E5E5"/>
<path fill-rule="evenodd" clip-rule="evenodd" d="M178.307 6.14551L172.1 0L165.892 6.14551L172.1 12.291L178.307 6.14551Z" fill="#003EFF" fill-opacity="0.76"/>
<path fill-rule="evenodd" clip-rule="evenodd" d="M238.531 24.5786C237.907 24.2173 237.182 24.0367 236.354 24.0367C235.842 24.0367 235.37 24.1001 234.938 24.227C231.931 25.0327 230.103 28.5277 230.103 32.0719C230.103 34.9593 228.855 37.6417 226.894 39.7916C226.828 39.674 226.764 39.5545 226.702 39.4332C225.77 37.6015 225.282 35.4991 225.235 33.126V31.7091C225.235 29.2437 225.689 27.0722 226.597 25.1945C227.516 23.3051 228.825 21.8479 230.524 20.8226C232.235 19.7973 234.178 19.2847 236.354 19.2847C238.507 19.2847 240.427 19.7916 242.114 20.8053C243.801 21.8191 245.111 23.2648 246.042 25.1426C246.984 27.0089 247.461 29.1516 247.473 31.5708V32.7286C247.473 35.1823 247.013 37.3539 246.094 39.2432C245.942 39.5553 245.78 39.8557 245.606 40.1443C243.639 37.9386 242.414 35.1194 242.414 32.0719C242.414 28.9103 240.974 25.7878 238.531 24.5786Z" fill="#E5E5E5"/>
<path fill-rule="evenodd" clip-rule="evenodd" d="M238.531 24.5784C239.092 24.9029 239.571 25.3732 239.967 25.9892C240.817 27.2794 241.241 29.1744 241.241 31.6743V32.8321C241.23 35.2743 240.805 37.1463 239.967 38.4481C239.13 39.7498 237.936 40.4007 236.389 40.4007C234.76 40.4007 233.532 39.7383 232.706 38.4136C231.88 37.0887 231.467 35.1937 231.467 32.7284L231.484 30.8794C231.63 27.0782 232.781 24.8607 234.938 24.2268C231.931 25.0325 228.987 28.13 228.987 31.6743C228.987 34.5616 228.855 37.6416 226.894 39.7914C227.819 41.4498 229.064 42.7415 230.629 43.6667C232.305 44.6459 234.224 45.1355 236.389 45.1355C238.553 45.1355 240.479 44.6286 242.166 43.6148C243.585 42.759 244.731 41.602 245.606 40.1441C243.639 37.9384 243.529 34.7218 243.529 31.6743C243.529 28.5126 240.974 25.7876 238.531 24.5784Z" fill="#E5E5E5"/>
</svg>
