<svg width="149" height="123" viewBox="0 0 149 123" fill="none" xmlns="http://www.w3.org/2000/svg">
<path opacity="0.480887" fill-rule="evenodd" clip-rule="evenodd" d="M114.616 57.2585C118.213 61.943 134.454 62.0025 130.887 70.953C128.314 77.4077 111.402 68.3059 106.669 69.5742C101.935 70.8425 94.4722 74.2556 85.2667 74.2961C76.0612 74.3367 68.888 68.5163 66.08 69.2687C63.272 70.0211 62.3302 73.3914 55.4741 76.4885C48.618 79.5857 39.1042 76.4969 36.9954 77.0619C34.8866 77.627 36.7348 78.3744 36.8135 84.8379C36.8922 91.3014 30.0677 97.0786 25.0171 92.9245C19.9665 88.7705 27.2421 70.4611 27.9087 69.3312C28.5752 68.2012 30.6353 65.0244 33.1755 65.9484C35.7157 66.8724 37.5576 67.3391 39.6455 65.607C41.7335 63.8748 73.7187 49.1341 83.8068 47.3405C93.8948 45.5469 111.019 52.5739 114.616 57.2585Z" fill="#00F5FF"/>
<path fill-rule="evenodd" clip-rule="evenodd" d="M108.871 32.9247C99.7221 34.9674 91.7538 33.8699 84.966 29.6321C74.7844 23.2756 72.2445 17.1984 72.0446 16.4523C71.6299 14.9047 80.9504 19.3551 85.9121 20.1793C90.8738 21.0035 109.832 20.8946 123.886 21.1155C133.606 21.2683 135.8 26.8697 136.573 29.7536C137.611 33.6259 134.78 37.2202 131.608 38.6195C128.436 40.0188 123.11 45.128 126.675 49.7061C130.24 54.2843 146.435 54.2662 142.836 63.0627C140.24 69.4063 123.417 60.5579 118.691 61.8244C113.965 63.0908 106.506 66.4739 97.3256 66.5571C88.1452 66.6402 81.0192 60.9647 78.2154 61.716C75.4115 62.4673 74.4564 65.7777 67.6046 68.8481C60.7528 71.9184 51.2797 68.9334 49.1741 69.4976C47.0684 70.0618 48.9079 70.7863 48.956 77.1261C49.004 83.4659 42.1711 89.165 37.154 85.114C32.1369 81.0631 39.4787 63.0687 40.1488 61.9572C40.8188 60.8457 42.8882 57.7198 45.4171 58.6142C47.9459 59.5086 49.7805 59.9577 51.8709 58.2488C53.9612 56.5398 50.4267 43.3488 63.5713 40.4541C76.7158 37.5594 85.9279 41.9296 95.9967 40.1227C102.709 38.9181 107.001 36.5187 108.871 32.9247Z" fill="#00F5FF"/>
<path fill-rule="evenodd" clip-rule="evenodd" d="M128.073 29.3138C127.528 29.2606 126.888 29.0596 126.152 28.7108C125.05 28.1877 124.48 26.6549 123.137 26.7753C121.794 26.8958 119.966 27.851 119.484 27.9803C119.001 28.1097 121.608 28.315 122.073 29.0352C122.537 29.7555 123.238 30.8116 125.14 30.7559C126.409 30.7187 127.386 30.238 128.073 29.3138Z" fill="#32323E"/>
<g opacity="0.31722">
<path opacity="0.31722" fill-rule="evenodd" clip-rule="evenodd" d="M59.792 2.3689L119.584 62.1844L59.792 122L0 62.1844L59.792 2.3689ZM59.792 8.35045L5.9792 62.1844L59.792 116.018L113.605 62.1844L59.792 8.35045Z" fill="#00F5FF"/>
<path opacity="0.31722" fill-rule="evenodd" clip-rule="evenodd" d="M59.7921 28.4272L93.5361 62.1845L59.7921 95.9418L26.0481 62.1845L59.7921 28.4272ZM59.7921 31.9806L29.6001 62.1845L59.7921 92.3884L89.9841 62.1845L59.7921 31.9806Z" fill="#00F5FF"/>
<path opacity="0.31722" d="M3.552 62.6438C8.0523 59.2687 15.3498 56.7657 25.4444 55.1347C40.5865 52.6883 51.9896 57.5847 62.1255 62.6438C72.2614 67.7029 79.9471 70.2883 91.9139 69.8318C103.881 69.3753 111.681 64.9585 116.032 61.3939" stroke="#00F5FF" stroke-width="3"/>
</g>
</svg>
