<svg width="125" height="103" viewBox="0 0 125 103" fill="none" xmlns="http://www.w3.org/2000/svg">
<path opacity="0.480887" fill-rule="evenodd" clip-rule="evenodd" d="M96.803 48.3383C99.8406 52.2931 113.557 52.342 110.543 59.899C108.37 65.3488 94.0876 57.6657 90.0897 58.737C86.0919 59.8082 79.7884 62.6904 72.0137 62.7254C64.239 62.7604 58.1811 57.8469 55.8095 58.4824C53.4379 59.1179 52.6422 61.9634 46.8515 64.5788C41.0608 67.1943 33.0259 64.5872 31.2448 65.0645C29.4637 65.5417 31.0246 66.1726 31.0905 71.6296C31.1565 77.0867 25.3922 81.9648 21.127 78.458C16.8618 74.9513 23.008 59.4923 23.5711 58.5383C24.1341 57.5842 25.8743 54.9019 28.0196 55.6818C30.1649 56.4618 31.7204 56.8556 33.484 55.393C35.2476 53.9304 62.2626 41.4824 70.7829 39.9673C79.3031 38.4521 93.7653 44.3835 96.803 48.3383Z" fill="#00F5FF"/>
<path fill-rule="evenodd" clip-rule="evenodd" d="M91.9524 27.7942C91.9524 27.7942 80.3621 30.3822 71.7635 25.0163C63.1648 19.6504 61.0202 14.5197 60.8515 13.8899C60.5014 12.5833 68.3728 16.3399 72.5633 17.0353C76.7537 17.7308 92.765 17.6373 104.635 17.8226C112.844 17.9508 114.697 22.6798 115.349 25.1145C116.225 28.3838 113.834 31.4187 111.155 32.6003C108.476 33.782 103.977 38.096 106.988 41.961C109.998 45.826 123.677 45.8093 120.636 53.2364C118.443 58.5924 104.236 51.1233 100.244 52.1929C96.2522 53.2625 89.9524 56.1195 82.1989 56.1904C74.4454 56.2614 68.4275 51.4703 66.0594 52.1048C63.6913 52.7393 62.8843 55.5343 57.0972 58.1271C51.3101 60.72 43.3097 58.2006 41.5312 58.6771C39.7528 59.1536 41.3064 59.7651 41.3464 65.1177C41.3864 70.4703 35.6151 75.2825 31.3781 71.8628C27.1411 68.443 33.3434 53.2501 33.9094 52.3116C34.4753 51.3731 36.2234 48.7337 38.3591 49.4887C40.4948 50.2436 42.0442 50.6226 43.8098 49.1796C45.5754 47.7366 42.5914 36.5999 53.6931 34.1549C64.7949 31.7098 72.5748 35.3988 81.0788 33.8724C89.5828 32.346 91.9524 27.7942 91.9524 27.7942Z" fill="#00F5FF"/>
<path fill-rule="evenodd" clip-rule="evenodd" d="M108.171 24.7441C108.171 24.7441 107.48 24.6767 106.548 24.2351C105.617 23.7935 105.136 22.4994 104.002 22.6012C102.868 22.7031 101.324 23.5096 100.916 23.6189C100.508 23.7282 102.711 23.9013 103.103 24.5093C103.495 25.1174 104.087 26.009 105.693 25.9618C107.3 25.9146 108.171 24.7441 108.171 24.7441Z" fill="#32323E"/>
<g opacity="0.31722">
<path fill-rule="evenodd" clip-rule="evenodd" d="M101 52.5L50.5 2L0 52.5L50.5 103L101 52.5ZM95.95 52.5L50.5 7.05L5.05 52.5L50.5 97.95L95.95 52.5Z" fill="#00F5FF"/>
<path fill-rule="evenodd" clip-rule="evenodd" d="M79 52.5L50.5 24L22 52.5L50.5 81L79 52.5ZM76 52.5L50.5 27L25 52.5L50.5 78L76 52.5Z" fill="#00F5FF"/>
<path d="M3 52.8879C3 52.8879 8.70139 48.6137 21.4902 46.5482C34.2791 44.4828 43.9102 48.6167 52.4709 52.8879C61.0316 57.1591 67.5229 59.3418 77.63 58.9564C87.7371 58.571 94.3256 54.8421 98 51.8326" stroke="#00F5FF" stroke-width="3"/>
</g>
</svg>
