<svg width="225" height="53" viewBox="0 0 225 53" fill="none" xmlns="http://www.w3.org/2000/svg">
<path fill-rule="evenodd" clip-rule="evenodd" d="M49.9695 7.74643C52.444 8.62439 53.6812 9.79499 53.6812 11.2583C53.6812 11.7338 53.4596 12.6301 53.0164 13.947L42.3799 44.4012C42.306 44.6573 42.1768 44.9683 41.9921 45.3341C41.8074 45.6999 41.3181 46.1846 40.5241 46.7882C39.73 47.3918 38.7882 47.6936 37.6987 47.6936C36.6092 47.6936 35.6674 47.3918 34.8734 46.7882C34.0793 46.1846 33.5531 45.5901 33.2945 45.0048L26.8129 26.0738C22.7134 38.0727 20.6267 44.1817 20.5529 44.4012C20.479 44.6207 20.3128 44.9317 20.0543 45.3341C19.7958 45.7365 19.5003 46.1023 19.1679 46.4315C18.3185 47.2729 17.3028 47.6936 16.121 47.6936C14.9391 47.6936 13.9697 47.4192 13.2126 46.8705C12.4554 46.3218 11.9476 45.7731 11.6891 45.2243L11.3013 44.4012L0.609384 13.947C0.203126 12.7398 0 11.8436 0 11.2583C0 9.79499 1.23722 8.64268 3.7117 7.8013C4.78275 7.43548 5.75221 7.25257 6.62013 7.25257C7.48804 7.25257 8.15282 7.54522 8.61448 8.13053C9.07613 8.71584 9.49162 9.61208 9.86094 10.8193L15.9548 29.1467L21.9932 11.0936C22.5103 9.55721 23.4521 8.49635 24.8186 7.91104C25.4095 7.65497 26.1758 7.52694 27.1176 7.52694C28.0594 7.52694 28.9365 7.82873 29.749 8.43233C30.5615 9.03593 31.0786 9.63038 31.3002 10.2157L37.671 29.2564L43.7649 10.8193C44.0603 9.9779 44.3004 9.35602 44.4851 8.95362C44.6697 8.55122 45.0113 8.15797 45.5099 7.77386C46.0085 7.38975 46.6271 7.1977 47.3658 7.1977C48.1044 7.1977 48.9723 7.38061 49.9695 7.74643ZM68.7496 38.036H85.8124C86.6618 38.036 87.2989 38.0635 87.7236 38.1183C88.1483 38.1732 88.6377 38.347 89.1917 38.6396C90.1889 39.1518 90.6875 40.5784 90.6875 42.9197C90.6875 45.4804 90.0042 46.9802 88.6377 47.4192C88.0098 47.6387 87.0496 47.7485 85.757 47.7485H63.8191C61.2339 47.7485 59.7197 47.0534 59.2765 45.6633C59.0549 45.078 58.9441 44.1452 58.9441 42.8648V12.3557C58.9441 10.49 59.2949 9.21884 59.9966 8.54208C60.6984 7.86531 62.0279 7.52694 63.9853 7.52694H85.8124C86.6618 7.52694 87.2989 7.55437 87.7236 7.60925C88.1483 7.66412 88.6377 7.83788 89.1917 8.13053C90.1889 8.64268 90.6875 10.0693 90.6875 12.4106C90.6875 14.9713 90.0042 16.4711 88.6377 16.9101C88.0098 17.1296 87.0496 17.2394 85.757 17.2394H68.7496V22.7815H79.7185C80.568 22.7815 81.2051 22.8089 81.6298 22.8638C82.0545 22.9187 82.5439 23.0924 83.0978 23.3851C84.095 23.8972 84.5936 25.3239 84.5936 27.6651C84.5936 30.2259 83.8919 31.7257 82.4885 32.1647C81.8606 32.3842 80.9004 32.4939 79.6077 32.4939H68.7496V38.036ZM125.422 26.1836C127.601 28.7443 128.691 31.6159 128.691 34.7986C128.617 38.4567 127.352 41.5204 124.896 43.9897C122.44 46.459 119.458 47.6936 115.949 47.6936H101.379C98.7941 47.6936 97.2799 46.9985 96.8367 45.6084C96.6151 44.9865 96.5043 44.0354 96.5043 42.7551V12.3008C96.5043 11.4229 96.532 10.7827 96.5874 10.3803C96.6428 9.97791 96.8182 9.50235 97.1137 8.95362C97.6307 7.96591 99.0711 7.47206 101.435 7.47206H115.395C118.793 7.47206 121.637 8.64267 123.927 10.9839C126.327 13.3617 127.527 16.2151 127.527 19.544C127.527 21.9584 126.826 24.1716 125.422 26.1836ZM118.885 34.2498C118.885 33.3719 118.784 32.6768 118.581 32.1647C118.377 31.6525 118.036 31.2867 117.556 31.0672C116.817 30.7746 115.783 30.6282 114.453 30.6282C113.124 30.6282 112.127 30.3722 111.462 29.86C110.797 29.3479 110.465 28.2962 110.465 26.7049C110.465 25.1136 110.806 24.0618 111.49 23.5497C112.173 23.0376 113.309 22.7815 114.897 22.7815C116.374 22.7815 117.26 22.3974 117.556 21.6292C117.667 21.2268 117.722 20.5683 117.722 19.6538C117.722 18.7392 117.417 18.099 116.808 17.7332C116.198 17.3674 115.284 17.1845 114.066 17.1845H106.31V37.9812H115.395C117.722 37.9812 118.885 36.7374 118.885 34.2498ZM158.664 6.92334C163.206 6.92334 166.789 8.20368 169.411 10.7644C172.033 13.3251 173.344 16.2059 173.344 19.4068C173.344 22.6077 171.904 24.9215 169.023 26.3482V26.7323C169.393 26.9152 169.937 27.3085 170.658 27.9121C171.378 28.5157 171.959 29.1101 172.403 29.6954C173.621 31.2319 174.231 32.9878 174.231 34.9632C174.231 38.8774 172.753 42.1057 169.799 44.6482C166.844 47.1906 163.133 48.4618 158.664 48.4618C154.232 48.4618 150.539 47.1815 147.584 44.6207C146.476 43.633 145.497 42.3344 144.648 40.7248C144.352 40.1395 144.149 39.6639 144.039 39.2981L143.928 38.7494C143.521 37.5422 143.318 36.5545 143.318 35.7863C143.318 33.6645 145.128 32.6037 148.747 32.6037C150.225 32.6037 151.203 32.7866 151.684 33.1524C152.311 33.6279 152.865 34.5791 153.346 36.0057C153.715 37.1764 154.73 38.0543 156.392 38.6396C157.094 38.8591 157.87 38.9689 158.719 38.9689C160.677 38.9689 162.117 38.5756 163.04 37.7891C163.964 37.0026 164.425 36.1155 164.425 35.1278C164.425 34.1401 163.973 33.2713 163.068 32.5213C162.163 31.7714 161.092 31.3965 159.855 31.3965C158.618 31.3965 157.777 31.3599 157.334 31.2867C156.891 31.2136 156.411 31.0306 155.894 30.738C154.897 30.2624 154.398 28.8541 154.398 26.5128C154.398 23.9521 155.081 22.434 156.448 21.9584C157.076 21.7755 158.036 21.684 159.329 21.684C162.135 21.684 163.539 20.9707 163.539 19.544C163.539 18.7758 163.17 18.0442 162.431 17.3491C161.692 16.6541 160.667 16.3065 159.356 16.3065C158.045 16.3065 157.002 16.526 156.226 16.965C155.451 17.404 154.971 17.843 154.786 18.2819L154.453 18.9404C153.604 20.7695 152.385 21.684 150.797 21.684C149.874 21.684 148.858 21.3548 147.75 20.6963C145.904 19.6355 144.98 18.41 144.98 17.0199C144.98 16.4346 145.405 15.1908 146.255 13.2885C146.402 12.9593 146.808 12.3832 147.473 11.5601C148.138 10.737 148.904 10.0145 149.772 9.3926C150.64 8.77071 151.859 8.2037 153.429 7.69155C154.998 7.17941 156.743 6.92334 158.664 6.92334Z" fill="#0012B9"/>
<path fill-rule="evenodd" clip-rule="evenodd" d="M49.407 7.47056C51.8536 8.34611 53.0769 9.51349 53.0769 10.9727C53.0769 11.447 52.8578 12.3408 52.4196 13.6541L41.9028 44.0247C41.8298 44.28 41.702 44.5901 41.5194 44.9549C41.3368 45.3197 40.853 45.8031 40.0679 46.405C39.2828 47.007 38.3516 47.308 37.2743 47.308C36.1971 47.308 35.2659 47.007 34.4808 46.405C33.6957 45.8031 33.1754 45.2103 32.9197 44.6266L26.5111 25.7476C22.4577 37.7135 20.3945 43.8058 20.3215 44.0247C20.2485 44.2435 20.0841 44.5536 19.8285 44.9549C19.5729 45.3562 19.2808 45.721 18.9521 46.0494C18.1122 46.8884 17.108 47.308 15.9395 47.308C14.771 47.308 13.8124 47.0343 13.0638 46.4871C12.3152 45.9399 11.8131 45.3927 11.5575 44.8455L11.1741 44.0247L0.602524 13.6541C0.200839 12.4502 0 11.5564 0 10.9727C0 9.51349 1.22329 8.36435 3.66992 7.52528C4.72891 7.16047 5.68746 6.97806 6.54561 6.97806C7.40375 6.97806 8.06104 7.26991 8.5175 7.85361C8.97396 8.43731 9.38477 9.33109 9.74994 10.535L15.7752 28.812L21.7457 10.8086C22.2569 9.27637 23.1881 8.21842 24.5392 7.63472C25.1234 7.37935 25.8812 7.25167 26.8123 7.25167C27.7435 7.25167 28.6108 7.55264 29.4141 8.15458C30.2175 8.75652 30.7287 9.34933 30.9478 9.93303L37.247 28.9215L43.2722 10.535C43.5643 9.6959 43.8017 9.07573 43.9843 8.67443C44.1669 8.27314 44.5046 7.88097 44.9976 7.49792C45.4906 7.11486 46.1022 6.92334 46.8326 6.92334C47.5629 6.92334 48.421 7.10574 49.407 7.47056Z" fill="#D3D3D3"/>
<path fill-rule="evenodd" clip-rule="evenodd" d="M69.6234 37.5561H86.3693C87.203 37.5561 87.8282 37.5837 88.2451 37.6388C88.6619 37.6939 89.1422 37.8683 89.6859 38.1622C90.6645 38.6764 91.1538 40.1089 91.1538 42.4596C91.1538 45.0307 90.4833 46.5366 89.1422 46.9774C88.526 47.1978 87.5836 47.308 86.3149 47.308H64.7845C62.2473 47.308 60.7612 46.6101 60.3262 45.2143C60.1087 44.6267 60 43.6901 60 42.4045V11.7717C60 9.89846 60.3443 8.6221 61.033 7.9426C61.7217 7.26309 63.0266 6.92334 64.9476 6.92334H86.3693C87.203 6.92334 87.8282 6.95089 88.2451 7.00598C88.6619 7.06108 89.1422 7.23554 89.6859 7.52938C90.6645 8.04361 91.1538 9.47606 91.1538 11.8268C91.1538 14.3979 90.4833 15.9038 89.1422 16.3446C88.526 16.565 87.5836 16.6751 86.3149 16.6751H69.6234V22.2397H80.3886C81.2223 22.2397 81.8476 22.2673 82.2644 22.3224C82.6812 22.3775 83.1615 22.5519 83.7052 22.8458C84.6839 23.36 85.1732 24.7925 85.1732 27.1432C85.1732 29.7143 84.4845 31.2202 83.1071 31.661C82.4909 31.8814 81.5485 31.9916 80.2799 31.9916H69.6234V37.5561Z" fill="#D3D3D3"/>
<path fill-rule="evenodd" clip-rule="evenodd" d="M115.208 6.92334C118.497 6.92334 121.249 8.09869 123.466 10.4494C125.789 12.8369 126.951 15.7018 126.951 19.0442C126.951 21.4684 126.272 23.6906 124.913 25.7107C127.022 28.2818 128.077 31.1651 128.077 34.3606C128.005 38.0337 126.781 41.1098 124.404 43.589C122.027 46.0683 119.14 47.308 115.744 47.308H101.642C99.1394 47.308 97.6738 46.6101 97.2448 45.2143C97.0303 44.5899 96.9231 43.635 96.9231 42.3494V11.7717C96.9231 10.8902 96.9499 10.2474 97.0035 9.84337C97.0571 9.43934 97.2269 8.96186 97.5129 8.4109C98.0134 7.41919 99.4075 6.92334 101.695 6.92334H115.208ZM113.921 16.6751H106.414V37.5561H115.208C117.46 37.5561 118.586 36.3073 118.586 33.8097C118.586 32.9282 118.488 32.2303 118.291 31.7161C118.094 31.2019 117.764 30.8346 117.299 30.6142C116.584 30.3203 115.583 30.1734 114.296 30.1734C113.009 30.1734 112.044 29.9163 111.401 29.4021C110.757 28.8879 110.436 27.8319 110.436 26.2341C110.436 24.6364 110.766 23.5804 111.428 23.0662C112.089 22.5519 113.188 22.2948 114.725 22.2948C116.155 22.2948 117.013 21.9092 117.299 21.1378C117.406 20.7338 117.46 20.0727 117.46 19.1544C117.46 18.2362 117.165 17.5934 116.575 17.2261C115.985 16.8588 115.101 16.6751 113.921 16.6751Z" fill="#D3D3D3"/>
<path fill-rule="evenodd" clip-rule="evenodd" d="M158.542 5.76953C163.12 5.76953 166.731 7.04988 169.373 9.6106C172.016 12.1713 173.337 15.0521 173.337 18.253C173.337 21.4539 171.886 23.7677 168.983 25.1944V25.5785C169.355 25.7614 169.904 26.1547 170.63 26.7583C171.355 27.3619 171.942 27.9563 172.388 28.5416C173.617 30.078 174.231 31.8339 174.231 33.8094C174.231 37.7236 172.742 40.9519 169.764 43.4944C166.787 46.0368 163.046 47.308 158.542 47.308C154.076 47.308 150.354 46.0276 147.376 43.4669C146.259 42.4792 145.273 41.1806 144.417 39.571C144.119 38.9857 143.914 38.5101 143.803 38.1443L143.691 37.5956C143.282 36.3884 143.077 35.4007 143.077 34.6325C143.077 32.5107 144.901 31.4498 148.548 31.4498C150.037 31.4498 151.024 31.6328 151.507 31.9986C152.14 32.4741 152.699 33.4253 153.182 34.8519C153.555 36.0226 154.578 36.9005 156.253 37.4858C156.96 37.7053 157.742 37.8151 158.598 37.8151C160.571 37.8151 162.022 37.4218 162.953 36.6353C163.883 35.8488 164.349 34.9617 164.349 33.974C164.349 32.9863 163.893 32.1175 162.981 31.3675C162.069 30.6176 160.989 30.2427 159.743 30.2427C158.496 30.2427 157.649 30.2061 157.202 30.1329C156.756 30.0597 156.272 29.8768 155.751 29.5842C154.746 29.1086 154.243 27.7002 154.243 25.359C154.243 22.7983 154.932 21.2802 156.309 20.8046C156.942 20.6217 157.909 20.5302 159.212 20.5302C162.041 20.5302 163.455 19.8169 163.455 18.3902C163.455 17.622 163.083 16.8904 162.339 16.1953C161.594 15.5002 160.561 15.1527 159.24 15.1527C157.919 15.1527 156.867 15.3722 156.086 15.8112C155.304 16.2502 154.82 16.6892 154.634 17.1281L154.299 17.7866C153.443 19.6157 152.215 20.5302 150.614 20.5302C149.684 20.5302 148.66 20.201 147.543 19.5425C145.682 18.4816 144.752 17.2562 144.752 15.8661C144.752 15.2808 145.18 14.037 146.036 12.1347C146.185 11.8055 146.594 11.2293 147.264 10.4063C147.934 9.58316 148.707 8.86068 149.581 8.23879C150.456 7.6169 151.684 7.04989 153.266 6.53775C154.848 6.0256 156.607 5.76953 158.542 5.76953Z" fill="#D3D3D3"/>
<path d="M207.903 42.3974L214.241 36.0589C217.216 33.0838 218.011 28.5647 216.229 24.7531L212.65 17.0956C211.657 14.9717 209.95 13.2642 207.826 12.2713L200.169 8.69169C196.357 6.90979 191.838 7.70439 188.863 10.6796L182.524 17.0181C179.549 19.9933 178.754 24.5125 180.536 28.3242L184.116 35.9815C185.109 38.1051 186.816 39.8124 188.94 40.8053L196.596 44.3851C200.408 46.1672 204.928 45.3726 207.903 42.3974ZM200.707 43.0113L190.942 38.4469C190.321 38.1568 190.054 37.4184 190.344 36.7977C190.405 36.6669 190.488 36.5479 190.59 36.4458C191.342 35.6945 192.483 35.4939 193.445 35.9439L203.209 40.5087C203.83 40.7988 204.098 41.5371 203.807 42.1577C203.746 42.2884 203.663 42.4074 203.561 42.5094C202.81 43.2606 201.669 43.4612 200.707 43.0113ZM211.555 21.8023L213.591 26.1583C214.8 28.7439 214.261 31.8094 212.243 33.8276C210.941 35.1291 208.831 35.1291 207.529 33.8276C207.255 33.5535 207.031 33.2336 206.867 32.8825L204.831 28.5268C203.622 25.9411 204.161 22.8753 206.179 20.857C207.481 19.5554 209.591 19.5554 210.892 20.857C211.167 21.1311 211.391 21.451 211.555 21.8023ZM199.455 35.4577L195.934 33.8117C193.81 32.8189 192.102 31.1113 191.109 28.9874L189.464 25.4663C188.826 24.1017 189.415 22.4783 190.779 21.8404C191.511 21.4983 192.357 21.4983 193.089 21.8404L196.61 23.4864C198.734 24.4793 200.442 26.1868 201.435 28.3107L203.081 31.8318C203.719 33.1964 203.13 34.8198 201.765 35.4577C201.033 35.7999 200.187 35.7999 199.455 35.4577ZM198.763 11.3297L203.119 13.3663C204.787 14.1457 205.506 16.1292 204.727 17.7966C204.563 18.1478 204.339 18.4677 204.064 18.7418C202.046 20.76 198.981 21.2989 196.395 20.0902L192.039 18.0535C190.372 17.274 189.652 15.2905 190.431 13.6233C190.596 13.2721 190.82 12.9523 191.094 12.6782C193.112 10.6602 196.177 10.1212 198.763 11.3297ZM186.474 33.9787L181.91 24.215C181.46 23.2525 181.661 22.1113 182.412 21.36C182.897 20.8755 183.682 20.8755 184.167 21.36C184.269 21.4621 184.352 21.5811 184.413 21.7119L188.978 31.4751C189.428 32.4378 189.227 33.5792 188.476 34.3306C187.991 34.8152 187.205 34.8152 186.721 34.3306C186.619 34.2286 186.535 34.1095 186.474 33.9787Z" fill="#D3D3D3"/>
</svg>
