<svg xmlns="http://www.w3.org/2000/svg" width="24" height="26" fill="none"><path fill="#929292" fill-rule="evenodd" d="M18.37 22.96H2.8c-1.54 0-2.8-1.15-2.8-2.68V2.68C0 1.25 1.26 0 2.82 0h18.3c1.55 0 2.8 1.23 2.88 2.68V26s-6.26-5.33-6.37-5.43l.74 2.4zM9.85 6.16S8 6.1 6 7.53c0 0-2 3.4-2 7.6 0 0 1.1 1.9 4.14 1.96 0 0 .45-.58.9-1.1-1.7-.5-2.37-1.5-2.37-1.5s.14.06.37.2h.06c.03 0 .05.02.07.03.02.03.03.04.06.04 3.63 1.47 6.67 1.8 10.13-.36 0 0-.67 1.02-2.44 1.53.36.5.88 1.08.88 1.08 2.5-.04 3.73-1.3 4.14-1.73.1-.1.13-.14.15-.13 0-4.2-2.03-7.6-2.03-7.6-1.8-1.3-3.47-1.36-3.8-1.37l-.2.2c2.3.65 3.4 1.67 3.4 1.67-5.56-2.73-10.23-.46-10.94-.1-.05 0-.08.03-.1.03 0 0 1.12-1.1 3.57-1.67l-.15-.14z" clip-rule="evenodd"/></svg>