<?xml version="1.0" encoding="UTF-8"?>
<svg width="48px" height="48px" viewBox="0 0 48 48" version="1.1" xmlns="http://www.w3.org/2000/svg" xmlns:xlink="http://www.w3.org/1999/xlink">
    <title>Favicon_vlab</title>
    <g id="Favicon_vlab" stroke="none" stroke-width="1" fill="none" fill-rule="evenodd">
        <rect fill="#0F0D12" x="0" y="0" width="48" height="48"></rect>
        <g id="Logo_VL" transform="translate(6.000000, 6.000000)" fill="#B6B6B6" fill-rule="nonzero">
            <g id="Group-7">
                <path d="M35.5447202,35.7324431 C36.2126726,35.7324431 36.7743599,35.5036822 37.229782,35.0461605 C37.6852041,34.5886389 37.9129152,34.0243621 37.9129152,33.3533303 C37.9129152,32.6822985 37.6852041,32.1180218 37.229782,31.6605001 C36.7743599,31.2029784 36.2126726,30.9742176 35.5447202,30.9742176 L19.0584397,30.9742176 L19.0584397,2.37911273 C19.0584397,1.70808093 18.8307287,1.14380419 18.3753066,0.686282517 C17.9198844,0.228760839 17.3581972,-2.16915438e-13 16.6902447,-2.16915438e-13 C16.0526538,-2.16915438e-13 15.5061473,0.228760839 15.0507251,0.686282517 C14.595303,1.14380419 14.367592,1.70808093 14.367592,2.37911273 C14.367592,10.9635563 14.367592,17.401889 14.367592,21.6941108 C14.367592,24.2850485 14.367592,26.7045529 14.367592,28.9526241 C14.367592,29.6236559 16.2500034,33.5809387 16.6902447,34.0384604 C17.1304861,34.4959821 15.8658343,35.5547043 16.1283762,35.6724349 C16.390918,35.7901655 17.5653184,35.7324431 17.9128674,35.7324431 C18.2424535,35.7324431 18.5180887,35.7324431 18.7397731,35.7324431 C22.4742058,35.7324431 28.0758548,35.7324431 35.5447202,35.7324431 Z" id="Path"></path>
                <path d="M16.4589568,35.7324431 C16.995223,35.7324431 17.4447403,35.6028119 17.8075086,35.3435496 C18.170277,35.0842873 18.4620689,34.7106446 18.6828844,34.2226215 L32.6888964,3.15689958 C33.0674373,2.363862 33.0753235,1.63945268 32.7125552,0.983671608 C32.3497869,0.327890536 31.6952266,-9.9525907e-14 30.7488745,-9.9525907e-14 C30.1810632,-9.9525907e-14 29.7315459,0.0991296969 29.4003226,0.297389091 C29.0690994,0.495648484 28.7773075,0.869291188 28.5249469,1.4183172 C23.5367752,13.6210922 20.2560878,21.5136271 18.6828844,25.0959219 C18.0005645,26.6496123 17.900637,25.6106188 17.3433184,26.8796724 C17.1315649,27.3618499 16.8139348,28.0851162 16.3904279,29.0494712 L4.48760195,1.4183172 C4.11168985,0.551567801 3.44420488,0.0820785418 2.48514707,0.00984942501 L2.21635676,-9.9525907e-14 C1.23845953,-9.9525907e-14 0.576013016,0.335515897 0.229017223,1.00654769 C-0.11797857,1.67757949 -0.0706609615,2.53161995 0.370970048,3.56866909 L14.2350292,34.2226215 C14.7082053,35.2291692 15.4495145,35.7324431 16.4589568,35.7324431 Z" id="Path"></path>
            </g>
        </g>
    </g>
</svg>