<svg xmlns="http://www.w3.org/2000/svg" width="27" height="27" fill="none"><path fill="#929292" d="M13.5 0C6.09 0 0 6.09 0 13.5 0 19.83 4.44 25.58 10.34 27v-4.47a3.3 3.3 0 01-1.72-.04 3.32 3.32 0 01-1.93-1.58c-.3-.51-.85-1.08-1.42-1.03l-.13-1.58c1.22-.1 2.28.75 2.91 1.8.28.48.6.75 1.02.87.4.12.83.06 1.33-.11.12-1 .58-1.38.93-1.9-3.52-.53-4.92-2.4-5.48-3.87a6.2 6.2 0 01.96-5.94c.03-.03.07-.1.06-.16-.6-1.8.13-3.3.15-3.46.7.2.8-.2 3 1.13l.38.23c.16.1.1.04.27.02.91-.24 1.88-.38 2.83-.4.96.02 1.92.16 2.87.41l.12.02s.04-.01.11-.05c2.74-1.66 2.64-1.12 3.38-1.36.03.16.74 1.67.15 3.46-.08.24 2.38 2.5 1.02 6.1-.56 1.47-1.96 3.34-5.48 3.86.46.7 1 1.06 1 2.47V27C22.55 25.58 27 19.83 27 13.5 27 6.09 20.91 0 13.5 0z"/></svg>