<svg width="36" height="36" viewBox="0 0 36 36" fill="none" xmlns="http://www.w3.org/2000/svg">
<path d="M35.5 18C35.5 27.665 27.665 35.5 18 35.5C8.33502 35.5 0.5 27.665 0.5 18C0.5 8.33502 8.33502 0.5 18 0.5C27.665 0.5 35.5 8.33502 35.5 18Z" stroke="#00F5FF"/>
<path d="M26.885 17.1003L20.9965 11.1169C20.8431 10.961 20.5947 10.961 20.4414 11.1169C20.288 11.2727 20.288 11.5251 20.4414 11.6809L25.6598 16.9835H9.39258C9.17559 16.9835 9 17.1619 9 17.3824C9 17.6029 9.17559 17.7813 9.39258 17.7813H25.6598L20.4414 23.0838C20.288 23.2396 20.288 23.492 20.4414 23.6478C20.5181 23.7257 20.6185 23.7647 20.719 23.7647C20.8194 23.7647 20.9198 23.7257 20.9965 23.6478L26.885 17.6644C27.0383 17.5086 27.0383 17.2562 26.885 17.1003Z" fill="#00F5FF"/>
</svg>
