<svg xmlns="http://www.w3.org/2000/svg" width="28" height="27" fill="none"><path fill="#929292" fill-rule="evenodd" d="M22.64 11.3c.58-.6 1.35-.96 2.24-.96 3.26 0 4.35 4.46 1.4 6 .13.48.18 1 .18 1.52 0 5.05-5.57 9.14-12.44 9.14-6.84 0-12.4-4.1-12.4-9.14 0-.5.04-1 .15-1.5-3-1.53-1.93-6.02 1.35-6.02.88 0 1.7.37 2.26.98 2.12-1.5 4.93-2.44 8.05-2.58l1.8-8.3c.07-.28.35-.5.64-.42l5.75 1.3C22.02.57 22.8 0 23.7 0c1.3 0 2.35 1.1 2.35 2.4 0 1.3-1.05 2.38-2.35 2.38-1.27 0-2.3-1.06-2.3-2.36l-5.2-1.2-1.65 7.53c3.15.1 6 1.06 8.1 2.55zm-13.76 3c-1.3 0-2.35 1.07-2.35 2.4 0 1.3 1.05 2.36 2.35 2.35 1.27 0 2.3-1.06 2.3-2.36 0-1.34-1.03-2.4-2.3-2.4zm10.3 8.02c-2.15 2.2-8.2 2.2-10.36 0-.23-.2-.23-.58 0-.82.2-.2.58-.2.78 0 1.64 1.72 7.08 1.74 8.8 0 .2-.2.57-.2.77 0 .25.24.25.6 0 .82zm-2.36-5.62c0 1.3 1.04 2.36 2.3 2.36 1.3 0 2.35-1.07 2.35-2.36 0-1.33-1.04-2.4-2.34-2.4-1.27 0-2.3 1.07-2.3 2.4z" clip-rule="evenodd"/></svg>