<svg xmlns="http://www.w3.org/2000/svg" width="125" height="103" fill="none"><g><g><g><g fill-rule="evenodd" clip-rule="evenodd"><path fill="#00F5FF" d="M96.8 48.34c3.04 3.95 16.76 4 13.74 11.56-2.17 5.45-16.45-2.23-20.45-1.16s-10.3 3.95-18.1 4c-7.76.02-13.82-4.9-16.2-4.26-2.36.64-3.16 3.48-8.95 6.1-5.8 2.6-13.82 0-15.6.48-1.8.48-.23 1.1-.16 6.57.06 5.46-5.7 10.33-9.97 6.83-4.27-3.5 1.88-18.97 2.44-19.92.56-.96 2.3-3.64 4.45-2.86 2.14.78 3.7 1.18 5.46-.3 1.77-1.45 28.78-13.9 37.3-15.4 8.52-1.53 23 4.4 26.02 8.36z" opacity=".481"/><path fill="#00F5FF" d="M91.95 27.8s-11.6 2.58-20.2-2.78c-8.6-5.37-10.73-10.5-10.9-11.13-.35-1.32 7.52 2.44 11.7 3.14 4.2.7 20.22.6 32.1.78 8.2.13 10.05 4.86 10.7 7.3.88 3.26-1.52 6.3-4.2 7.48-2.67 1.18-7.17 5.5-4.16 9.36 3 3.87 16.68 3.85 13.64 11.28-2.2 5.35-16.4-2.12-20.4-1.05-4 1.06-10.3 3.92-18.04 4-7.75.06-13.77-4.73-16.14-4.1-2.37.64-3.18 3.43-8.96 6.03-5.8 2.6-13.8.07-15.57.55-1.78.47-.22 1.1-.18 6.44.04 5.35-5.73 10.16-9.97 6.74s1.96-18.6 2.53-19.55c.58-.93 2.32-3.57 4.46-2.8 2.13.74 3.68 1.12 5.45-.32 1.78-1.44-1.2-12.58 9.9-15.03 11.1-2.44 18.87 1.25 27.38-.28 8.5-1.52 10.87-6.08 10.87-6.08z"/><path fill="#32323E" d="M108.17 24.74s-.7-.06-1.62-.5c-.93-.45-1.4-1.74-2.55-1.64-1.13.1-2.68.9-3.08 1.02-.4.1 1.8.28 2.18.9.4.6 1 1.5 2.6 1.44 1.6-.05 2.47-1.22 2.47-1.22z"/></g></g><g opacity=".317"><path fill="#00F5FF" fill-rule="evenodd" d="M101 52.5L50.5 2 0 52.5 50.5 103 101 52.5zm-5.05 0L50.5 7.05 5.05 52.5 50.5 97.95 95.95 52.5z" clip-rule="evenodd"/><path fill="#00F5FF" fill-rule="evenodd" d="M79 52.5L50.5 24 22 52.5 50.5 81 79 52.5zm-3 0L50.5 27 25 52.5 50.5 78 76 52.5z" clip-rule="evenodd"/><path stroke="#00F5FF" stroke-width="3" d="M3 52.9s5.7-4.3 18.5-6.35c12.78-2.07 22.4 2.07 30.97 6.34 8.56 4.26 15.05 6.44 25.16 6.06 10.1-.4 16.7-4.12 20.37-7.13"/></g></g></g></svg>