<svg xmlns="http://www.w3.org/2000/svg" width="26" height="22" fill="none"><path fill="#929292" d="M26 2.53c-.97.43-2 .7-3.07.85 1.1-.67 1.95-1.7 2.34-2.98-1.03.62-2.16 1.06-3.38 1.3C20.9.66 19.5 0 18 0c-2.95 0-5.33 2.42-5.33 5.4 0 .42.04.83.13 1.22C8.37 6.4 4.44 4.26 1.8.98c-.45.8-.72 1.73-.72 2.73 0 1.88.95 3.53 2.37 4.5-.86-.03-1.7-.28-2.4-.67 0 0 0 .03 0 .06 0 2.6 1.84 4.78 4.26 5.28-.42.12-.9.18-1.4.18-.33 0-.67-.02-1-.1.7 2.14 2.65 3.7 4.98 3.77-1.8 1.43-4.1 2.3-6.6 2.3-.44 0-.86-.02-1.28-.08 2.36 1.54 5.16 2.42 8.18 2.42 9.8 0 15.17-8.22 15.17-15.34 0-.24 0-.47-.02-.7 1.06-.76 1.95-1.7 2.67-2.8z"/></svg>